/* XPM */
static char *a63f486c3504419ea2271154c2f51de0_0[] = {
/* columns rows colors chars-per-pixel */
"50 44 256 2 ",
"   c black",
".  c #170609",
"X  c #220A0E",
"o  c #341117",
"O  c #421922",
"+  c #461B24",
"@  c #471C25",
"#  c #481D25",
"$  c #461D26",
"%  c #492029",
"&  c #4F1E29",
"*  c #4F1E28",
"=  c #541C26",
"-  c #551C26",
";  c #551C28",
":  c #551C29",
">  c #571C29",
",  c #591B2A",
"<  c #581B28",
"1  c #581C28",
"2  c #581B29",
"3  c #581B27",
"4  c #591B27",
"5  c #591A26",
"6  c #5A1B25",
"7  c #5A1A25",
"8  c #5B1924",
"9  c #5D1923",
"0  c #5D1921",
"q  c #5F1921",
"w  c #631823",
"e  c #651923",
"r  c #671923",
"t  c #691924",
"y  c #6D1924",
"u  c #701925",
"i  c #731B27",
"p  c #751D29",
"a  c #781E2A",
"s  c #7C1F2B",
"d  c #80202B",
"f  c #83202B",
"g  c #841F2A",
"h  c #841E28",
"j  c #841E27",
"k  c #841D27",
"l  c #851C28",
"z  c #871D28",
"x  c #881E2A",
"c  c #891E27",
"v  c #881E28",
"b  c #881E29",
"n  c #881E2B",
"m  c #871E2B",
"M  c #861E2C",
"N  c #841F2C",
"B  c #80212D",
"V  c #7C232F",
"C  c #7C242F",
"Z  c #792530",
"A  c #772831",
"S  c #752A31",
"D  c #722D32",
"F  c #713133",
"G  c #6E3635",
"H  c #6D3B37",
"J  c #6E3F3A",
"K  c #6F453D",
"L  c #704740",
"P  c #734942",
"I  c #7A4B3D",
"U  c #804B3A",
"Y  c #844B39",
"T  c #874B38",
"R  c #884935",
"E  c #8A4835",
"W  c #8B4736",
"Q  c #8C4739",
"!  c #8E4738",
"~  c #98483C",
"^  c #A64942",
"/  c #B74B49",
"(  c #C74D4F",
")  c #CD4E52",
"_  c #D35055",
"`  c #D95259",
"'  c #DB545B",
"]  c #DC565F",
"[  c #DB5962",
"{  c #D75962",
"}  c #D25A62",
"|  c #A06569",
" . c #8F6A6C",
".. c #7A6F70",
"X. c #727272",
"o. c gray45",
"O. c #747474",
"+. c #767676",
"@. c #777777",
"#. c #848484",
"$. c gray53",
"%. c gray54",
"&. c #8D8C8D",
"*. c gray56",
"=. c #929192",
"-. c #939293",
";. c #959495",
":. c #969596",
">. c #989698",
",. c #999899",
"<. c #A89B93",
"1. c #A89C94",
"2. c #9E9E9F",
"3. c #9F9EA0",
"4. c #9F9FA1",
"5. c #A0A0A3",
"6. c #9FA0A5",
"7. c #A0A1A6",
"8. c #A0A3AA",
"9. c #A1A4AB",
"0. c #A1A4AC",
"q. c #A1A5AC",
"w. c #A1A5AD",
"e. c #A2A5AD",
"r. c #A2A6AD",
"t. c #A4A7AD",
"y. c #A6A9AE",
"u. c #A9AAAF",
"i. c #ABACB0",
"p. c #ADADB1",
"a. c #AEAEB1",
"s. c #AFB0B3",
"d. c #B1B2B4",
"f. c #B3B3B4",
"g. c #B4B4B6",
"h. c #B5B6B9",
"j. c #B7B9BC",
"k. c #BCBEC5",
"l. c #BEC2CA",
"z. c #C1C5CD",
"x. c #D6C9C0",
"c. c #CDC9CB",
"v. c #C4CAD6",
"b. c #C4CCD8",
"n. c #C5CDD8",
"m. c #C6CDD8",
"M. c #C6CED8",
"N. c #C7CED9",
"B. c #C7CED8",
"V. c #C8CED8",
"C. c #C9CED7",
"Z. c #C9CDD8",
"A. c #C9CDD9",
"S. c #C8CDDA",
"D. c #C8CEDB",
"F. c #C7CEDB",
"G. c #C8CEDC",
"H. c #C8CEDD",
"J. c #C9CFDD",
"K. c #CACFDC",
"L. c #D2D6E1",
"P. c #DEE0E6",
"I. c #E4E6E9",
"U. c #E7E8EB",
"Y. c #EBEDF0",
"T. c #EFF0F3",
"R. c #F4F5F7",
"E. c gray99",
"W. c #FDFDFD",
"Q. c #FDFDFE",
"!. c #FEFEFE",
"~. c #FDFEFE",
"^. c #FEFEFD",
"/. c None",
"(. c black",
"). c black",
"_. c black",
"`. c black",
"'. c black",
"]. c black",
"[. c black",
"{. c black",
"}. c black",
"|. c black",
" X c black",
".X c black",
"XX c black",
"oX c black",
"OX c black",
"+X c black",
"@X c black",
"#X c black",
"$X c black",
"%X c black",
"&X c black",
"*X c black",
"=X c black",
"-X c black",
";X c black",
":X c black",
">X c black",
",X c black",
"<X c black",
"1X c black",
"2X c black",
"3X c black",
"4X c black",
"5X c black",
"6X c black",
"7X c black",
"8X c black",
"9X c black",
"0X c black",
"qX c black",
"wX c black",
"eX c black",
"rX c black",
"tX c black",
"yX c black",
"uX c black",
"iX c black",
"pX c black",
"aX c black",
"sX c black",
"dX c black",
"fX c black",
"gX c black",
"hX c black",
"jX c black",
"kX c black",
"lX c black",
"zX c black",
"xX c black",
"cX c black",
"vX c black",
"bX c black",
"nX c black",
"mX c black",
"MX c black",
"NX c black",
"BX c black",
"VX c black",
"CX c black",
"ZX c black",
"AX c black",
"SX c black",
"DX c black",
"FX c black",
"GX c black",
"HX c black",
"JX c black",
"KX c black",
"LX c black",
"PX c black",
"IX c black",
"UX c black",
/* pixels */
"/./././././././././././././././././././././././././././././././././././././././././././././././././.",
"/./././././././././././././././././././././././././././././././././././././././././././././././././.",
"/./././././././././././././././././././././././././././././././././././.R Y.L./././././././././././.",
"/./././././././././././././././././././././././././././././././././././.R T.E.R././././././././././.",
"/././././././././././././././././././././././.* ; ; ; p f f f a /././.Y E z.R.E.U./././././././././.",
"/././././././././././././././././././././.* = > 4 a d l b x x g s /./.Y k.m.L.R.I./././././././././.",
"/./././././././././././././././././././.; 3 3 a s l m m x x b x g N R T v.G.G.T.I./././././././././.",
"/./././././././././././././././././.+ * > 6 s M x m a u i i i i m m T g.m.D.G.T.R.T././././././././.",
"/./././././././././././././././././.* > 6 a M m M a /./././././.Z W T Z.G.G.G.P.R.R././././././././.",
"/././././././././././././././././.* > < 9 M m m a /./././././././.E R A.G.G.G.G.T.R././././././././.",
"/././././././././././././././././.* > 9 u M l d /./././././././.U E f z.b.G.G.G.T.R.Y./././././././.",
"/./././././././././././././././.* > > e m m g /././././ ( /././.! ^ d /.v.D.G.G.I.R.Y./././././././.",
"/./././././././././././././././.* 1 1 e x x g /./././.) ] ) /.I ~ ` f /./.v.m.G.G.U.Y./././././././.",
"/././././././././././././././.= 3 1 1 e x x g /./././.( _ ( I Y ~ ) d /././.v.G.G.U.Y./././././././.",
"/././././././././././././././.* > 1 1 w d M f /././././././.I U /./.B /././.v.b.G.U.U./././././././.",
"/./././././././././././././.= 3 > 1 1 3 9 M z N /././././.I R I /.9 B /./././.S.G.U.W.R././././././.",
"/./././././././././././././.* > < 1 1 2 9 l m m /././././.I U /./.f s /./././.D.G.K.I.E././././././.",
"/././././././././././././././.* > > > 3 3 w g m d t /./.I Y Y /.w d /././././.D.G.G.I.E././././././.",
"/././././././././././././././././.% 3 > > 3 e f M d d d f W A = = /././././././.v.G.I.E././././././.",
"/./././././././././././././././././.& * > > < e f y e C E A w = /./././././././.S.G.I.E././././././.",
"/./././././././././././././././././././.@ > < a M s w A A 9 + + /././././././././.v.I.E././././././.",
"/././././././././././././././././././././.4 p l b x C Y F = * /./././././././././.m.I.E././././././.",
"/./././././././././././././././././././.* 4 u l m p Y A D r = /./././././././././.m.I.E././././././.",
"/././././././././././././././././././.* > 3 3 i p G U G i s y p /././././././././.m.I.E././././././.",
"/./././././././././././././././././.# > 4 t y t t Y I w i z z s /././././././././.m.I.E././././././.",
"/././././././././././././././././.% 3 4 t m b n ~ |  .9 a m m s /./././././././././.I.E././././././.",
"/./././././././././././././././.* > > w M x x b x.x.x.s m x m s /./././././././././.I.E././././././.",
"/./././././././././././././././.* 3 4 r x x x x x.x.x.d x x x s /./././././././././.I.E././././././.",
"/././././././././././././././.* > 4 t m x m M W x.x.x.d x x m s /./././././././././.U.R././././././.",
"/./././././././././././././.* ; < t g x x b l E /././.d x x m s * /././././././././././././././././.",
"/././././././././././././.* ; > > t m m x m ! E /././.d b b s 9 ; /././././././././././././././././.",
"/././././././././././././.* > > > t M b m M R H /./.s f x x a > - /././././././././././././././././.",
"/./././././././././././././.= * 3 9 e y M E R /././.f i e e q > ; /././././././././././././././././.",
"/./././././././././././././././.* < < 8 y T F /././.e 9 > > > = + /././././././././././././././././.",
"/././././././././././././././././.* P *.&.Y /./././.&.*.*...= * /./././././././././././././././././.",
"/./././././././././././././././././.5.f.u.I /./././.g.g.u.t././././././././././././././././././././.",
"/././././././././././././././././././.a.u./././././.a.a.y./././././././././././././././././././././.",
"/./././././././././././././././././././././././././././././././././././././././././././././././././.",
"/./././././././././././././././././././././././././././././././././././././././././././././././././.",
"/./././././././././././././././././././././././././././././././././././././././././././././././././.",
"/./././././././././././././././././././././././././././././././././././././././././././././././././.",
"/./././././././././././././././././././././././././././././././././././././././././././././././././.",
"/./././././././././././././././././././././././././././././././././././././././././././././././././.",
"/./././././././././././././././././././././././././././././././././././././././././././././././././."
};
