/* XPM */
static char *a63f486c3504419ea2271154c2f51de0_1[] = {
/* columns rows colors chars-per-pixel */
"50 44 256 2 ",
"   c #120608",
".  c #1C0609",
"X  c #21070A",
"o  c #250A0D",
"O  c #301015",
"+  c #42151D",
"@  c #531A23",
"#  c #561C25",
"$  c #571C25",
"%  c #571B25",
"&  c #571B25",
"*  c #591A25",
"=  c #5D1824",
"-  c #601826",
";  c #5F1926",
":  c #5B1926",
">  c #5B1A27",
",  c #591B28",
"<  c #591B28",
"1  c #591C28",
"2  c #581C28",
"3  c #571C28",
"4  c #571C28",
"5  c #561B28",
"6  c #521D28",
"7  c #501E27",
"8  c #4E1E28",
"9  c #4D1F29",
"0  c #4C2029",
"q  c #4F1E29",
"w  c #521E2A",
"e  c #551D2A",
"r  c #551C2A",
"t  c #561B2A",
"y  c #571B2A",
"u  c #571B2A",
"i  c #581C2B",
"p  c #5A1D2C",
"a  c #5A222F",
"s  c #5C2934",
"d  c #5E2E38",
"f  c #60303A",
"g  c #63323B",
"h  c #67313A",
"j  c #6A3039",
"k  c #6F2C36",
"l  c #732A33",
"z  c #752832",
"x  c #772731",
"c  c #792630",
"v  c #7C232F",
"b  c #7D222F",
"n  c #7E212F",
"m  c #7E202E",
"M  c #80222F",
"N  c #82222F",
"B  c #83212E",
"V  c #861F2C",
"C  c #851E2B",
"Z  c #841E2B",
"A  c #831E29",
"S  c #841F27",
"D  c #851E28",
"F  c #861E29",
"G  c #871E29",
"H  c #871E29",
"J  c #881F2A",
"K  c #881E2A",
"L  c #881E29",
"P  c #881D2B",
"I  c #891C2B",
"U  c #8A1B2A",
"Y  c #8A1A2A",
"T  c #8C1C2B",
"R  c #901E2D",
"E  c #942030",
"W  c #A42B39",
"Q  c #B23441",
"!  c #BF3C48",
"~  c #CA434F",
"^  c #D74B56",
"/  c #DE505A",
"(  c #E3535D",
")  c #E5545E",
"_  c #E75660",
"`  c #E55760",
"'  c #E35760",
"]  c #DF5760",
"[  c #DB5860",
"{  c #D65961",
"}  c #CF5A61",
"|  c #C65B62",
" . c #BC5D63",
".. c #AF6064",
"X. c #A96265",
"o. c #A26467",
"O. c #9B6664",
"+. c #94686A",
"@. c #8C6B6D",
"#. c #846E6F",
"$. c #7C7171",
"%. c #747474",
"&. c gray46",
"*. c #767676",
"=. c gray47",
"-. c gray48",
";. c #7C7C7C",
":. c gray49",
">. c #7E7E7E",
",. c #7E7F80",
"<. c #808080",
"1. c #818181",
"2. c #898082",
"3. c #838383",
"4. c #868485",
"5. c #888587",
"6. c #8A8689",
"7. c #8B878A",
"8. c #8C878B",
"9. c #8E878C",
"0. c #8F888D",
"q. c #90888E",
"w. c #90888F",
"e. c #91898F",
"r. c #928990",
"t. c #938A91",
"y. c #958F94",
"u. c #969095",
"i. c #979296",
"p. c #989497",
"a. c #999699",
"s. c #9B989A",
"d. c #9C9B9C",
"f. c #A0A0A0",
"g. c gray64",
"h. c #A5A5A5",
"j. c #A7A7A7",
"k. c #A9A9A8",
"l. c #AFACAC",
"z. c #B3B0B0",
"x. c #B4AFAE",
"c. c #B6AFAE",
"v. c #B9AEAD",
"b. c #BDACAB",
"n. c #C0ABAA",
"m. c #C4AAA9",
"M. c #C8AAA8",
"N. c #CDA9A6",
"B. c #D4A8A4",
"V. c #D6AAA5",
"C. c #D9ABA5",
"Z. c #DFB0A4",
"A. c #E7B9A3",
"S. c #EABBA3",
"D. c #ECBEA2",
"F. c #EEC2A2",
"G. c #F0C4A1",
"H. c #F1C6A1",
"J. c #F2C7A1",
"K. c #F2C9A4",
"L. c #F2CAA6",
"P. c #EECAAA",
"I. c #DECBBC",
"U. c #D8CCC2",
"Y. c #D1CDCB",
"T. c #CCCDD3",
"R. c #CBCDD4",
"E. c #CACED6",
"W. c #C9CED7",
"Q. c #C9CED7",
"!. c #C9CED8",
"~. c #C8CED8",
"^. c #C7CED8",
"/. c #C7CED9",
"(. c #C7CDD9",
"). c #C5CDD9",
"_. c #C5CDD7",
"`. c #C5CED9",
"'. c #C5CFD9",
"]. c #C6CFD9",
"[. c #C6CFD9",
"{. c #C6CFDA",
"}. c #C6CFDB",
"|. c #C6CFDC",
" X c #C6CFDC",
".X c #C6CEDC",
"XX c #C7CEDD",
"oX c #C7CFDD",
"OX c #C8CFDD",
"+X c #C9D0DE",
"@X c #CBD2DF",
"#X c #CDD3E0",
"$X c #D0D5E2",
"%X c #D4D8E3",
"&X c #D9DCE6",
"*X c #E0E2EA",
"=X c #E9E8EE",
"-X c #F4F1F3",
";X c #F7F3F5",
":X c #F8F4F6",
">X c #F9F6F7",
",X c #F9F7F8",
"<X c #F9F7F9",
"1X c #F9F8F9",
"2X c #F8F8FA",
"3X c #F8F8FA",
"4X c #F9F8FA",
"5X c #FBF8FA",
"6X c #FDF8FA",
"7X c #FEF9FA",
"8X c #FEFAFB",
"9X c #FEFBFB",
"0X c #FEFCFC",
"qX c #FCFDFD",
"wX c #FEFCFD",
"eX c None",
"rX c black",
"tX c black",
"yX c black",
"uX c black",
"iX c black",
"pX c black",
"aX c black",
"sX c black",
"dX c black",
"fX c black",
"gX c black",
"hX c black",
"jX c black",
"kX c black",
"lX c black",
"zX c black",
"xX c black",
"cX c black",
"vX c black",
"bX c black",
"nX c black",
"mX c black",
"MX c black",
"NX c black",
"BX c black",
"VX c black",
"CX c black",
"ZX c black",
"AX c black",
"SX c black",
"DX c black",
"FX c black",
"GX c black",
"HX c black",
"JX c black",
"KX c black",
"LX c black",
"PX c black",
"IX c black",
"UX c black",
/* pixels */
"eXeXeXeXeXeXeXeXeXeXeXeXeXeXeXeXY.eXeXeXeXeXeXeXeXeXeXeXeXeXeXeXeXeXeXeXeXeXeXeXeXeXeXeXeXeXeXeXeXeX",
"eXeXeXeXeXeXeXeXeXeXeXeXeXeXeXY.;X<X<X4X,XeXeXeXeXeXeXeXeXeXeXeXeXeXeXeXeXeXeXeXeXeXeXeXeXeXeXeXeXeX",
"eXeXeXeXeXeXeXeXeXeXeXeXeXeXeXJ s.|.}.%X0X9X0X0XeXeXeXeXeXeXeXeXeXeXeXeXeXeXeXeXeXeXeXeXeXeXeXeXeXeX",
"eXeXeXeXeXeXeXeXeXeXeXeXeXeXeXv s.~.|.oXOXOX+X2X5X5X5X;XeXeXeXeXeXeXeXeXeXeXeXeXeXeXeXeXeXeXeXeXeXeX",
"eXeXeXeXeXeXeXeXeXeXeXeXeXeXeXeXx s.|.}.|..X|.+X+X+X-X1XwX-XeXeXeXeXeXeXeXeXeXeXeXeXeXeXeXeXeXeXeXeX",
"eXeXeXeXeXeXeXeXeXeXeXeXeXeXeXeXc i.}.|.|.|.|.|.|.|.$X-XwX;X=XV Z eXeXeXeXeXeXeXeXeXeXeXeXeXeXeXeXeX",
"eXeXeXeXeXeXeXeXeXeXeXeXeXeXeXeXz E p.|.|.|.|.|.|.|.|.$X%X=X-X=XG B eXeXeXeXeXeXeXeXeXeXeXeXeXeXeXeX",
"eXeXeXeXeXeXeXeXeXeXeXeXeXeXeXeXeXc N 2.<.2.~.oX|.}.|.|.|.#X%X%XY.F eXeXeXeXeXeXeXeXeXeXeXeXeXeXeXeX",
"eXeXeXeXeXeXeXeXeXeXeXeXeXeXeXeXeXv T l > x u.u.u.z._.|.|.oXXX#X&XY.M eXeXeXeXeXeXeXeXeXeXeXeXeXeXeX",
"eXeXeXeXeXeXeXeXeXeXeXeXeXeXeXeXeXj z M > G G G M eX_.}.}._.|.|.#X&XU.eXeXeXeXeXeXeXeXeXeXeXeXeXeXeX",
"eXeXeXeXeXeXeXeXeXeXeXeXeXeXeXeXeX6 k N j G G M eXeXeXeXeX_.!.W._.+X=X-XeXeXeXeXeXeXeXeXeXeXeXeXeXeX",
"eXeXeXeXeXeXeXeXeXeXeXeXeXeXeXeX8 2 - N I K C eXeXeXeXeX^ eXeXeX} N.z.=X%XeXeXeXeXeXeXeXeXeXeXeXeXeX",
"eXeXeXeXeXeXeXeXeXeXeXeXeXeXeXeX7 2 2 ; R G Z eXeXeXeX^ _ ) eXeX_ ( V T.;X-XeXeXeXeXeXeXeXeXeXeXeXeX",
"eXeXeXeXeXeXeXeXeXeXeXeXeXeXeXe 2 2 2 ; I T C eXeXeXeX^ / ^ eXeX/ ^ N eXeX-XeXeXeXeXeXeXeXeXeXeXeXeX",
"eXeXeXeXeXeXeXeXeXeXeXeXeXeXeX6 3 2 2 - N E Z eXeXeXeXeXeXeXeXeXeXeXM eXeXeXeXeXeXeXeXeXeXeXeXeXeXeX",
"eXeXeXeXeXeXeXeXeXeXeXeXeXeX@ 2 3 2 2 3 > R G Z eXeXeXeXeXeXeXeXeXeXM eXeXeXeXeXeXeXeXeXeXeXeXeXeXeX",
"eXeXeXeXeXeXeXeXeXeXeXeXeXeX6 3 3 2 2 3 > I R U eXeXeXeXeXeXeXeXeXZ M eXeXeXeXeXeXeXeXeXeXeXeXeXeXeX",
"eXeXeXeXeXeXeXeXeXeXeXeXeXeXeXr 3 2 2 2 2 = I U N eXeXeXeXeXeXeX- A eXeXeXeXeXeXeXeXeXeXeXeXeXeXeXeX",
"eXeXeXeXeXeXeXeXeXeXeXeXeXeXeXeXeX8 2 2 3 > E I G M M m M M l e 2 eXeXeXeXeXeXeXeXeXeXeXeXeXeXeXeXeX",
"eXeXeXeXeXeXeXeXeXeXeXeXeXeXeXeXeXeX6 7 3 2 B E I k - - - - - 5 eXeXeXeXeXeXeXeXeXeXeXeXeXeXeXeXeXeX",
"eXeXeXeXeXeXeXeXeXeXeXeXeXeXeXeXeXeXeXeXq 2 k J U m - 3 2 6 9 eXeXeXeXeXeXeXeXeXeXeXeXeXeXeXeXeXeXeX",
"eXeXeXeXeXeXeXeXeXeXeXeXeXeXeXeXeXeXeXeXeX, z R E U - k - 6 w eXeXeXeXeXeXeXeXeXeXeXeXeXeXeXeXeXeXeX",
"eXeXeXeXeXeXeXeXeXeXeXeXeXeXeXeXeXeXeXeX6 2 l R E z ; - l - 6 eXeXeXeXeXeXeXeXeXeXeXeXeXeXeXeXeXeXeX",
"eXeXeXeXeXeXeXeXeXeXeXeXeXeXeXeXeXeXeX6 3 2 2 z B l 6 6 z v k eXeXeXeXeXeXeXeXeXeXeXeXeXeXeXeXeXeXeX",
"eXeXeXeXeXeXeXeXeXeXeXeXeXeXeXeXeXeX8 3 , k k k V X...j z K K V eXeXeXeXeXeXeXeXeXeXeXeXeXeXeXeXeXeX",
"eXeXeXeXeXeXeXeXeXeXeXeXeXeXeXeXeX7 2 > - V K K G Z.J.X.c K K C eXeXeXeXeXeXeXeXeXeXeXeXeXeXeXeXeXeX",
"eXeXeXeXeXeXeXeXeXeXeXeXeXeXeXeX8 2 2 - G K K K m Z.J...G P J Z eXeXeXeXeXeXeXeXeXeXeXeXeXeXeXeXeXeX",
"eXeXeXeXeXeXeXeXeXeXeXeXeXeXeXeX7 2 , - K K K K eXF.D...K K K Z eXeXeXeXeXeXeXeXeXeXeXeXeXeXeXeXeXeX",
"eXeXeXeXeXeXeXeXeXeXeXeXeXeXeXr 3 2 - K K K K C eXeXN R G P P v eXeXeXeXeXeXeXeXeXeXeXeXeXeXeXeXeXeX",
"eXeXeXeXeXeXeXeXeXeXeXeXeXeX6 5 , k V K K P C eXeXeXc E R K K b e eXeXeXeXeXeXeXeXeXeXeXeXeXeXeXeXeX",
"eXeXeXeXeXeXeXeXeXeXeXeXeXe 5 3 3 k G K K G A eXeXeXeXN R G c = 5 eXeXeXeXeXeXeXeXeXeXeXeXeXeXeXeXeX",
"eXeXeXeXeXeXeXeXeXeXeXeXeXe 3 2 3 k K K G N - eXeXeXv I E T c 2 3 eXeXeXeXeXeXeXeXeXeXeXeXeXeXeXeXeX",
"eXeXeXeXeXeXeXeXeXeXeXeXeXeXw r 2 = - k A k O O O eXb x b v - 2 5 eXeXeXeXeXeXeXeXeXeXeXeXeXeXeXeXeX",
"eXeXeXeXeXeXeXeXeXeXeXeXeXeXeXeX8 2 2 > h -.O O O O - = k l 3 @ 0 eXeXeXeXeXeXeXeXeXeXeXeXeXeXeXeXeX",
"eXeXeXeXeXeXeXeXeXeXeXeXeXeXeXeXeX6 $.q.r.d.eXO O eXq.e.r.#.6 7 eXeXeXeXeXeXeXeXeXeXeXeXeXeXeXeXeXeX",
"eXeXeXeXeXeXeXeXeXeXeXeXeXeXeXeXeXeXeXz.l.h.eXeXeXeXz.z.j.g.eXeXeXeXeXeXeXeXeXeXeXeXeXeXeXeXeXeXeXeX",
"eXeXeXeXeXeXeXeXeXeXeXeXeXeXeXeXeXeXeXl.l.eXeXeXeXeXl.l.k.eXeXeXeXeXeXeXeXeXeXeXeXeXeXeXeXeXeXeXeXeX",
"eXeXeXeXeXeXeXeXeXeXeXeXeXeXeXeXeXeXeXeXeXeXeXeXeXeXeXeXeXeXeXeXeXeXeXeXeXeXeXeXeXeXeXeXeXeXeXeXeXeX",
"eXeXeXeXeXeXeXeXeXeXeXeXeXeXeXeXeXeXeXeXeXeXeXeXeXeXeXeXeXeXeXeXeXeXeXeXeXeXeXeXeXeXeXeXeXeXeXeXeXeX",
"eXeXeXeXeXeXeXeXeXeXeXeXeXeXeXeXeXeXeXeXeXeXeXeXeXeXeXeXeXeXeXeXeXeXeXeXeXeXeXeXeXeXeXeXeXeXeXeXeXeX",
"eXeXeXeXeXeXeXeXeXeXeXeXeXeXeXeXeXeXeXeXeXeXeXeXeXeXeXeXeXeXeXeXeXeXeXeXeXeXeXeXeXeXeXeXeXeXeXeXeXeX",
"eXeXeXeXeXeXeXeXeXeXeXeXeXeXeXeXeXeXeXeXeXeXeXeXeXeXeXeXeXeXeXeXeXeXeXeXeXeXeXeXeXeXeXeXeXeXeXeXeXeX",
"eXeXeXeXeXeXeXeXeXeXeXeXeXeXeXeXeXeXeXeXeXeXeXeXeXeXeXeXeXeXeXeXeXeXeXeXeXeXeXeXeXeXeXeXeXeXeXeXeXeX",
"eXeXeXeXeXeXeXeXeXeXeXeXeXeXeXeXeXeXeXeXeXeXeXeXeXeXeXeXeXeXeXeXeXeXeXeXeXeXeXeXeXeXeXeXeXeXeXeXeXeX"
};
