/* XPM */
static char *a63f486c3504419ea2271154c2f51de0_2[] = {
/* columns rows colors chars-per-pixel */
"50 44 256 2 ",
"   c #0C0303",
".  c #120606",
"X  c #120B0A",
"o  c #0F1210",
"O  c #111211",
"+  c gray7",
"@  c #121312",
"#  c #131212",
"$  c gray8",
"%  c #161716",
"&  c #181817",
"*  c #1A1818",
"=  c #1C1919",
"-  c #1D1818",
";  c #211719",
":  c #2A171A",
">  c #30171B",
",  c #37171C",
"<  c #3E171C",
"1  c #45181F",
"2  c #461820",
"3  c #461921",
"4  c #471B23",
"5  c #471C24",
"6  c #471D25",
"7  c #481D25",
"8  c #491E26",
"9  c #4C1E26",
"0  c #501E28",
"q  c #521D28",
"w  c #531D29",
"e  c #551C26",
"r  c #541D29",
"t  c #541D29",
"y  c #551D28",
"u  c #571E2A",
"i  c #571E2B",
"p  c #571F2B",
"a  c #55202C",
"s  c #591B29",
"d  c #581B28",
"f  c #581A27",
"g  c #591925",
"h  c #5B1B24",
"j  c #5E1C25",
"k  c #661C25",
"l  c #791B26",
"z  c #7F1B25",
"x  c #801A25",
"c  c #811A25",
"v  c #831B26",
"b  c #861C27",
"n  c #871D27",
"m  c #881D2A",
"M  c #881D2A",
"N  c #891C29",
"B  c #8C1C28",
"V  c #8B1C28",
"C  c #891D2A",
"Z  c #881D29",
"A  c #881E28",
"S  c #871E29",
"D  c #871F29",
"F  c #861F28",
"G  c #851F27",
"H  c #851F28",
"J  c #841F29",
"K  c #82212A",
"L  c #7E222B",
"P  c #78242D",
"I  c #74252E",
"U  c #73262E",
"Y  c #72282F",
"T  c #712B31",
"R  c #6E3137",
"E  c #6B393E",
"W  c #65474B",
"Q  c #605456",
"!  c #5F5758",
"~  c #605958",
"^  c #635855",
"/  c #685651",
"(  c #6E524C",
")  c #725149",
"_  c #774F45",
"`  c #7C4C41",
"'  c #814B3D",
"]  c #814A3D",
"[  c #824A3D",
"{  c #824A3C",
"}  c #844A3A",
"|  c #854A39",
" . c #874A38",
".. c #894837",
"X. c #8B4837",
"o. c #8D4637",
"O. c #914538",
"+. c #A14740",
"@. c #B64C4A",
"#. c #CB4E53",
"$. c #D55056",
"%. c #D95159",
"&. c #DE535C",
"*. c #DE545E",
"=. c #DC5760",
"-. c #D85B63",
";. c #D15D65",
":. c #C76066",
">. c #BB6369",
",. c #AB686C",
"<. c #986F71",
"1. c #7F7777",
"2. c gray48",
"3. c #7B7B7B",
"4. c #7C7C7C",
"5. c gray50",
"6. c #808080",
"7. c gray51",
"8. c gray51",
"9. c #838383",
"0. c #838383",
"q. c #858485",
"w. c #868586",
"e. c #878687",
"r. c #888688",
"t. c #898789",
"y. c #8A878A",
"u. c #8B888B",
"i. c #8E898E",
"p. c #8E8A8E",
"a. c #908C90",
"s. c #988F92",
"d. c #9D9092",
"f. c #A19293",
"g. c #A59494",
"h. c #A59595",
"j. c #A49697",
"k. c #A39999",
"l. c #A19C9B",
"z. c gray62",
"x. c gray62",
"c. c #9F9F9F",
"v. c #A0A0A0",
"b. c #A2A2A2",
"n. c gray64",
"m. c #A4A4A4",
"M. c #A5A5A5",
"N. c gray65",
"B. c gray66",
"V. c #AEAEAE",
"C. c gray69",
"Z. c #B1B1B1",
"A. c #B2B2B2",
"S. c gray70",
"D. c #B4B4B4",
"F. c #B4B5B5",
"G. c #B6B6B7",
"H. c #B7B9BB",
"J. c #BABDC1",
"K. c #BCC0C6",
"L. c #CBC3C3",
"P. c #C4C8D0",
"I. c #C7CAD4",
"U. c #C6CBD5",
"Y. c #C4CCD8",
"T. c #C4CCD9",
"R. c #C4CCD9",
"E. c #C5CCD9",
"W. c #C5CCDA",
"Q. c #C5CDDA",
"!. c #C5CDDB",
"~. c #C6CDDB",
"^. c #C6CDDC",
"/. c #C6CEDD",
"(. c #C6CEDD",
"). c #C6CEDC",
"_. c #C6CFDA",
"`. c #C6CFD9",
"'. c #C7CFD9",
"]. c #C7CFDA",
"[. c #C6CFDB",
"{. c #C7CFDB",
"}. c #C7CFDB",
"|. c #C7CFDC",
" X c #C7CFDC",
".X c #C8D0DD",
"XX c #D7DBE5",
"oX c #E4E5ED",
"OX c #EFEEF3",
"+X c #F5F2F6",
"@X c #F8F5F8",
"#X c #FBF7F9",
"$X c #FCF8FA",
"%X c #FDF9FB",
"&X c #FDF9FC",
"*X c #FDFBFC",
"=X c #FEFCFD",
"-X c #FEFDFE",
";X c #FDFEFD",
":X c #FCFEFC",
">X c #FEFEFE",
",X c #FEFEFE",
"<X c None",
"1X c black",
"2X c black",
"3X c black",
"4X c black",
"5X c black",
"6X c black",
"7X c black",
"8X c black",
"9X c black",
"0X c black",
"qX c black",
"wX c black",
"eX c black",
"rX c black",
"tX c black",
"yX c black",
"uX c black",
"iX c black",
"pX c black",
"aX c black",
"sX c black",
"dX c black",
"fX c black",
"gX c black",
"hX c black",
"jX c black",
"kX c black",
"lX c black",
"zX c black",
"xX c black",
"cX c black",
"vX c black",
"bX c black",
"nX c black",
"mX c black",
"MX c black",
"NX c black",
"BX c black",
"VX c black",
"CX c black",
"ZX c black",
"AX c black",
"SX c black",
"DX c black",
"FX c black",
"GX c black",
"HX c black",
"JX c black",
"KX c black",
"LX c black",
"PX c black",
"IX c black",
"UX c black",
/* pixels */
"<X<X<X<X<X<X<X<X<X<X<X<X<X<X<X<X<X<X<X<X<X<X<X<X<X<X<X<X<X<X<X<X<X<X<X<X<X<X<X<X<X<X<X<X<X<X<X<X<X<X",
"<X<X<X<X<X<X<X<X<X<X<X<X<X<X<X<X<X<X<X<X<X<X<X<X<X<X<X<X<X<X<X<X<X<X<X<X<X<X<X<X<X<X<X<X<X<X<X<X<X<X",
"<X<X<X<X<X<X<X<X<X<X<X<X<X<X<X<X<X<X<X<X<X<X<X<X<X<X<X<X<X<X<X<X<X<X<X<X<X<X<X<X<X<X<X<X<X<X<X<X<X<X",
"<X<X<X<X<X<X<X<X<X<X<X<X<X<X<X<X<X<X<X<X<X<X<Xq y e f P J H H l <X<X<X<X<X<X<X<X<X<X<X<X<X<X<X<X<X<X",
"<X<X<X<X<X<X<X<X<X<X<X<X<X<X<X<X<X<X<X<X<X<X<Xe d L K S Z Z m H L <X<X<X<X<X<X<X<X<X<X<X<X<X<X<X<X<X",
"<X<X<X<X<X<X<X<X<X<X<X<X<X+X+X+X+X+X+X+X+X+XOXOX<.F S S Z Z Z Z H l <X<X<X<X<X<X<X<X<X<X<X<X<X<X<X<X",
"<X<X<X<X<X<X<X<X<X-X>X>X>X*XoXXXXXXXXXXX'.y.f.f.o.Z P <X<X<X<XI S c <X<X<X<X<X<X<X<X<X<X<X<X<X<X<X<X",
"<X<X<X<X<XXX+X+XOX-XXXXXXXXX.X|.|.H.5.5.1.L S S S I <X<X<X<X<X<Xl J P <X<X<X<X<X<X<X<X<X<X<X<X<X<X<X",
"<X<X$X*X@X+X@XoXoXoX.X|.|.|.|.|.Y.y.u f j S Z F P <X<X<X<X<X<X<X<XP K <X<X<X<X<X<X<X<X<X<X<X<X<X<X<X",
"<XXX+X+XoXoXXX|.|.|.|.|.|.K.K.K.y.0 d j P m F P <X<X<X<X<X<X<X<X<X<XL <X<X<X<X<X<X<X<X<X<X<X<X<X<X<X",
"OX+X+XXX|.|.|.|.|.|.|.U.J.<X<X<X9 d d k m m H <X<X<X<X@.#.@.<X<X$.@.K <X<X<X<X<X<X<X<X<X<X<X<X<X<X<X",
"L.I.J.K.{.|.|.|.{.[.U.<X<X<X<X<X9 d d k m C J <X<X<X<X#.*.#.<X#.*.%.K <X<X<X<X<X<X<X<X<X<X<X<X<X<X<X",
"] } } d.J.K.[.|.Q.P.<X<X<X<X<X0 d d d k m Z J <X<X<X<X#.%.@.<X<X%.#.K <X<X<X<X<X<X<X<X<X<X<X<X<X<X<X",
"<X<X{ .. .<.K.K.P.<X<X<X<X<X<X0 d d d j c S H g <X@ @ @ @ @ <X<X<X<XK <X<X<X<X<X<X<X<X<X<X<X<X<X<X<X",
"<X<X<X<X` .. .| <X<X<X<X<X<Xq y d d d d j D Z F <X@ @ @ @ @ + @ <Xj K <X<X<X<X<X<X<X<X<X<X<X<X<X<X<X",
"<X<X<X<X<X<X<X .| | <X<X<X<X0 y d d d d h H m Z k $ @ @ @ @ @ @ <XJ L <X<X<X<X<X<X<X<X<X<X<X<X<X<X<X",
"<X<X<X<X<X<X<X<X<X} } | <X<X<X9 y u d d d j J Z J k # O O O # 3 j L <X<X<X<X<X<X<X<X<X<X<X<X<X<X<X<X",
"<X<X<X<X<X<X<X<X<X<X<X| | | ` <X<X8 u d d u j K S x L L L L Y r r <X<X<X<X<X<X<X<X<X<X<X<X<X<X<X<X<X",
"<X<X<X<X<X<X<X<X<X<X<X<X<X] } { ` <X<X4 d f d j K k k k k k j 0 <X<X<X<X<X<X<X<X<X<X<X<X<X<X<X<X<X<X",
"<X<X<X<X<X<X<X<X<X<X<X<X<X<X[  .|  .] <Xq y d l J L k d d 0 q <X<X<X<X<X<X<X<X<X<X<X<X<X<X<X<X<X<X<X",
"<X<X<X<X<X<X<X<X<X<X<X<X<X<X<X<XP ] | ..] s l H A Z k Y k r 0 <X<X<X<X<X<X<X<X<X<X<X<X<X<X<X<X<X<X<X",
"<X<X<X<X<X<X<X<X<X<X<X<X<X<X<X<X<X<X' `  .` h.h.h.` j k U k q <X<X<X<X<X<X<X<X<X<X<X<X<X<X<X<X<X<X<X",
"<X<X<X<X<X<X<X<X<X<X<X<X<X<X<X<X<X<X<Xp T ` L.L.L.) 9 0 I z I U <X<X<X<X<X<X<X<X<X<X<X<X<X<X<X<X<X<X",
"<X<X<X<X<X<X<X<X<X<X<X<X<X<X<X<X<Xq 0 d s T k.k.N.` R j I S S L <X<X<X<X<X<X<X<X<X<X<X<X<X<X<X<X<X<X",
"<X<X<X<X<X<X<X<X<X<X<X<X<X5 5 7 9 d u h k S Z Z ] ] { P P C Z l <X<X<X<X<X<X<X<X<X<X<X<X<X<X<X<X<X<X",
"<X<X<X<X<X<X<X<X<X<X<X<X<X0 d d d u u k Z Z A L <X<X] } X...C L 0 <X<X<X<X<X<X<X<X<X<X<X<X<X<X<X<X<X",
"<X<X<X<X<X<X<X<X<X<X0 y u d d d d d h k Z N J <X<X<X<Xz D X...] 0 <X<X<X<X<X<X<X<X<X<X<X<X<X<X<X<X<X",
"<X<X<X<X<X<X<X<X<X<X<Xy d d d d d d k S C S L <X<X<X<Xx Z S S l y <X<X<X<X<X<X<X<X<X<X<X<X<X<X<X<X<X",
"<X<X<X<X<X<X<X<X<X<X<Xy d y u d d k Z S S K <X<X<X<X<Xx m m S l e <X<X<X<X<X<X<X<X<X<X<X<X<X<X<X<X<X",
"<X<X<X<X<X<X<X<X<X<X<X<X0 u u d Y H S F L <X= = <X<X<XL m m l h y <X<X<X<X<X<X<X<X<X<X<X<X<X<X<X<X<X",
"<X<X<X<X<X<X<X<X<X<X<X<X<X9 d d Y S L y <X<X= = = <XI H S Z l d e <X<X<X<X<X<X<X<X<X<X<X<X<X<X<X<X<X",
"<X<X<X<X<X<X<X<X<X<X<X<X<X<X5 9 y j <X<X<X<X= = = = U U k k j q <X<X<X<X<X<X<X<X<X<X<X<X<X<X<X<X<X<X",
"<X<X<X<X<X<X<X<X<X<X<X<X<X<X<X<X<X<X<X~ ~ ! = = = = W W Q W w <X<X<X<X<X<X<X<X<X<X<X<X<X<X<X<X<X<X<X",
"<X<X<X<X<X<X<X<X<X<X<X<X<X<X<X<X<X<X1.2.2.2.<X= = <X2.2.2.2.<X<X<X<X<X<X<X<X<X<X<X<X<X<X<X<X<X<X<X<X",
"<X<X<X<X<X<X<X<X<X<X<X<X<X<X<X<X<X<Xs.b.b.c.<X<X<X<Xz.b.b.b.<X<X<X<X<X<X<X<X<X<X<X<X<X<X<X<X<X<X<X<X",
"<X<X<X<X<X<X<X<X<X<X<X<X<X<X<X<X<X<XB.D.V.B.<X<X<X<XA.D.V.B.<X<X<X<X<X<X<X<X<X<X<X<X<X<X<X<X<X<X<X<X",
"<X<X<X<X<X<X<X<X<X<X<X<X<X<X<X<X<X<X<XC.V.<X<X<X<X<XC.C.V.<X<X<X<X<X<X<X<X<X<X<X<X<X<X<X<X<X<X<X<X<X",
"<X<X<X<X<X<X<X<X<X<X<X<X<X<X<X<X<X<X<X<X<X<X<X<X<X<X<X<X<X<X<X<X<X<X<X<X<X<X<X<X<X<X<X<X<X<X<X<X<X<X",
"<X<X<X<X<X<X<X<X<X<X<X<X<X<X<X<X<X<X<X<X<X<X<X<X<X<X<X<X<X<X<X<X<X<X<X<X<X<X<X<X<X<X<X<X<X<X<X<X<X<X",
"<X<X<X<X<X<X<X<X<X<X<X<X<X<X<X<X<X<X<X<X<X<X<X<X<X<X<X<X<X<X<X<X<X<X<X<X<X<X<X<X<X<X<X<X<X<X<X<X<X<X",
"<X<X<X<X<X<X<X<X<X<X<X<X<X<X<X<X<X<X<X<X<X<X<X<X<X<X<X<X<X<X<X<X<X<X<X<X<X<X<X<X<X<X<X<X<X<X<X<X<X<X",
"<X<X<X<X<X<X<X<X<X<X<X<X<X<X<X<X<X<X<X<X<X<X<X<X<X<X<X<X<X<X<X<X<X<X<X<X<X<X<X<X<X<X<X<X<X<X<X<X<X<X",
"<X<X<X<X<X<X<X<X<X<X<X<X<X<X<X<X<X<X<X<X<X<X<X<X<X<X<X<X<X<X<X<X<X<X<X<X<X<X<X<X<X<X<X<X<X<X<X<X<X<X",
"<X<X<X<X<X<X<X<X<X<X<X<X<X<X<X<X<X<X<X<X<X<X<X<X<X<X<X<X<X<X<X<X<X<X<X<X<X<X<X<X<X<X<X<X<X<X<X<X<X<X"
};
