/* XPM */
static char *a63f486c3504419ea2271154c2f51de0_3[] = {
/* columns rows colors chars-per-pixel */
"50 44 256 2 ",
"   c black",
".  c gray2",
"X  c #080909",
"o  c #0E110F",
"O  c #0F1210",
"+  c #111211",
"@  c #131212",
"#  c #161414",
"$  c #1D0F0F",
"%  c #270E11",
"&  c #331116",
"*  c #3D171E",
"=  c #411820",
"-  c #431A21",
";  c #451B23",
":  c #461C23",
">  c #471E23",
",  c #491F23",
"<  c #4B2123",
"1  c #4C2223",
"2  c #521F26",
"3  c #541D27",
"4  c #531E29",
"5  c #531F2A",
"6  c #55202B",
"7  c #571F2C",
"8  c #571F2B",
"9  c #581D2A",
"0  c #571C29",
"q  c #581B28",
"w  c #581A28",
"e  c #581A27",
"r  c #5A1A27",
"t  c #5A1A24",
"y  c #5A1B22",
"u  c #591C22",
"i  c #591D21",
"p  c #5C1E22",
"a  c #621E24",
"s  c #662026",
"d  c #6A2128",
"f  c #6F232B",
"g  c #71242C",
"h  c #72242D",
"j  c #73242D",
"k  c #75242E",
"l  c #78222D",
"z  c #7B212D",
"x  c #7D212C",
"c  c #80212A",
"v  c #81202A",
"b  c #842028",
"n  c #841F28",
"m  c #841F28",
"M  c #841F26",
"N  c #842027",
"B  c #861F28",
"V  c #871E27",
"C  c #871E27",
"Z  c #881E27",
"A  c #891D27",
"S  c #8B1C27",
"D  c #891C27",
"F  c #881D2A",
"G  c #881E2A",
"H  c #891D2A",
"J  c #891E2B",
"K  c #881E2B",
"L  c #87202D",
"P  c #86212D",
"I  c #85232E",
"U  c #852730",
"Y  c #852D32",
"T  c #853734",
"R  c #853E36",
"E  c #884537",
"W  c #864838",
"Q  c #854836",
"!  c #874937",
"~  c #894838",
"^  c #8A483B",
"/  c #8A483D",
"(  c #8A483E",
")  c #8B4840",
"_  c #8D4942",
"`  c #914A45",
"'  c #9F4A48",
"]  c #AC4B4B",
"[  c #C24C51",
"{  c #CF4E54",
"}  c #DA4F58",
"|  c #E0515B",
" . c #E0535C",
".. c #DD555E",
"X. c #D85860",
"o. c #D05860",
"O. c #C75960",
"+. c #BC5A60",
"@. c #B05B61",
"#. c #A15C61",
"$. c #8A5D60",
"%. c #765E60",
"&. c #6F5E5F",
"*. c #6A5E5F",
"=. c #655E5F",
"-. c #625E5E",
";. c #5F5E5E",
":. c #5E5E5F",
">. c #5F5F5F",
",. c #5F5F60",
"<. c #616262",
"1. c #656566",
"2. c #68696A",
"3. c #6C6D6F",
"4. c #717274",
"5. c #767678",
"6. c #7B7B7C",
"7. c #7E7F7F",
"8. c #808181",
"9. c #828283",
"0. c #838484",
"q. c #858586",
"w. c gray53",
"e. c #89898A",
"r. c #8B8B8C",
"t. c #8D8E8E",
"y. c #909090",
"u. c #939393",
"i. c #979797",
"p. c #9A9A9A",
"a. c #9B9B9B",
"s. c gray61",
"d. c gray61",
"f. c #9D9D9D",
"g. c #A0A0A0",
"h. c gray64",
"j. c #A6A5A5",
"k. c #A9A8A7",
"l. c #ABA9A8",
"z. c #AEADAC",
"x. c #B3B0B0",
"c. c #BDAAA6",
"v. c #C1A9A5",
"b. c #C5A8A3",
"n. c #CAA7A1",
"m. c #D0A69F",
"M. c #D7A69C",
"N. c #DAA79D",
"B. c #E4AFA0",
"V. c #EAB8A6",
"C. c #E8BCAB",
"Z. c #E6C1B0",
"A. c #E3C6B6",
"S. c #DEC5B8",
"D. c #DAC5BA",
"F. c #D7C5BC",
"G. c #D3C5C0",
"H. c #D1C6C4",
"J. c #CFC7C7",
"K. c #CDC7CA",
"L. c #CBC8CC",
"P. c #CBC8CE",
"I. c #CAC9D0",
"U. c #CACAD3",
"Y. c #CACCD5",
"T. c #CACCD6",
"R. c #CACDD7",
"E. c #C9CDD8",
"W. c #C9CED8",
"Q. c #C8CED8",
"!. c #C7CED8",
"~. c #C7CDD8",
"^. c #C7CDD9",
"/. c #C7CDDA",
"(. c #C7CEDB",
"). c #C8CEDB",
"_. c #C8CEDB",
"`. c #C9CEDA",
"'. c #C9CEDA",
"]. c #CACEDA",
"[. c #CBCEDA",
"{. c #CCCFDA",
"}. c #CCD0DA",
"|. c #CDCFDA",
" X c #CDD0DB",
".X c #CFD1DB",
"XX c #D0D2DC",
"oX c #D1D3DC",
"OX c #D4D4DC",
"+X c #D4D5DC",
"@X c #D5D6DD",
"#X c #D7D7DE",
"$X c #D8D8DF",
"%X c #D9D9DF",
"&X c #DADAE0",
"*X c #DCDCE2",
"=X c #E1E1E6",
"-X c #E3E2E7",
";X c #E7E7EB",
":X c #EBEBEE",
">X c #EFEFF1",
",X c #F2F2F4",
"<X c #F4F5F6",
"1X c #F7F7F8",
"2X c #F9FAFB",
"3X c #FBFBFC",
"4X c #FDFDFD",
"5X c #FDFEFE",
"6X c #FEFEFE",
"7X c #FEFEFE",
"8X c None",
"9X c black",
"0X c black",
"qX c black",
"wX c black",
"eX c black",
"rX c black",
"tX c black",
"yX c black",
"uX c black",
"iX c black",
"pX c black",
"aX c black",
"sX c black",
"dX c black",
"fX c black",
"gX c black",
"hX c black",
"jX c black",
"kX c black",
"lX c black",
"zX c black",
"xX c black",
"cX c black",
"vX c black",
"bX c black",
"nX c black",
"mX c black",
"MX c black",
"NX c black",
"BX c black",
"VX c black",
"CX c black",
"ZX c black",
"AX c black",
"SX c black",
"DX c black",
"FX c black",
"GX c black",
"HX c black",
"JX c black",
"KX c black",
"LX c black",
"PX c black",
"IX c black",
"UX c black",
/* pixels */
"8X8X8X8X8X8X8X8X8X8X8X8X8X8X8X8X8X8X8X8X8X8X8X8X8X8X8X8X8X8X8X8X8X8X8X8X8X8X8X8X8X8X8X8X8X8X8X8X8X8X",
"8X8X8X8X8X8X8X8X8X8X8X8X8X8X8X8X8X8X8X8X8X8X8X8X8X8X8X8X8X8X8X8X8X8X8X8X8X8X8X8X8X8X8X8X8X8X8X8X8X8X",
"8X8X8X8X8X8X8X8X8X8X8X8X8X8X8X8X8X8X8X8X8X8X8X8X8X8X8X8X8X8X8X8X8X8X8X8X8X8X8X8X8X8X8X8X8X8X8X8X8X8X",
"8X8X8X8X8X8X8X8X8X8X8X8X8X8X8X8X8X8X8X8X8X8X8X2 3 0 0 l n B B z 8X8X8X8X8X8X8X8X8X8X8X8X8X8X8X8X8X8X",
"8X8X8X8X8X8X8X8X8X8X8X8X8X3X6X6X6X6X6X6X6X6X6X1X%.x n V G G G B z 8X8X8X8X8X8X8X8X8X8X8X8X8X8X8X8X8X",
"8X8X8X8X8X8X8X8X8X,X<X<X<X1X;X$X$X$X$XI.5.$.5.#.Y B G V G G G G B z 8X8X8X8X8X8X8X8X8X8X8X8X8X8X8X8X",
"8X8X8X8X8X8X8X6X3X4X*X$X$X$X X(.).`.x.%.q r x V G G z 8X8X8X8Xj V v 8X8X8X8X8X8X8X8X8X8X8X8X8X8X8X8X",
"8X8X8X=X<X<X:X&X&X&X].(.(.(.(.).I.f.3.q r x G G V k 8X8X8X8X8X8Xk n l 8X8X8X8X8X8X8X8X8X8X8X8X8X8X8X",
"8X8X2X;X=X=X*X).(.(.(.(.(.I.U.I.8X2 0 q p V G B z 8X8X8X8X8X8X8X8Xl c 8X8X8X8X8X8X8X8X8X8X8X8X8X8X8X",
"8X*X=X&X`.(.).(.(.(.(.I.L.8X8X8X, 2 q p l G V l 8X8X8X8X8X8X8X8X8X8Xc 8X8X8X8X8X8X8X8X8X8X8X8X8X8X8X",
"8XG.x.x.).).(.(.(.`.U.8X8X8X8X8X1 q q a G H n 8X8X8X8X+.[ +.8X8X{ ] v 8X8X8X8X8X8X8X8X8X8X8X8X8X8X8X",
"8XQ W e.x.x.).(.^.~.8X8X8X8X8X8X2 q q s G H n 8X8X8X8X{ ..{ 8X[  .} n 8X8X8X8X8X8X8X8X8X8X8X8X8X8X8X",
"8X8XQ E W #.x.x.U.8X8X8X8X8X8X2 q q q s G G n 8X8X8X8X{ X.[ 8X8XX.{ n 8X8X8X8X8X8X8X8X8X8X8X8X8X8X8X",
"8X8X8X8XR Q R E 8X8X8X8X8X8X8X2 q q q a c V B u 8X@ @ + @ @ 8X8X8X8Xv 8X8X8X8X8X8X8X8X8X8X8X8X8X8X8X",
"8X8X8X8X8X8X8X~ W W 8X8X8X8X2 0 q q q q p V G B 8X@ @ @ @ @ @ # 8Xp v 8X8X8X8X8X8X8X8X8X8X8X8X8X8X8X",
"8X8X8X8X8X8X8X8X8XW Q W g 8X2 3 q q q 0 p B G G s # @ @ @ @ @ @ 8Xn x 8X8X8X8X8X8X8X8X8X8X8X8X8X8X8X",
"8X8X8X8X8X8X8X8X8X8X8X/ W W k 2 q 0 q q q p b G n s 8X# @ @ # > a c 8X8X8X8X8X8X8X8X8X8X8X8X8X8X8X8X",
"8X8X8X8X8X8X8X8X8X8X8X8X8XW ~ Q R < 0 q q 0 p v V v c c c c f 3 3 8X8X8X8X8X8X8X8X8X8X8X8X8X8X8X8X8X",
"8X8X8X8X8X8X8X8X8X8X8X8X8X8X8XR Q R k , q 0 q a v d s s s s a 2 8X8X8X8X8X8X8X8X8X8X8X8X8X8X8X8X8X8X",
"8X8X8X8X8X8X8X8X8X8X8X8X8X8X8X8X) W W Q R e q l B x a q 0 2 2 8X8X8X8X8X8X8X8X8X8X8X8X8X8X8X8X8X8X8X",
"8X8X8X8X8X8X8X8X8X8X8X8X8X8X8X8X8X8Xz z E R n.m.m.` s f d 3 2 8X8X8X8X8X8X8X8X8X8X8X8X8X8X8X8X8X8X8X",
"8X8X8X8X8X8X8X8X8X8X8X8X8X8X8X8X8X8X8X8Xg k V.V.V.$.p s g d 2 8X8X8X8X8X8X8X8X8X8X8X8X8X8X8X8X8X8X8X",
"8X8X8X8X8X8X8X8X8X8X8X8X8X8X8X8X8X8X8X2 q p @.@.a.( k s j x j h 8X8X8X8X8X8X8X8X8X8X8X8X8X8X8X8X8X8X",
"8X8X8X8X8X8X8X8X8X8X8X8X8X8X8X8X8X2 2 0 r f f f T R Q l z U V x 8X8X8X8X8X8X8X8X8X8X8X8X8X8X8X8X8X8X",
"8X8X8X8X8X8X8X8X8X8X8X8X8X: , , 1 q 0 r d G G V z 8XQ R E R Y l 8X8X8X8X8X8X8X8X8X8X8X8X8X8X8X8X8X8X",
"8X8X8X8X8X8X8X8X8X8X8X8X8X1 0 0 q 0 0 a G G G x 8X8X8Xv Y R R T 1 8X8X8X8X8X8X8X8X8X8X8X8X8X8X8X8X8X",
"8X8X8X8X8X8X8X8X8X8X2 3 0 0 q q q q r d G H n 8X8X8X8Xv G G G z 2 8X8X8X8X8X8X8X8X8X8X8X8X8X8X8X8X8X",
"8X8X8X8X8X8X8X8X8X8X8X0 q q q q 0 r d L H V c 8X8X8X8Xv G G G z 3 8X8X8X8X8X8X8X8X8X8X8X8X8X8X8X8X8X",
"8X8X8X8X8X8X8X8X8X8X8X3 0 0 0 q q d G V G v 8X8X8X8X8Xv G G G l 3 8X8X8X8X8X8X8X8X8X8X8X8X8X8X8X8X8X",
"8X8X8X8X8X8X8X8X8X8X8X8X2 0 0 0 f B G B c 8X8X8X8X8X8Xc G G l r 3 8X8X8X8X8X8X8X8X8X8X8X8X8X8X8X8X8X",
"8X8X8X8X8X8X8X8X8X8X8X8X8X1 q q f G z 3 8X8X# # 8X8Xz n G G l 0 3 8X8X8X8X8X8X8X8X8X8X8X8X8X8X8X8X8X",
"8X8X8X8X8X8X8X8X8X8X8X8X8X8X, 1 3 p 8X8X8X8X# # # 8Xx g s s a 2 8X8X8X8X8X8X8X8X8X8X8X8X8X8X8X8X8X8X",
"8X8X8X8X8X8X8X8X8X8X8X8X8X8X8X8X8X8X8X;.;.;.# # # # -.-.;.7 3 8X8X8X8X8X8X8X8X8X8X8X8X8X8X8X8X8X8X8X",
"8X8X8X8X8X8X8X8X8X8X8X8X8X8X8X8X8X8X5.6.6.5.8X# # 8X5.6.6.5.8X8X8X8X8X8X8X8X8X8X8X8X8X8X8X8X8X8X8X8X",
"8X8X8X8X8X8X8X8X8X8X8X8X8X8X8X8X8X8Xy.g.g.f.8X8X8X8Xp.g.g.f.8X8X8X8X8X8X8X8X8X8X8X8X8X8X8X8X8X8X8X8X",
"8X8X8X8X8X8X8X8X8X8X8X8X8X8X8X8X8X8X8Xx.z.j.8X8X8X8Xz.x.k.j.8X8X8X8X8X8X8X8X8X8X8X8X8X8X8X8X8X8X8X8X",
"8X8X8X8X8X8X8X8X8X8X8X8X8X8X8X8X8X8X8Xz.z.8X8X8X8X8Xz.z.l.8X8X8X8X8X8X8X8X8X8X8X8X8X8X8X8X8X8X8X8X8X",
"8X8X8X8X8X8X8X8X8X8X8X8X8X8X8X8X8X8X8X8X8X8X8X8X8X8X8X8X8X8X8X8X8X8X8X8X8X8X8X8X8X8X8X8X8X8X8X8X8X8X",
"8X8X8X8X8X8X8X8X8X8X8X8X8X8X8X8X8X8X8X8X8X8X8X8X8X8X8X8X8X8X8X8X8X8X8X8X8X8X8X8X8X8X8X8X8X8X8X8X8X8X",
"8X8X8X8X8X8X8X8X8X8X8X8X8X8X8X8X8X8X8X8X8X8X8X8X8X8X8X8X8X8X8X8X8X8X8X8X8X8X8X8X8X8X8X8X8X8X8X8X8X8X",
"8X8X8X8X8X8X8X8X8X8X8X8X8X8X8X8X8X8X8X8X8X8X8X8X8X8X8X8X8X8X8X8X8X8X8X8X8X8X8X8X8X8X8X8X8X8X8X8X8X8X",
"8X8X8X8X8X8X8X8X8X8X8X8X8X8X8X8X8X8X8X8X8X8X8X8X8X8X8X8X8X8X8X8X8X8X8X8X8X8X8X8X8X8X8X8X8X8X8X8X8X8X",
"8X8X8X8X8X8X8X8X8X8X8X8X8X8X8X8X8X8X8X8X8X8X8X8X8X8X8X8X8X8X8X8X8X8X8X8X8X8X8X8X8X8X8X8X8X8X8X8X8X8X",
"8X8X8X8X8X8X8X8X8X8X8X8X8X8X8X8X8X8X8X8X8X8X8X8X8X8X8X8X8X8X8X8X8X8X8X8X8X8X8X8X8X8X8X8X8X8X8X8X8X8X"
};
