/* XPM */
static char *a63f486c3504419ea2271154c2f51de0_4[] = {
/* columns rows colors chars-per-pixel */
"50 44 256 2 ",
"   c black",
".  c #040404",
"X  c #070707",
"o  c #0B0A0A",
"O  c #1E1618",
"+  c #251418",
"@  c #291519",
"#  c #2F151B",
"$  c #35151A",
"%  c #38171E",
"&  c #3A181F",
"*  c #3C1920",
"=  c #401B22",
"-  c #421E25",
";  c #461C23",
":  c #481B22",
">  c #491A21",
",  c #4A1A21",
"<  c #4C1B20",
"1  c #501D21",
"2  c #531E23",
"3  c #551F24",
"4  c #561E26",
"5  c #561C27",
"6  c #581B26",
"7  c #581A26",
"8  c #581A28",
"9  c #581A2A",
"0  c #591929",
"q  c #5B1928",
"w  c #5C1927",
"e  c #5C1927",
"r  c #5D1927",
"t  c #5E1926",
"y  c #601926",
"u  c #651924",
"i  c #6B1E29",
"p  c #6A212C",
"a  c #6C252F",
"s  c #6D2631",
"d  c #6E2732",
"f  c #6F2833",
"g  c #712834",
"h  c #732835",
"j  c #782533",
"k  c #7A2432",
"l  c #7C2330",
"z  c #7E222F",
"x  c #7E212D",
"c  c #7E212D",
"v  c #80202C",
"b  c #831F2B",
"n  c #861D28",
"m  c #871E2A",
"M  c #871E29",
"N  c #871E2A",
"B  c #891D2A",
"V  c #8B1D29",
"C  c #891D29",
"Z  c #881E2A",
"A  c #881E2B",
"S  c #891E2C",
"D  c #891E2D",
"F  c #871F2D",
"G  c #89212E",
"H  c #89232F",
"J  c #88252F",
"K  c #8A292F",
"L  c #883232",
"P  c #893F34",
"I  c #8A4535",
"U  c #8A4635",
"Y  c #884936",
"T  c #874937",
"R  c #884938",
"E  c #87493A",
"W  c #87493C",
"Q  c #87493D",
"!  c #874A3D",
"~  c #874A3E",
"^  c #874B3F",
"/  c #864B40",
"(  c #844C41",
")  c #824D42",
"_  c #804F44",
"`  c #7C5247",
"'  c #79534A",
"]  c #76554D",
"[  c #725851",
"{  c #6E5B56",
"}  c #6C5D59",
"|  c #6A5F5D",
" . c #676261",
".. c #656565",
"X. c gray40",
"o. c #676767",
"O. c #686868",
"+. c DimGray",
"@. c #6A6A6A",
"#. c #6D6D6D",
"$. c gray43",
"%. c #6F6F6F",
"&. c gray44",
"*. c #73736D",
"=. c #76756A",
"-. c #797767",
";. c #7B7964",
":. c #7D7B61",
">. c #7F7C5F",
",. c #817D5C",
"<. c #837F5A",
"1. c #897E4A",
"2. c #8B7D44",
"3. c #8B7D43",
"4. c #8C7C42",
"5. c #8C7C41",
"6. c #8C7C40",
"7. c #8C7C40",
"8. c #8C7D41",
"9. c #8D7D43",
"0. c #8E7E44",
"q. c #8D7F46",
"w. c #8C8149",
"e. c #908754",
"r. c #938C5F",
"t. c #969166",
"y. c #98936B",
"u. c #9B9672",
"i. c #9D9878",
"p. c #9F9A7C",
"a. c #A09B7F",
"s. c #A19C82",
"d. c #A19C85",
"f. c #A19C88",
"g. c #A19D8C",
"h. c #A19D90",
"j. c #A09D95",
"k. c #9F9C99",
"l. c #9F9C9D",
"z. c #9F9C9E",
"x. c #A09D9E",
"c. c #A09D9F",
"v. c #A09E9F",
"b. c #A19EA0",
"n. c #A29FA1",
"m. c #A2A0A1",
"M. c #A5A3A4",
"N. c #A8A6A7",
"B. c #ACAAAB",
"V. c #AEACAC",
"C. c #B0ADAE",
"Z. c #B3B1B2",
"A. c #B4B3B4",
"S. c #B6B5B6",
"D. c #B8B7B9",
"F. c #BABABD",
"G. c #BEC0C5",
"H. c #C0C3C8",
"J. c #C2C6CB",
"K. c #C3C8D0",
"L. c #C5CBD4",
"P. c #C5CCD8",
"I. c #C6CCD9",
"U. c #C6CDD9",
"Y. c #C7CED9",
"T. c #C8CEDB",
"R. c #C8CFDB",
"E. c #C8CFDB",
"W. c #CCD2DD",
"Q. c #CFD5DF",
"!. c #D3D9E2",
"~. c #D9DFE6",
"^. c #E5E9EF",
"/. c #EBEFF5",
"(. c #F3F6FA",
"). c #F6F8FC",
"_. c #F9FBFD",
"`. c #FCFEFE",
"'. c #FCFEFE",
"]. c #FDFEFE",
"[. c #FDFEFE",
"{. c #FDFEFE",
"}. c #FCFEFD",
"|. c #FCFDFC",
" X c #F8F9F3",
".X c #F2EDDB",
"XX c #E8DDBC",
"oX c #E5D8B2",
"OX c #E8D4AB",
"+X c #EBD0A6",
"@X c #ECCEA3",
"#X c #ECD29E",
"$X c #EEC598",
"%X c #EEC495",
"&X c #ECC790",
"*X c #E8D184",
"=X c #ECD679",
"-X c #EEDC75",
";X c #F0E171",
":X c #F2E36F",
">X c #F4E571",
",X c #F6E773",
"<X c #F8E873",
"1X c #FAE873",
"2X c #FAE973",
"3X c #FAEA71",
"4X c #FAEA6F",
"5X c #FCE968",
"6X c #FDEA61",
"7X c #FCEA5D",
"8X c #FDEB5C",
"9X c #FDEB5C",
"0X c #FDEB5A",
"qX c #FEEA58",
"wX c #FEE959",
"eX c #FEEA59",
"rX c #FEEA57",
"tX c #FEEB57",
"yX c #FEEB54",
"uX c #FDEC54",
"iX c #FEEB55",
"pX c #FDEB56",
"aX c #FCEB57",
"sX c #FCEB57",
"dX c None",
"fX c black",
"gX c black",
"hX c black",
"jX c black",
"kX c black",
"lX c black",
"zX c black",
"xX c black",
"cX c black",
"vX c black",
"bX c black",
"nX c black",
"mX c black",
"MX c black",
"NX c black",
"BX c black",
"VX c black",
"CX c black",
"ZX c black",
"AX c black",
"SX c black",
"DX c black",
"FX c black",
"GX c black",
"HX c black",
"JX c black",
"KX c black",
"LX c black",
"PX c black",
"IX c black",
"UX c black",
/* pixels */
"dXdXdXdXdXdXdXdXdXdXdXdXdXdXdXdXdXdXdXdXdXdXdXdXdXdXdXdXdXdXdXdXdXdXdXdXdXdXdXdXdXdXdXdXdXdXdXdXdXdX",
"dXdXdXdXdXdXdXdXdXdXdXdXdXdXdXdXdXdXdXdXdXdXdXdXdXdXdXdXdXdXdXdXdXdXdXdXdXdXdXdXdXdXdXdXdXdXdXdXdXdX",
"dXdXdXdXdXdXdXdXdXdXdXdXdXdXdXdXdXdXdXdXdXdXdXdXdXdXdXdXdXdXdXdXdXdXdXdXdXdXdXdXdXdXdXdXdXdXdXdXdXdX",
"dXdXdXdXdXdXdXdXdXdXdXdXdXdXdXdXdXdXdXdXdXdXdXdXdXdXdXdXdXdXdXdXdXdXdXdXdXdXdXdXdXdXdXdXdXdXdXdXdXdX",
"dXdXdXdXdXdXdXdXdXdXdXdXdXdXdXdXdXdXdXdXdXdXdXdXdXdXdXdXdXdXdXdXdXdXdXdXdXdXdXdXdXdXdXdXdXdXdXdXdXdX",
"dXdXdXdXdXdXdXdXdXdXdXdXdXdXdXdXdXdXdXdXdXdXdX< 2 1 2 g v v v j dXdXdXdXdXdXdXdXdXdXdXdXdXdXdXdXdXdX",
"dXdXdXdXdXdXdXdXdXdXdXdXdXdXdXdXdXdXdXdXdX3 5 6 8 j x n Z Z Z b l dXdXdXdXdXdXdXdXdXdXdXdXdXdXdXdXdX",
"dXdXdXdXdXdXdXdXdXdXdXdXdXdXdXdXdXdXdXdX2 8 6 k x m m Z Z Z m m b j dXdXdXdXdXdXdXdXdXdXdXdXdXdXdXdX",
"dXdXdXdXdXdXdXdXdXdXdXdXdXdXdXdXdXdXdX1 8 0 j n Z Z j l l l l j m b dXdXdXdXdXdXdXdXdXdXdXdXdXdXdXdX",
"dXdXdXdXdXdXdXdXdXdXdXdXdXdXdXdXdXdX1 8 q j A m m l dXdXdXdXdXdXk b j dXdXdXdXdXdXdXdXdXdXdXdXdXdXdX",
"dXdXdXdXdXdXdXdXdXdXdXdXdXdXdXdXdX1 6 8 r m m m l dXdXdXdXdXdXdXdXk v dXdXdXdXdXdXdXdXdXdXdXdXdXdXdX",
"dXdXdXdXdXdXdXdXdXdXdXdXdXdXdXdXdX1 8 w i m m j dXdXdXdXdXdXdXdXdXdXv dXdXdXdXdXdXdXdXdXdXdXdXdXdXdX",
"dXdXdXdXdXdXdXdXdXdXdXdXdXdXdXdX1 8 8 u Z Z b dXdXdXdXdXK dXdXdXK v v dXdXdXdXdXdXdXdXdXdXdXdXdXdXdX",
"dXdXdXdXdXdXdXdXdXdXdXdXdXdXdXdX< 8 8 u Z Z b dXdXdXdXH H J dXb H H b dXdXdXdXdXdXdXdXdXdXdXdXdXdXdX",
"dXdXdXdXdXdXdXdXdXdXdXdXdXdXdXa 8 8 8 u Z Z b dXdXdXdXJ F b dXdXH J b dXdXdXdXdXdXdXdXdXdXdXdXdXdXdX",
"dXdXdXdXdXdXdXdXdXdXdXdXdX:X7Xp.8 8 8 u n m n dXdXdXdXdXdXdXdXdXdXdXb dXdXdXdXdXdXdXdXdXdXdXdXdXdXdX",
"dXdXdXdXdXdXdXdXdXdXdX>X7X7X*Xy 8 8 8 6 y m Z b dXdXdXdXdXdXdXdXdXdXI :X7XdXdXdXdXdXdXdXdXdXdXdXdXdX",
"dXdXdXdXdXdXdXdXdXdX:X7XtXtX=X8 8 8 8 5 r m M A dXdXdXdXdXdXdXdXdXdXdX7XtX5X*XdXdXdXdXdXdXdXdXdXdXdX",
"dXdXdXdXdXdXdXdX;X;X7XpXtXtX:Xy.8 8 8 6 0 p n m x dXdXdXdXdXdXdXdXdX;X0XpX0X:X;X*XdXdXdXdXdXdXdXdXdX",
"dXdXdXdXdXdXdX7X0X0XtX0X=X5X5XdX3 1 6 6 8 0 u b m b n n n n j t.7X7XqXtXtXtXtXtX7X7X-XdXdXdXdXdXdXdX",
"dXdXdXdXdXdX;XtXpX7X*X*XdXdXT E R h : : 6 8 8 u b i u u u u y ' =X0X0XtXtXtXtXtXqXtX:X;X=XdXdXdXdXdX",
"dXdXdXdXdX:XpX:X5X<XdXdXdXdXdX( ) T ( f , 6 8 g n k y 6 8 1 2 dXdX4X5X<X>XqXtXtXtXtXtXtX:X<XdXdXdXdX",
"dXdXdX*X-X:X=X=XdXdXdXdXdXdXdXdXh ) ) T k j g n A Z p i u 2 < dXdXdXdXdX=X=X>XtXtXtXtXtXtX7X*XdXdXdX",
"dXdXdX=X7X;XdXdXdXdXdXdXdXdXdXdXdXdXdXk ) p.p.p.P l y i g u 2 dXdXdXdXdXdXdX<X5X:X0XtXtXtXtX:X;XdXdX",
"dXdXdX=X,XdXdXdXdXdXdXdXdXdXdXdXdXdXdX1 ] @X@X@XU f 9 2 h k p p dXdXdXdXdXdXdXdX5X7XtXtXtXtXtX7X*XdX",
"dXdXdXdXdXdXdXdXdXdXdXdXdXdXdXdXdXdX, 6 d &X&X&XU Y h y k m Z x dXdXdXdXdXdXdXdXdX>X7XtXtXtXtXtX7XdX",
"dXdXdXdXdXdXdXdXdXdXdXdXdXdXdXdXdX> 8 0 u m Z Z m T ( T L F F x dXdXdXdXdXdXdXdXdXdX=XpXtXtXtXtX7XdX",
"dXdXdXdXdXdXdXdXdXdXdXdXdXdXdXdX, 6 8 u m m Z m b p dXT I Y P l dXdXdXdXdXdXdXdXdXdX=XqXtXtXtXtX7XdX",
"dXdXdXdXdXdXdXdXdXdXdXdXdXdXdXdX< 8 8 u m C m m dXdXdXv Z L Y ) dXdXdXdXdXdXdXdXdXdX>XqXtXtXtXtX7XdX",
"dXdXdXdXdXdXdXdXdXdXdXdXdXdXdX1 5 8 u b B m Z b dXdXdXv Z m L R T T dXdXdXdXdXdXdXdX=XpXqXtXtXtX7XdX",
"dXdXdXdXdXdXdXdXdXdXdXdXdXdX1 5 8 p b Z Z Z b 4 dXdXdXv Z Z m l a T ! E dXdXdXdXdX,X7XtXtXtXtXpX7XdX",
"dXdXdXdXdXdXdXdXdXdXdXdXdX< 5 8 8 i Z Z Z Z b dXdXdXdXv Z Z l y 5 dXdXE ( T dXdXdX5XtXtXtXtXtX7Xs.dX",
"dXdXdXdXdXdXdXdXdXdXdXdXdX< 8 8 8 i Z Z Z b j dXdXdXk b Z Z j 8 5 dXdXdX/ R T =X7X7XtXtXtXtX:X;XdXdX",
"dXdXdXdXdXdXdXdXdXdXdXdXdX- : 1 8 r p i b u dXdXdXdXk j p p y 8 2 dXdXdXdXdX*X:XtXtXtXtXtX>X*XdXdXdX",
"dXdXdXdXdXdXdXdXdXdXdXdXdXdXdXdX1 8 8 r d <.O O O dXi y 8 8 8 2 < dXdXdX;X5X7XtXtXtXtXtX:X,XdXdXdXdX",
"dXdXdXdXdXdXdXdXdXdXdXdXdXdXdXdX, 1 { y.-.>.dXO dXdXy.y.*.1 1 1 dXdXdX-X7XpXpX0XpX;XoX*X*XR T dXdXdX",
"dXdXdXdXdXdXdXdXdXdXdXdXdXdXdXdXdXdXdXC.B.dXdXdXdXdXC.C.B.dXdXdX>X>X;X0XtXtX0X;X#XoXR.H.Z.S.V.dXdXdX",
"dXdXdXdXdXdXdXdXdXdXdXdXdXdXdXdXdXdXdXdXdXdXdXdXdXdXdXdXdXdX*X-X0XtXpX0X;X-X-XXXT.T.T.Q.^.(.^.dXdXdX",
"dXdXdXdXdXdXdXdXdXdXdXdXdXdXdXdXdXdXdXdXdXdXdXdXdXdXdXdXdX=XtX7X5X>X>X;XL.T.R.R.Q.!.!.^.(./.dXdXdXdX",
"dXdXdXdXdXdXdXdXdXdXdXdXdXdXdXdXdXdXdXdXdXdXdXdXdX;X0X:X;X;X;X=XdXdXY.Y.T.W.Q.Q./.(././.^.dXdXdXdXdX",
"dXdXdXdXdXdXdXdXdXdXdXdXdXdXdXdXdXdXdXdXdX5X5X5X5X7X7X=XdXdXdXK.R.W.W.W.W.).).(.(./.dXdXdXdXdXdXdXdX",
"dXdXdXdXdXdXdXdXdXdXdXdXdXdXdXdXdXdXdXdXdXdXdXdXdXdXdXdXdXG.Y.Y.!.}.|.|.(.(.J.dXdXdXdXdXdXdXdXdXdXdX",
"dXdXdXdXdXdXdXdXdXdXdXdXdXdXdXdXdXdXdXdXdXdXdXdXdXdXdX/.]._.(._.)./.dXdXdXdXdXdXdXdXdXdXdXdXdXdXdXdX",
"dXdXdXdXdXdXdXdXdXdXdXdXdXdXdXdXdXdXdXdXdXdXdXdXdXdXdXdXD.D.D.H.F.dXdXdXdXdXdXdXdXdXdXdXdXdXdXdXdXdX"
};
