/* XPM */
static char *a63f486c3504419ea2271154c2f51de0_5[] = {
/* columns rows colors chars-per-pixel */
"50 44 256 2 ",
"   c black",
".  c #180A0C",
"X  c #2A1417",
"o  c #34151B",
"O  c #3E1A20",
"+  c #411C22",
"@  c #421E25",
"#  c #451C23",
"$  c #471B22",
"%  c #481A21",
"&  c #491A21",
"*  c #4A1921",
"=  c #4E1B21",
"-  c #4E1E22",
";  c #512024",
":  c #532024",
">  c #542025",
",  c #551F27",
"<  c #561E28",
"1  c #561C29",
"2  c #561B28",
"3  c #571B28",
"4  c #571A27",
"5  c #581A27",
"6  c #581A27",
"7  c #591A27",
"8  c #5A1A26",
"9  c #5A1A26",
"0  c #5A1A26",
"q  c #5C1A26",
"w  c #5D1926",
"e  c #5D1926",
"r  c #601925",
"t  c #621925",
"y  c #641925",
"u  c #661823",
"i  c #661B27",
"p  c #6A1D29",
"a  c #681F2B",
"s  c #6A222E",
"d  c #6C2530",
"f  c #6D2731",
"g  c #6E2831",
"h  c #6E2832",
"j  c #702832",
"k  c #722833",
"l  c #772632",
"z  c #7A2432",
"x  c #7C2330",
"c  c #7D222F",
"v  c #7E222E",
"b  c #7E212D",
"n  c #7F212D",
"m  c #821F2B",
"M  c #831E2C",
"N  c #851D2C",
"B  c #871D2B",
"V  c #881D2B",
"C  c #8A1E2B",
"Z  c #8B1D2A",
"A  c #8A1E2B",
"S  c #871E2A",
"D  c #871E28",
"F  c #861D28",
"G  c #861E2A",
"H  c #861E2B",
"J  c #871F2C",
"K  c #87202D",
"L  c #88212D",
"P  c #88212E",
"I  c #88232E",
"U  c #8A272E",
"Y  c #872C31",
"T  c #883D35",
"R  c #894236",
"E  c #884636",
"W  c #894836",
"Q  c #8A4735",
"!  c #894937",
"~  c #824E3A",
"^  c #7C533D",
"/  c #7A563E",
"(  c #79593E",
")  c #786541",
"_  c #7E6844",
"`  c #7F6946",
"'  c #80694A",
"]  c #81694F",
"[  c #7E6852",
"{  c #7A6757",
"}  c #75665C",
"|  c #706664",
" . c #6F6968",
".. c #6D6D6D",
"X. c gray43",
"o. c #6F6F6F",
"O. c gray44",
"+. c #727272",
"@. c gray45",
"#. c #747474",
"$. c #767676",
"%. c #777777",
"&. c gray47",
"*. c #797979",
"=. c gray48",
"-. c #7B7B7B",
";. c #7C7C7C",
":. c gray50",
">. c #808080",
",. c #818181",
"<. c gray51",
"1. c #838383",
"2. c #848484",
"3. c gray52",
"4. c #868686",
"5. c gray53",
"6. c #888888",
"7. c #898989",
"8. c gray54",
"9. c #8B8B8B",
"0. c gray55",
"q. c #8D8D8D",
"w. c #908F8F",
"e. c #929192",
"r. c #949393",
"t. c #969595",
"y. c #989697",
"u. c #999798",
"i. c #9A9899",
"p. c #9B999A",
"a. c #9C9A9B",
"s. c #9D9B9B",
"d. c #9E9B9C",
"f. c #9E9B9C",
"g. c #9F9C9D",
"h. c #A09D9D",
"j. c #A09D9E",
"k. c #A09E9E",
"l. c #A19E9F",
"z. c #A4A195",
"x. c #A5A293",
"c. c #A7A390",
"v. c #A8A490",
"b. c #AAA694",
"n. c #ADAA9A",
"m. c #B1AEA4",
"M. c #B4B2AE",
"N. c #B5B3B2",
"B. c #B6B4B4",
"V. c #B7B6B7",
"C. c #B8B7B8",
"Z. c #B9B9BB",
"A. c #BABBBD",
"S. c #BDC0C2",
"D. c #BFC3C6",
"F. c #C1C5C9",
"G. c #C3C8CD",
"H. c #C3C9D0",
"J. c #C5CBD3",
"K. c #C5CBD5",
"L. c #C5CCD6",
"P. c #C5CCD7",
"I. c #C5CCD8",
"U. c #C5CCD8",
"Y. c #C6CCD9",
"T. c #C6CDD9",
"R. c #C7CEDA",
"E. c #C7CEDB",
"W. c #C8CFDB",
"Q. c #CBD1DC",
"!. c #C8CFDB",
"~. c #C9CFDA",
"^. c #CACFD8",
"/. c #CBD0D5",
"(. c #CED0CF",
"). c #D1D0C7",
"_. c #D7D1BD",
"`. c #DBD1B4",
"'. c #DDD1B1",
"]. c #DED0AE",
"[. c #E5CEA8",
"{. c #EDCBA1",
"}. c #EECA9E",
"|. c #F0C399",
" X c #F0C196",
".X c #EFC292",
"XX c #E8C78C",
"oX c #E6C789",
"OX c #E3C786",
"+X c #DFC682",
"@X c #DCC67E",
"#X c #DCC77E",
"$X c #DCC77D",
"%X c #DDC87D",
"&X c #DEC97D",
"*X c #E2CD7C",
"=X c #EAD779",
"-X c #EFDD77",
";X c #F3E175",
":X c #F5E475",
">X c #F8E86A",
",X c #FAEB65",
"<X c #FBEB60",
"1X c #FCEA59",
"2X c #FBEA65",
"3X c #FAE871",
"4X c #F8E876",
"5X c #F7E87D",
"6X c #F6E884",
"7X c #F6E88B",
"8X c #F6E991",
"9X c #F6EA97",
"0X c #F7EDA3",
"qX c #F4F5ED",
"wX c #F4F6FA",
"eX c #F8FAFC",
"rX c #FAFCFD",
"tX c #FDFEFE",
"yX c #FCFEFE",
"uX c #FDFEFE",
"iX c #FDFEFE",
"pX c None",
"aX c black",
"sX c black",
"dX c black",
"fX c black",
"gX c black",
"hX c black",
"jX c black",
"kX c black",
"lX c black",
"zX c black",
"xX c black",
"cX c black",
"vX c black",
"bX c black",
"nX c black",
"mX c black",
"MX c black",
"NX c black",
"BX c black",
"VX c black",
"CX c black",
"ZX c black",
"AX c black",
"SX c black",
"DX c black",
"FX c black",
"GX c black",
"HX c black",
"JX c black",
"KX c black",
"LX c black",
"PX c black",
"IX c black",
"UX c black",
/* pixels */
"pXpXpXpXpXpXpXpXpXpXpXpXpXpXpXpXpXpXpXpXpXpXpXpXpXpXpXpXpXpXpXpXpXpXpXpXpXpXpXpXpXpXpXpXpXpXpXpXpXpX",
"pXpXpXpXpXpXpXpXpXpXpXpXpXpXpXpXpXpXpXpXpXpXpXpXpXpXpXpXpXpXpXpXpXpXpXpXpXpXpXpXpXpXpXpXpXpXpXpXpXpX",
"pXpXpXpXpXpXpXpXpXpXpXpXpXpXpXpXpXpXpXpXpXpXpXpXpXpXpXpXpXpXpXpXpXpXpXpXpXpXpXpXpXpXpXpXpXpXpXpXpXpX",
"pXpXpXpXpXpXpXpXpXpXpXpXpXpXpXpXpXpXpXpXpXpXpXpXpXpXpXpXpXpXpXpXpXpXpXpXpXpXpXpXpXpXpXpXpXpXpXpXpXpX",
"pXpXpXpXpXpXpXpXpXpXpXpXpXpXpXpXpXpXpXpXpXpXpXpXpXpXpXpXpXpXpXpXpXpXpXpXpXpXpXpXpXpXpXpXpXpXpXpXpXpX",
"pXpXpXpXpXpXpXpXpXpXpXpXpXpXpXpXpXpXpXpXpXpXpX- ; : : j n n n l pXpXpXpXpXpXpXpXpXpXpXpXpXpXpXpXpXpX",
"pXpXpXpXpXpXpXpXpXpXpXpXpXpXpXpXpXpXpXpXpX, , 5 7 l n N S S V m c pXpXpXpXpXpXpXpXpXpXpXpXpXpXpXpXpX",
"pXpXpXpXpXpXpXpXpXpXpXpXpXpXpXpXpXpXpXpX; 5 5 z b S S V S S S S M l pXpXpXpXpXpXpXpXpXpXpXpXpXpXpXpX",
"pXpXpXpXpXpXpXpXpXpXpXpXpXpXpXpXpXpXpX; 5 7 l G V V l x x x x l S m pXpXpXpXpXpXpXpXpXpXpXpXpXpXpXpX",
"pXpXpXpXpXpXpXpXpXpXpXpXpXpXpXpXpXpX- 3 8 l B S B x pXpXpXpXpXpXz M z pXpXpXpXpXpXpXpXpXpXpXpXpXpXpX",
"pXpXpXpXpXpXpXpXpXpXpXpXpXpXpXpXpX- 3 3 w B S S x pXpXpXpXpXpXpXpXx m pXpXpXpXpXpXpXpXpXpXpXpXpXpXpX",
"pXpXpXpXpXpXpXpXpXpXpXpXpXpXpXpXpX- 3 w p S S l pXpXpXpXpXpXpXpXpXpXn pXpXpXpXpXpXpXpXpXpXpXpXpXpXpX",
"pXpXpXpXpXpXpXpXpXpXpXpXpXpXpXpX= 3 3 y S S M pXpXpXpXr y pXpXpXk j n pXpXpXpXpXpXpXpXpXpXpXpXpXpXpX",
"pXpXpXpXpXpXpXpXpXpXpXpXpXpXpXpX= 3 3 y S S M pXpXpXpXm V l pXp V S m pXpXpXpXpXpXpXpXpXpXpXpXpXpXpX",
"pXpXpXpXpXpXpXpXpXpXpXpXpXpXpX; 5 3 3 y V V M pXpXpXpXz n l pXs n m m pXpXpXpXpXpXpXpXpXpXpXpXpXpXpX",
"pXpXpXpXpXpXpXpXpXpXpXpXpXpXpX; 5 3 3 y H S N pXpXpXpXpXpXpXpXpXpXpXn pXpXpXpXpXpXpXpXpXpXpXpXpXpXpX",
"pXpXpXpXpXpXpXpXpXpXpXpX-X>X] 4 3 3 3 5 r S V M pXpXpXpXpXpXpXpXpXpXm pXpXpXpXpXpXpXpXpXpXpXpXpXpXpX",
"pXpXpXpXpXpXpXpXpXpX;XpXpXpXs 3 3 3 3 1 q B D S pXpXpXpXpXpXpXpXpXb Y >X2XpXpXpXpXpXpXpXpXpXpXpXpXpX",
"pXpXpXpXpXpXpXpX-X-X<XpXpXpXpX; 3 3 3 3 7 a H H b pXpXpXpXpXpXpXt m pXpXpXpXpX-X$XpXpXpXpXpXpXpXpXpX",
"pXpXpXpXpX$X2X;X>X>X>XpXpXpXpXpX: ; 5 5 3 7 i N H M N N N N l 2 3 pXpXpXpXpXpXpX;X2X=XpXpXpXpXpXpXpX",
"pXpXpXpXpX$X>X#XpXpXpXpXpXpX~ ! W l * * 3 7 5 i M d i i i i t : * pXpXpXpXpXpXpXpX&X$X-X*XpXpXpXpXpX",
"pXpXpXpXpX*X4XpXpXpXpXpXpXpX~ ~ ~ E ~ j - 3 7 k N z t 5 3 ; > - pXpXpXpXpXpXpXpXpXpXpX3X=X:XpXpXpXpX",
"pXpXpXpXpX*XpXpXpXpXpXpXpXpXpXpXk ~ ~ ~ ~ l j N B S a p i ; - pXpXpXpXpXpXpXpXpXpXpXpXpXpX=XpXpXpXpX",
"pXpXpXpXpXpXpXpXpXpXpXpXpXpXpXpXpXpXpX~ ~ v.c.c.R x r d j y : pXpXpXpXpXpXpXpXpXpXpXpXpXpXpXpX;XpXpX",
"pXpXpXpXpXpXpXpXpXpXpXpXpXpXpXpXpXpXpX- h }.}.}.Q j 8 > k z a a pXpXpXpXpXpXpXpXpXpXpXpXpXpXpX;X@XpX",
"pXpXpXpXpXpXpXpXpXpXpXpXpXpXpXpXpXpX& 5 f +X+X+XQ E k a z S V b pXpXpXpXpXpXpXpXpXpXpXpXpXpXpXpX:XpX",
"pXpXpXpXpXpXpXpXpXpXpXpXpXpXpXpXpX* 3 7 i S S V S ~ ~ E T K K c pXpXpXpXpXpXpXpXpXpXpXpXpXpXpXpXpXpX",
"pXpXpXpXpXpXpXpXpXpXpXpXpXpXpXpX* 3 3 y G S S S m pXpX~ E E T x pXpXpXpXpXpXpXpXpXpXpXpXpXpXpXpXpXpX",
"pXpXpXpXpXpXpXpXpXpXpXpXpXpXpXpX= 5 5 i V V S S pXpXpXn V Y W ~ pXpXpXpXpXpXpXpXpXpXpXpXpXpXpXpXpXpX",
"pXpXpXpXpXpXpXpXpXpXpXpXpXpXpX- 2 5 i M V S B N pXpXpXn S S Y E E ~ pXpXpXpXpXpXpXpXpXpXpXpXpXpX:XpX",
"pXpXpXpXpXpXpXpXpXpXpXpXpXpX; 2 3 a M S S V N 8 pXpXpXm S S J x s W E E pXpXpXpXpXpXpXpXpXpXpX2X2XpX",
"pXpXpXpXpXpXpXpXpXpXpXpXpX- , 3 3 p S S S S N pXpXpXpXm S S c t < pXpXE ~ ~ pXpXpXpXpXpXpXpXpX>Xb.pX",
"pXpXpXpXpXpXpXpXpXpXpXpXpX= 5 3 3 p V V S m l pXpXpXz N S S l 3 , pXpXpX~ ! E ! ^ pXpXpXpXpXpX4XpXpX",
"pXpXpXpXpXpXpXpXpXpXpXpXpX$ - ; 3 q a d M a pXpXpXpXx l a a t 3 > pXpXpXpXl z ~ E E ~ pXpXpXpXpXpXpX",
"pXpXpXpXpXpXpXpXpXpXpXpXpXpXpXpX; 3 3 q h <.pXX X pXp t 5 3 3 ; - pXpXpXpXpXpX~ ~ v.&X3X=XpXpXpXpXpX",
"pXpXpXpXpXpXpXpXpXpXpXpXpXpXpXpX* = } 4.<.&.pXpXpXpX4.4.| ; = - pXpXpXpXpXpXpX;X=X[.[.&Xv.! ~ pXpXpX",
"pXpXpXpXpXpXpXpXpXpXpXpXpXpXpXpXpXpXpXM.m.pXpXpXpXpXM.M.m.pXpXpXpXpXpXpXpXpXG.].9X_.W.S.n.M.m.pXpXpX",
"pXpXpXpXpXpXpXpXpXpXpXpXpXpXpXpXpXpXpXpXpXpXpXpXpXpXpXpXpXpXpXpX$X$XpXpXpXpXJ.W.W.E.E.Q.qXwXqXpXpXpX",
"pXpXpXpXpXpXpXpXpXpXpXpXpXpXpXpXpXpXpXpXpXpXpXpXpXpXpXpXpXpXpX=X>X-XpXpXK.W.E.W.Q.Q.Q.qXwXeXpXpXpXpX",
"pXpXpXpXpXpXpXpXpXpXpXpXpXpXpXpXpXpXpXpXpXpXpXpXpXpXpXpXpXpX=X*XpXpXW.R.W.Q.Q.Q.qXwXqXqXqXpXpXpXpXpX",
"pXpXpXpXpXpXpXpXpXpXpXpXpXpXpXpXpXpXpXpXpX>X>XpXpXpXpXpXpXpXpXH.~.Q.Q.Q.Q.wXeXeXeXqXpXpXpXpXpXpXpXpX",
"pXpXpXpXpXpXpXpXpXpXpXpXpXpXpXpXpXpXpXpXpXpXpXpXpXpXpXpXpXS.T.T.Q.yXrXrXwXwXG.pXpXpXpXpXpXpXpXpXpXpX",
"pXpXpXpXpXpXpXpXpXpXpXpXpXpXpXpXpXpXpXpXpXpXpXpXpXpXpXqXtXeXwXeXeXqXpXpXpXpXpXpXpXpXpXpXpXpXpXpXpXpX",
"pXpXpXpXpXpXpXpXpXpXpXpXpXpXpXpXpXpXpXpXpXpXpXpXpXpXpXpXC.C.C.D.A.pXpXpXpXpXpXpXpXpXpXpXpXpXpXpXpXpX"
};
