/* XPM */
static char *a63f486c3504419ea2271154c2f51de0_6[] = {
/* columns rows colors chars-per-pixel */
"50 44 256 2 ",
"   c black",
".  c #020101",
"X  c #240F14",
"o  c #2E1419",
"O  c #31141B",
"+  c #38181F",
"@  c #3A191F",
"#  c #3C1920",
"$  c #3D1A21",
"%  c #3F1C23",
"&  c #431E25",
"*  c #461C24",
"=  c #481B23",
"-  c #4B1C21",
";  c #4D1D21",
":  c #4E1D21",
">  c #511E22",
",  c #531E23",
"<  c #541E26",
"1  c #551D28",
"2  c #561B29",
"3  c #561B28",
"4  c #571B28",
"5  c #571B27",
"6  c #581B27",
"7  c #591B26",
"8  c #591A26",
"9  c #591A26",
"0  c #5A1B27",
"q  c #5B1C27",
"w  c #5C1B27",
"e  c #5C1A27",
"r  c #5D1A26",
"t  c #5D1927",
"y  c #5F1926",
"u  c #611925",
"i  c #631925",
"p  c #661823",
"a  c #681C27",
"s  c #6A1F28",
"d  c #6E212A",
"f  c #6D252C",
"g  c #6E272E",
"h  c #6E282F",
"j  c #6F282F",
"k  c #712831",
"l  c #742732",
"z  c #762532",
"x  c #7A2432",
"c  c #7C2331",
"v  c #7D222F",
"b  c #7E222E",
"n  c #7E212D",
"m  c #7F212C",
"M  c #811F2B",
"N  c #841E2C",
"B  c #851D2C",
"V  c #891D2A",
"C  c #8B1D29",
"Z  c #881D28",
"A  c #861D28",
"S  c #871E29",
"D  c #871E2A",
"F  c #891E2B",
"G  c #891F2C",
"H  c #891F2D",
"J  c #881F2D",
"K  c #88222E",
"L  c #88242F",
"P  c #882730",
"I  c #8A2A30",
"U  c #883534",
"Y  c #893C35",
"T  c #8A4235",
"R  c #8A4536",
"E  c #894836",
"W  c #874939",
"Q  c #874A3B",
"!  c #854B3D",
"~  c #844B3D",
"^  c #844D3E",
"/  c #85503E",
"(  c #86553E",
")  c #885B3E",
"_  c #8A6942",
"`  c #8A6943",
"'  c #896943",
"]  c #886844",
"[  c #866746",
"{  c #846648",
"}  c #7D654F",
"|  c #766456",
" . c #71645B",
".. c #6C6360",
"X. c #686365",
"o. c #666468",
"O. c #65666A",
"+. c #64686D",
"@. c #65696D",
"#. c #686B6E",
"$. c #6A6C6F",
"%. c #6C6E70",
"&. c #6F7071",
"*. c gray45",
"=. c gray46",
"-. c #767676",
";. c #777777",
":. c gray47",
">. c #797979",
",. c gray48",
"<. c #7B7B7B",
"1. c #7C7C7C",
"2. c #808080",
"3. c #818181",
"4. c gray51",
"5. c #838383",
"6. c #848484",
"7. c gray52",
"8. c #868686",
"9. c gray53",
"0. c #888888",
"q. c #898989",
"w. c gray54",
"e. c #8B8B8B",
"r. c gray55",
"t. c #8D8D8D",
"y. c #908F8F",
"u. c #929192",
"i. c #949393",
"p. c #969595",
"a. c #989697",
"s. c #999798",
"d. c #9A9899",
"f. c #9B999A",
"g. c #9C9A9B",
"h. c #9D9B9B",
"j. c #9E9B9C",
"k. c #9F9C9D",
"l. c #A19C9C",
"z. c #A39B9B",
"x. c #A59B99",
"c. c #A69C97",
"v. c #A79E95",
"b. c #A7A094",
"n. c #A9A497",
"m. c #ABA79B",
"M. c #ADAA9F",
"N. c #AFACA3",
"B. c #B0AEA7",
"V. c #B2AFAA",
"C. c #B3B2B0",
"Z. c #B4B3B3",
"A. c #B5B4B6",
"S. c #B6B4B7",
"D. c #B6B5B8",
"F. c #B7B7BB",
"G. c #B7B8BD",
"H. c #B8B9BF",
"J. c #B8BBC2",
"K. c #B9BCC5",
"L. c #BABDC6",
"P. c #BABEC6",
"I. c #BBC0C9",
"U. c #BEC2CB",
"Y. c #C1C5CD",
"T. c #C2C6CF",
"R. c #C4C9D0",
"E. c #C3C9D3",
"W. c #C4CAD6",
"Q. c #C4CBD7",
"!. c #C5CBD8",
"~. c #C5CCD8",
"^. c #C6CDD9",
"/. c #C6CDD9",
"(. c #C6CDDA",
"). c #C6CDDA",
"_. c #C7CEDB",
"`. c #C7CEDB",
"'. c #C8CEDB",
"]. c #C8CFDB",
"[. c #C9CFDB",
"{. c #C9D0DB",
"}. c #CAD0DB",
"|. c #CCD2DB",
" X c #CBD1D9",
".X c #CCD2D6",
"XX c #D0D3D1",
"oX c #D4D6CB",
"OX c #EAE2A8",
"+X c #F0E69D",
"@X c #F6E993",
"#X c #F6E991",
"$X c #F6EA86",
"%X c #F8EB7E",
"&X c #F8EB77",
"*X c #F9EC74",
"=X c #F9EB76",
"-X c #F8EA7C",
";X c #F8E983",
":X c #F8E38E",
">X c #F8DF90",
",X c #F7DC92",
"<X c #F7D695",
"1X c #F7D397",
"2X c #F7C898",
"3X c #F7C499",
"4X c #F7C59A",
"5X c #F8CBA0",
"6X c #F8CEA6",
"7X c #F8D2AD",
"8X c #F8EEE4",
"9X c #F4F1F0",
"0X c #F4F6FA",
"qX c #F8F9FC",
"wX c #FAFCFD",
"eX c #FDFEFE",
"rX c #FCFEFE",
"tX c #FDFEFE",
"yX c #FDFEFE",
"uX c None",
"iX c black",
"pX c black",
"aX c black",
"sX c black",
"dX c black",
"fX c black",
"gX c black",
"hX c black",
"jX c black",
"kX c black",
"lX c black",
"zX c black",
"xX c black",
"cX c black",
"vX c black",
"bX c black",
"nX c black",
"mX c black",
"MX c black",
"NX c black",
"BX c black",
"VX c black",
"CX c black",
"ZX c black",
"AX c black",
"SX c black",
"DX c black",
"FX c black",
"GX c black",
"HX c black",
"JX c black",
"KX c black",
"LX c black",
"PX c black",
"IX c black",
"UX c black",
/* pixels */
"uXuXuXuXuXuXuXuXuXuXuXuXuXuXuXuXuXuXuXuXuXuXuXuXuXuXuXuXuXuXuXuXuXuXuXuXuXuXuXuXuXuXuXuXuXuXuXuXuXuX",
"uXuXuXuXuXuXuXuXuXuXuXuXuXuXuXuXuXuXuXuXuXuXuXuXuXuXuXuXuXuXuXuXuXuXuXuXuXuXuXuXuXuXuXuXuXuXuXuXuXuX",
"uXuXuXuXuXuXuXuXuXuXuXuXuXuXuXuXuXuXuXuXuXuXuXuXuXuXuXuXuXuXuXuXuXuXuXuXuXuXuXuXuXuXuXuXuXuXuXuXuXuX",
"uXuXuXuXuXuXuXuXuXuXuXuXuXuXuXuXuXuXuXuXuXuXuXuXuXuXuXuXuXuXuXuXuXuXuXuXuXuXuXuXuXuXuXuXuXuXuXuXuXuX",
"uXuXuXuXuXuXuXuXuXuXuXuXuXuXuXuXuXuXuXuXuXuXuXuXuXuXuXuXuXuXuXuXuXuXuXuXuXuXuXuXuXuXuXuXuXuXuXuXuXuX",
"uXuXuXuXuXuXuXuXuXuXuXuXuXuXuXuXuXuXuXuXuXuXuX; > > > d M M m z uXuXuXuXuXuXuXuXuXuXuXuXuXuXuXuXuXuX",
"uXuXuXuXuXuXuXuXuXuXuXuXuXuXuXuXuXuXuXuXuX< 5 6 7 z m B Z Z V M v uXuXuXuXuXuXuXuXuXuXuXuXuXuXuXuXuX",
"uXuXuXuXuXuXuXuXuXuXuXuXuXuXuXuXuXuXuXuX, 6 6 x n D Z Z S S D D N z uXuXuXuXuXuXuXuXuXuXuXuXuXuXuXuX",
"uXuXuXuXuXuXuXuXuXuXuXuXuXuXuXuXuXuXuX> 6 7 z D Z Z x c v v v z D M uXuXuXuXuXuXuXuXuXuXuXuXuXuXuXuX",
"uXuXuXuXuXuXuXuXuXuXuXuXuXuXuXuXuXuX: 6 0 z D Z D v uXuXuXuXuXuXx N x uXuXuXuXuXuXuXuXuXuXuXuXuXuXuX",
"uXuXuXuXuXuXuXuXuXuXuXuXuXuXuXuXuX: 5 6 r D D D v uXuXuXuXuXuXuXuXc M uXuXuXuXuXuXuXuXuXuXuXuXuXuXuX",
"uXuXuXuXuXuXuXuXuXuXuXuXuXuXuXuXuX: 5 w d Z D x uXuXuXuXuXuXuXuXuXuXm uXuXuXuXuXuXuXuXuXuXuXuXuXuXuX",
"uXuXuXuXuXuXuXuXuXuXuXuXuXuXuXuX: 6 6 i D D N uXuXuXuXx P uXuXuXI v M uXuXuXuXuXuXuXuXuXuXuXuXuXuXuX",
"uXuXuXuXuXuXuXuXuXuXuXuXuXuXuXuX: 6 6 i D D N uXuXuXuXL L P uXM L L M uXuXuXuXuXuXuXuXuXuXuXuXuXuXuX",
"uXuXuXuXuXuXuXuXuXuXuXuXuXuXuX, 6 6 6 i Z Z N uXuXuXuXB B M uXm B B M uXuXuXuXuXuXuXuXuXuXuXuXuXuXuX",
"uXuXuXuXuXuXuXuXuXuXuXuXuXuXuX> 6 6 6 i D Z B uXuXuXuXuXuXuXuXuXuXuXM uXuXuXuXuXuXuXuXuXuXuXuXuXuXuX",
"uXuXuXuXuXuXuXuXuXuXuXuXuX,X` 5 6 6 6 6 y D Z N uXuXuXuXuXuXuXuXuXuXM uXuXuXuXuXuXuXuXuXuXuXuXuXuXuX",
"uXuXuXuXuXuXuXuXuXuXuXuXuXuXi 6 6 6 6 4 r D Z D uXuXuXuXuXuXuXuXuXM M uXuXuXuXuXuXuXuXuXuXuXuXuXuXuX",
"uXuXuXuXuXuXuXuX$XuXuXuXuXuXuX> 5 6 6 5 7 a A A n uXuXuXuXuXuXuXu M uXuXuXuXuX$X2XuXuXuXuXuXuXuXuXuX",
"uXuXuXuXuXuXuXuXuXuXuXuXuXuXuXuX> > 6 6 5 7 p N D N N N N N z 3 6 uXuXuXuXuXuXuXuXuXuXuXuXuXuXuXuXuX",
"uXuXuXuXuXuX$XuXuXuXuXuXuXuX~ W W l = = 5 7 6 p N d a a a a u > = uXuXuXuXuXuXuXuXuXuXuX,XuXuXuXuXuX",
"uXuXuXuXuXuX-XuXuXuXuXuXuXuX~ ! ~ W Q k ; 5 6 k B x u 6 5 > , - uXuXuXuXuXuXuXuXuXuXuXuX,X-XuXuXuXuX",
"uXuXuXuXuXuXuXuXuXuXuXuXuXuXuXuXl ~ ~ ~ ~ l d A J Z a d p > : uXuXuXuXuXuXuXuXuXuXuXuXuXuX,XuXuXuXuX",
"uXuXuXuXuXuXuXuXuXuXuXuXuXuXuXuXuXuXuXc ~ v.v.v.T c u d d i < uXuXuXuXuXuXuXuXuXuXuXuXuXuXuXuXuXuXuX",
"uXuXuXuXuXuXuXuXuXuXuXuXuXuXuXuXuXuXuX; k 5X5X5X` j q < l x a a uXuXuXuXuXuXuXuXuXuXuXuXuXuXuXuX2XuX",
"uXuXuXuXuXuXuXuXuXuXuXuXuXuXuXuXuXuX= 6 h 3X3X3X) E x a x D Z n uXuXuXuXuXuXuXuXuXuXuXuXuXuXuXuX;XuX",
"uXuXuXuXuXuXuXuXuXuXuXuXuXuXuXuXuX= 6 7 p D Z Z D ~ ~ W U L K v uXuXuXuXuXuXuXuXuXuXuXuXuXuXuXuXuXuX",
"uXuXuXuXuXuXuXuXuXuXuXuXuXuXuXuX- 6 5 i D D Z D N s uX~ E E Y v uXuXuXuXuXuXuXuXuXuXuXuXuXuXuXuXuXuX",
"uXuXuXuXuXuXuXuXuXuXuXuXuXuXuXuX; 6 6 p Z V D S uXuXuXM Z U E ~ uXuXuXuXuXuXuXuXuXuXuXuXuXuXuXuXuXuX",
"uXuXuXuXuXuXuXuXuXuXuXuXuXuXuX> 3 6 p N V D D N uXuXuXM D D U W W ~ uXuXuXuXuXuXuXuXuXuXuXuXuXuX&XuX",
"uXuXuXuXuXuXuXuXuXuXuXuXuXuX: 5 6 a N D D Z B 0 uXuXuXM D D D c f W Q W uXuXuXuXuXuXuXuXuXuXuXuX&XuX",
"uXuXuXuXuXuXuXuXuXuXuXuXuX- < 6 6 s Z D D Z N uXuXuXuXM D D c u 5 uXuXQ ~ ~ uXuXuXuXuXuXuXuXuXuXuXuX",
"uXuXuXuXuXuXuXuXuXuXuXuXuX: 6 6 6 s V Z Z M z uXuXuXx N D D z 4 1 uXuXuXQ W W W x uXuXuXuXuXuXuXuXuX",
"uXuXuXuXuXuXuXuXuXuXuXuXuX* = > 5 w a d N a uXuXuXuXx z a a i 6 < uXuXuXuXx x ~ ~ W ~ uXuXuXuXuXuXuX",
"uXuXuXuXuXuXuXuXuXuXuXuXuXuXuXuX> 6 4 r h 4.uXo o uXs u 6 6 6 > : uXuXuXuXuXuX/ x.9.~ Q ~ uXuXuXuXuX",
"uXuXuXuXuXuXuXuXuXuXuXuXuXuXuXuX- : ..7.3.:.uXuXuXuX8.7. .> : - uXuXuXuXuXuXuXY.T.F.x.y.W W ~ uXuXuX",
"uXuXuXuXuXuXuXuXuXuXuXuXuXuXuXuXuXuXuXC.N.uXuXuXuXuXC.C.N.uXuXuXuXuXuXuXuXuXT.~.'.].].K.c.V.N.uXuXuX",
"uXuXuXuXuXuXuXuXuXuXuXuXuXuXuXuXuXuXuXuXuXuXuXuXuXuXuXuXuXuXuXuXuXuXuXuXuXuXE.].'.'.'.|.9X0X9XuXuXuX",
"uXuXuXuXuXuXuXuXuXuXuXuXuXuXuXuXuXuXuXuXuXuXuXuXuXuXuXuXuXuXuXuXuXuXuXuXE.]._.].|.|.|.9X0X9XuXuXuXuX",
"uXuXuXuXuXuXuXuXuXuXuXuXuXuXuXuXuXuXuXuXuXuXuXuXuXuXuXuXuXuXuXuXuXuX'.].].|.|.|.9X9X9X9X8XuXuXuXuXuX",
"uXuXuXuXuXuXuXuXuXuXuXuXuXuXuXuXuXuXuXuXuXuXuXuXuXuXuXuXuXuXuXE.[.}.}.|.}.0XqXqXqX9XuXuXuXuXuXuXuXuX",
"uXuXuXuXuXuXuXuXuXuXuXuXuXuXuXuXuXuXuXuXuXuXuXuXuXuXuXuXuXP.^.'.|.rXwXwX0X0XR.uXuXuXuXuXuXuXuXuXuXuX",
"uXuXuXuXuXuXuXuXuXuXuXuXuXuXuXuXuXuXuXuXuXuXuXuXuXuXuX9XeXqX0XqXqX0XuXuXuXuXuXuXuXuXuXuXuXuXuXuXuXuX",
"uXuXuXuXuXuXuXuXuXuXuXuXuXuXuXuXuXuXuXuXuXuXuXuXuXuXuXuXF.F.F.Y.H.uXuXuXuXuXuXuXuXuXuXuXuXuXuXuXuXuX"
};
