/* XPM */
static char *a63f486c3504419ea2271154c2f51de0_7[] = {
/* columns rows colors chars-per-pixel */
"50 44 256 2 ",
"   c black",
".  c #020101",
"X  c #230E12",
"o  c #2E1015",
"O  c #321116",
"+  c #37141A",
"@  c #38181E",
"#  c #3C191F",
"$  c #3D1A1F",
"%  c #401B22",
"&  c #451D24",
"*  c #471A22",
"=  c #481A22",
"-  c #491A22",
";  c #4A1A22",
":  c #4C1A23",
">  c #501C23",
",  c #531E25",
"<  c #541F25",
"1  c #551E26",
"2  c #551D27",
"3  c #561C28",
"4  c #571B28",
"5  c #571B28",
"6  c #581B28",
"7  c #581A27",
"8  c #581A27",
"9  c #591A26",
"0  c #5A1A26",
"q  c #5A1A26",
"w  c #5B1A26",
"e  c #5C1A27",
"r  c #5C1A27",
"t  c #5D1B26",
"y  c #5F1B26",
"u  c #611A26",
"i  c #631925",
"p  c #651925",
"a  c #661823",
"s  c #661925",
"d  c #671C27",
"f  c #6B1E2A",
"g  c #69202B",
"h  c #6B232E",
"j  c #6D2630",
"k  c #6E2731",
"l  c #6F2832",
"z  c #712833",
"x  c #722833",
"c  c #742734",
"v  c #792533",
"b  c #7B2432",
"n  c #7C2331",
"m  c #7E222F",
"M  c #7F212E",
"N  c #80202C",
"B  c #80202C",
"V  c #821F2A",
"C  c #841F29",
"Z  c #871E29",
"A  c #861D28",
"S  c #871E29",
"D  c #891D2A",
"F  c #8B1C29",
"G  c #891D29",
"H  c #881D2B",
"J  c #881E2C",
"K  c #891E2C",
"L  c #871F2D",
"P  c #8A1F2D",
"I  c #89222E",
"U  c #88242F",
"Y  c #8A272E",
"T  c #872C31",
"R  c #883833",
"E  c #894235",
"W  c #8A4535",
"Q  c #894735",
"!  c #884936",
"~  c #884937",
"^  c #884838",
"/  c #884A3A",
"(  c #86493C",
")  c #87493D",
"_  c #864A3E",
"`  c #854B40",
"'  c #844B41",
"]  c #7F4C43",
"[  c #7A4C46",
"{  c #754D48",
"}  c #6F4E4B",
"|  c #675050",
" . c #635153",
".. c #605355",
"X. c #5E5458",
"o. c #5E575C",
"O. c #5F5A5E",
"+. c #605D61",
"@. c #626266",
"#. c #666669",
"$. c #6A6A6C",
"%. c gray44",
"&. c #717171",
"*. c #727272",
"=. c gray46",
"-. c #767676",
";. c #777777",
":. c gray47",
">. c #797979",
",. c gray48",
"<. c #7B7B7B",
"1. c #7C7C7C",
"2. c gray49",
"3. c #7E7E7E",
"4. c gray50",
"5. c #808080",
"6. c #818181",
"7. c gray51",
"8. c #838383",
"9. c #848484",
"0. c gray52",
"q. c #868686",
"w. c gray53",
"e. c #888888",
"r. c #898989",
"t. c gray54",
"y. c #8B8B8B",
"u. c #8F8D8D",
"i. c #938F8F",
"p. c #979292",
"a. c #9A9494",
"s. c #9D9595",
"d. c #9F9696",
"f. c #A09797",
"g. c #A09798",
"h. c #A19898",
"j. c #A19899",
"k. c #A19999",
"l. c #A1999A",
"z. c #A09A9A",
"x. c #9F9B9B",
"c. c #9F9B9C",
"v. c #9E9C9D",
"b. c #9E9C9D",
"n. c #9E9D9D",
"m. c #9E9D9E",
"M. c #9F9D9E",
"N. c #9F9E9E",
"B. c #9F9E9F",
"V. c #A09E9F",
"C. c #A09FA0",
"Z. c #A1A0A0",
"A. c #A1A0A1",
"S. c #A2A1A2",
"D. c #A3A2A3",
"F. c #A6A5A5",
"G. c #A7A7A7",
"H. c #A9A9A9",
"J. c #ACACAC",
"K. c #AFAFAF",
"L. c gray69",
"P. c #B1B1B1",
"I. c #B2B2B2",
"U. c gray70",
"Y. c #B3B4B3",
"T. c #B3B4B4",
"R. c #B5B5B3",
"E. c #B8B6B3",
"W. c #BDB7B2",
"Q. c #C1B9B1",
"!. c #C6BAB0",
"~. c #CCBDAE",
"^. c #D2BFAD",
"/. c #E6C5A6",
"(. c #EFC7A1",
"). c #F1C7A0",
"_. c #F3C79F",
"`. c #F6C09C",
"'. c #F6C29C",
"]. c #F6C79E",
"[. c #F4C7A0",
"{. c #F1C8A2",
"}. c #EBC9A8",
"|. c #E6C9AD",
" X c #D6C9BF",
".X c #CEC9C6",
"XX c #C9C9CD",
"oX c #C7CACF",
"OX c #C7CBD1",
"+X c #C7CBD5",
"@X c #C6CCD7",
"#X c #C6CCD8",
"$X c #C5CCD8",
"%X c #C6CCD9",
"&X c #C6CDD9",
"*X c #C6CDDA",
"=X c #C6CEDA",
"-X c #C7CEDB",
";X c #C8CEDB",
":X c #C8CFDB",
">X c #CACFDC",
",X c #CBCFDC",
"<X c #CBD0DC",
"1X c #CCD0DB",
"2X c #CCD1DD",
"3X c #CDD3DE",
"4X c #D1D6E0",
"5X c #D6DBE4",
"6X c #DDE1E9",
"7X c #E2E5EC",
"8X c #E5E9EF",
"9X c #EAEDF4",
"0X c #EDF0F7",
"qX c #F1F4FA",
"wX c #F3F5FA",
"eX c #F5F7FB",
"rX c #F8F9FC",
"tX c #F9FAFC",
"yX c #FAFBFD",
"uX c #FBFDFD",
"iX c #FCFDFE",
"pX c #FCFEFE",
"aX c #FDFEFE",
"sX c #FDFEFE",
"dX c None",
"fX c black",
"gX c black",
"hX c black",
"jX c black",
"kX c black",
"lX c black",
"zX c black",
"xX c black",
"cX c black",
"vX c black",
"bX c black",
"nX c black",
"mX c black",
"MX c black",
"NX c black",
"BX c black",
"VX c black",
"CX c black",
"ZX c black",
"AX c black",
"SX c black",
"DX c black",
"FX c black",
"GX c black",
"HX c black",
"JX c black",
"KX c black",
"LX c black",
"PX c black",
"IX c black",
"UX c black",
/* pixels */
"dXdXdXdXdXdXdXdXdXdXdXdXdXdXdXdXdXdXdXdXdXdXdXdXdXdXdXdXdXdXdXdXdXdXdXdXdXdXdXdXdXdXdXdXdXdXdXdXdXdX",
"dXdXdXdXdXdXdXdXdXdXdXdXdXdXdXdXdXdXdXdXdXdXdXdXdXdXdXdXdXdXdXdXdXdXdXdXdXdXdXdXdXdXdXdXdXdXdXdXdXdX",
"dXdXdXdXdXdXdXdXdXdXdXdXdXdXdXdXdXdXdXdXdXdXdXdXdXdXdXdXdXdXdXdXdXdXdXdXdXdXdXdXdXdXdXdXdXdXdXdXdXdX",
"dXdXdXdXdXdXdXdXdXdXdXdXdXdXdXdXdXdXdXdXdXdXdXdXdXdXdXdXdXdXdXdXdXdXdXdXdXdXdXdXdXdXdXdXdXdXdXdXdXdX",
"dXdXdXdXdXdXdXdXdXdXdXdXdXdXdXdXdXdXdXdXdXdXdXdXdXdXdXdXdXdXdXdXdXdXdXdXdXdXdXdXdXdXdXdXdXdXdXdXdXdX",
"dXdXdXdXdXdXdXdXdXdXdXdXdXdXdXdXdXdXdXdXdXdXdX: > > > z N N N v dXdXdXdXdXdXdXdXdXdXdXdXdXdXdXdXdXdX",
"dXdXdXdXdXdXdXdXdXdXdXdXdXdXdXdXdXdXdXdXdX2 4 7 9 v M A H H D V N dXdXdXdXdXdXdXdXdXdXdXdXdXdXdXdXdX",
"dXdXdXdXdXdXdXdXdXdXdXdXdXdXdXdXdXdXdXdX, 7 6 b m Z Z H Z Z H Z C v dXdXdXdXdXdXdXdXdXdXdXdXdXdXdXdX",
"dXdXdXdXdXdXdXdXdXdXdXdXdXdXdXdXdXdXdX> 7 0 v A Z H b n n n n v Z V dXdXdXdXdXdXdXdXdXdXdXdXdXdXdXdX",
"dXdXdXdXdXdXdXdXdXdXdXdXdXdXdXdXdXdX> 6 0 c Z H Z n dXdXdXdXdXdXn C v dXdXdXdXdXdXdXdXdXdXdXdXdXdXdX",
"dXdXdXdXdXdXdXdXdXdXdXdXdXdXdXdXdX> 4 4 t Z Z Z n dXdXdXdXdXdXdXdXb N dXdXdXdXdXdXdXdXdXdXdXdXdXdXdX",
"dXdXdXdXdXdXdXdXdXdXdXdXdXdXdXdXdX> 4 e f Z Z v dXdXdXdXdXdXdXdXdXdXN dXdXdXdXdXdXdXdXdXdXdXdXdXdXdX",
"dXdXdXdXdXdXdXdXdXdXdXdXdXdXdXdX> 6 6 i Z Z C dXdXdXdXdX} dXdXdX} { N dXdXdXdXdXdXdXdXdXdXdXdXdXdXdX",
"dXdXdXdXdXdXdXdXdXdXdXdXdXdXdXdX: 6 6 i Z Z C dXdXdXdX[ ] [ dX} ] [ V dXdXdXdXdXdXdXdXdXdXdXdXdXdXdX",
"dXdXdXdXdXdXdXdXdXdXdXdXdXdXdX, 4 6 6 i H H C dXdXdXdX{ { { dX} { { V dXdXdXdXdXdXdXdXdXdXdXdXdXdXdX",
"dXdXdXdXdXdXdXdXdXdXdXdXdXdXdX> 4 6 6 i A Z A dXdXdXdXdXdXdXdXdXdXdXN dXdXdXdXdXdXdXdXdXdXdXdXdXdXdX",
"dXdXdXdXdXdXdXdXdXdXdXdXdXdX> 3 6 6 6 7 y Z Z C dXdXdXdXdXdXdXdXdXdXN dXdXdXdXdXdXdXdXdXdXdXdXdXdXdX",
"dXdXdXdXdXdXdXdXdXdXdXdXdXdX, 6 6 6 6 4 t L Z Z dXdXdXdXdXdXdXdXdXN N dXdXdXdXdXdXdXdXdXdXdXdXdXdXdX",
"dXdXdXdXdXdXdXdXdXdXdXdXdXdXdX> 4 6 6 4 9 d A Z M dXdXdXdXdXdXdXu N dXdXdXdXdXdXdXdXdXdXdXdXdXdXdXdX",
"dXdXdXdXdXdXdXdXdXdXdXdXdXdXdXdX> > 4 7 4 9 d C Z C C C C C c 3 6 dXdXdXdXdXdXdXdXdXdXdXdXdXdXdXdXdX",
"dXdXdXdXdXdXdXdXdXdXdXdXdXdX' ^ ^ c ; - 4 9 4 p C f d d d d u , = dXdXdXdXdXdXdXdXdXdXdXdXdXdXdXdXdX",
"dXdXdXdXdXdXdXdXdXdXdXdXdXdX] ' ] ( ' l : 4 9 x C v u 7 4 > , : dXdXdXdXdXdXdXdXdXdXdXdXdXdXdXdXdXdX",
"dXdXdXdXdXdXdXdXdXdXdXdXdXdXdXdXx ] ] ( ] c z A H Z g f d > > dXdXdXdXdXdXdXdXdXdXdXdXdXdXdXdXdXdXdX",
"dXdXdXdXdXdXdXdXdXdXdXdXdXdXdXdXdXdXdX] ] d.d.d.W n u f z i , dXdXdXdXdXdXdXdXdXdXdXdXdXdXdXdXdXdXdX",
"dXdXdXdXdXdXdXdXdXdXdXdXdXdXdXdXdXdXdX> } [.[.[.W l 0 , c b d g dXdXdXdXdXdXdXdXdXdXdXdXdXdXdXdXdXdX",
"dXdXdXdXdXdXdXdXdXdXdXdXdXdXdXdXdXdX; 7 j /./././ ^ c d v Z H m dXdXdXdXdXdXdXdXdXdXdXdXdXdXdXdXdXdX",
"dXdXdXdXdXdXdXdXdXdXdXdXdXdXdXdXdX; 6 9 p Z Z H Z ( ( ( R L L m dXdXdXdXdXdXdXdXdXdXdXdXdXdXdXdXdXdX",
"dXdXdXdXdXdXdXdXdXdXdXdXdXdXdXdX: 4 4 p A Z H Z V f dX( Q Q R n dXdXdXdXdXdXdXdXdXdXdXdXdXdXdXdXdXdX",
"dXdXdXdXdXdXdXdXdXdXdXdXdXdXdXdX: 6 7 p Z G Z Z dXdXdXN Z R Q ] dXdXdXdXdXdXdXdXdXdXdXdXdXdXdXdXdXdX",
"dXdXdXdXdXdXdXdXdXdXdXdXdXdXdX, 2 6 d C H Z H C dXdXdXN Z Z T ^ ( ( dXdXdXdXdXdXdXdXdXdXdXdXdXdXdXdX",
"dXdXdXdXdXdXdXdXdXdXdXdXdXdX> 3 6 d C Z Z H C 9 dXdXdXN Z Z L n h ^ ( ( dXdXdXdXdXdXdXdXdXdXdXdXdXdX",
"dXdXdXdXdXdXdXdXdXdXdXdXdX: 2 6 6 f H Z Z H C dXdXdXdXV Z Z n u 4 dXdX( ( ( dXdXdXdXdXdXdXdXdXdXdXdX",
"dXdXdXdXdXdXdXdXdXdXdXdXdX> 6 6 4 g H Z Z V v dXdXdXn C Z Z v 4 2 dXdXdX' ^ ( ( [ dXdXdXdXdXdXdXdXdX",
"dXdXdXdXdXdXdXdXdXdXdXdXdX& - > 4 t g k V h dXdXdXdXn c g g u 4 2 dXdXdXdX[ v ( ( ( [ dXdXdXdXdXdXdX",
"dXdXdXdXdXdXdXdXdXdXdXdXdXdXdXdX> 6 4 t j 7.dXdXdXdXf u 6 6 6 , > dXdXdXdXdXdX] d.e.( ' ] dXdXdXdXdX",
"dXdXdXdXdXdXdXdXdXdXdXdXdXdXdXdX: > | q.5.;.dXdXdXdXq.w.%., > : dXdXdXdXdXdXdXoXoXE.l.i.( ^ ( dXdXdX",
"dXdXdXdXdXdXdXdXdXdXdXdXdXdXdXdXdXdXdXK.H.dXdXdXdXdXL.K.H.dXdXdXdXdXdXdXdXdXoX@X;X:X:XE.l.W.H.dXdXdX",
"dXdXdXdXdXdXdXdXdXdXdXdXdXdXdXdXdXdXdXdXdXdXdXdXdXdXdXdXdXdXdXdXdXdXdXdXdXdX+X:X;X;X;X3X7XeX7XdXdXdX",
"dXdXdXdXdXdXdXdXdXdXdXdXdXdXdXdXdXdXdXdXdXdXdXdXdXdXdXdXdXdXdXdXdXdXdXdX+X:X;X:X3X4X4X7XwX8XdXdXdXdX",
"dXdXdXdXdXdXdXdXdXdXdXdXdXdXdXdXdXdXdXdXdXdXdXdXdXdXdXdXdXdXdXdXdXdX;X:X:X3X3X3X0XwX0X0X6XdXdXdXdXdX",
"dXdXdXdXdXdXdXdXdXdXdXdXdXdXdXdXdXdXdXdXdXdXdXdXdXdXdXdXdXdXdXOX:X2X2X2X2XeXrXeXeX0XdXdXdXdXdXdXdXdX",
"dXdXdXdXdXdXdXdXdXdXdXdXdXdXdXdXdXdXdXdXdXdXdXdXdXdXdXdXdXXX;X:X5XiXuXyXwXwXXXdXdXdXdXdXdXdXdXdXdXdX",
"dXdXdXdXdXdXdXdXdXdXdXdXdXdXdXdXdXdXdXdXdXdXdXdXdXdXdX9XaXtXeXtXrXwXdXdXdXdXdXdXdXdXdXdXdXdXdXdXdXdX",
"dXdXdXdXdXdXdXdXdXdXdXdXdXdXdXdXdXdXdXdXdXdXdXdXdXdXdXdXQ.Q.E.XXXXdXdXdXdXdXdXdXdXdXdXdXdXdXdXdXdXdX"
};
