/* XPM */
static char *a63f486c3504419ea2271154c2f51de0_8[] = {
/* columns rows colors chars-per-pixel */
"50 44 256 2 ",
"   c #020000",
".  c #270B0B",
"X  c #300E0E",
"o  c #331011",
"O  c #371314",
"+  c #381415",
"@  c #391517",
"#  c #2D181B",
"$  c #3C1A1D",
"%  c #3D1B1F",
"&  c #3E1C20",
"*  c #401E23",
"=  c #421D23",
"-  c #441D23",
";  c #461C24",
":  c #4B1D24",
">  c #502124",
",  c #522225",
"<  c #542126",
"1  c #551C28",
"2  c #561C27",
"3  c #581B26",
"4  c #581A26",
"5  c #581A26",
"6  c #571B27",
"7  c #581B27",
"8  c #591C27",
"9  c #5B1C27",
"0  c #5C1B27",
"q  c #5D1B26",
"w  c #5C1A27",
"e  c #5E1A26",
"r  c #5F1A26",
"t  c #621925",
"y  c #641926",
"u  c #661824",
"i  c #671C28",
"p  c #69222A",
"a  c #6A252C",
"s  c #6C272E",
"d  c #6E2730",
"f  c #6E2731",
"g  c #702831",
"h  c #712832",
"j  c #732833",
"k  c #752734",
"l  c #762633",
"z  c #7A2432",
"x  c #7C2331",
"c  c #7E212F",
"v  c #7E212F",
"b  c #7F202E",
"n  c #811F2D",
"m  c #801E2C",
"M  c #861D2C",
"N  c #881D2B",
"B  c #881D2B",
"V  c #881D2B",
"C  c #881D2A",
"Z  c #881E29",
"A  c #8A1D29",
"S  c #881E29",
"D  c #871E2A",
"F  c #861D29",
"G  c #86202B",
"H  c #88202D",
"J  c #88202E",
"K  c #88222E",
"L  c #8B262E",
"P  c #882B30",
"I  c #883933",
"U  c #894235",
"Y  c #894637",
"T  c #894836",
"R  c #894836",
"E  c #894837",
"W  c #884936",
"Q  c #864937",
"!  c #854A37",
"~  c #844A38",
"^  c #834B37",
"/  c #824B37",
"(  c #814B38",
")  c #804B38",
"_  c #7F4B39",
"`  c #7F4C3B",
"'  c #7F4D3D",
"]  c #7F4E3F",
"[  c #7E4E40",
"{  c #7C4F43",
"}  c #7A5145",
"|  c #775349",
" . c #6F5A52",
".. c #6E5E58",
"X. c #6D615C",
"o. c #6C6460",
"O. c #6B6765",
"+. c #6A6A6A",
"@. c gray42",
"#. c #6C6C6C",
"$. c gray44",
"%. c gray46",
"&. c #777777",
"*. c gray47",
"=. c #7C7C7C",
"-. c #7E7E7E",
";. c gray50",
":. c #808080",
">. c #818181",
",. c gray51",
"<. c #838383",
"1. c #848484",
"2. c gray52",
"3. c #868686",
"4. c gray53",
"5. c #888888",
"6. c #898989",
"7. c gray54",
"8. c #8B8B8C",
"9. c gray55",
"0. c #8D8D8D",
"q. c #8E8E8E",
"w. c #909090",
"e. c #939292",
"r. c gray58",
"t. c gray59",
"y. c #989797",
"u. c #999898",
"i. c #9A9999",
"p. c #9B9A9A",
"a. c gray61",
"s. c #9D9C9C",
"d. c #9E9D9D",
"f. c gray62",
"g. c #9F9E9E",
"h. c #9F9F9F",
"j. c #A09F9F",
"k. c #A1A0A0",
"l. c gray63",
"z. c #A3A2A2",
"x. c #A4A3A3",
"c. c #A5A5A5",
"v. c gray65",
"b. c gray67",
"n. c #AEAEAE",
"m. c gray69",
"M. c #B1B1B1",
"N. c #B2B2B2",
"B. c #B2B2B2",
"V. c gray70",
"C. c #B3B4B4",
"Z. c #B4B5B4",
"A. c gray71",
"S. c #B8B6B5",
"D. c #BDB9B4",
"F. c #C2BBB3",
"G. c #C9BEB2",
"H. c #D0C1B1",
"J. c #DBC5AD",
"K. c #E3C7A9",
"L. c #E7C7A6",
"P. c #EAC8A4",
"I. c #ECC8A3",
"U. c #F0C8A0",
"Y. c #F3C89E",
"T. c #F5C29B",
"R. c #F6C09A",
"E. c #F5C29B",
"W. c #F3C89F",
"Q. c #E9C8AD",
"!. c #DEC9BF",
"~. c #DBC9C4",
"^. c #D9C9C8",
"/. c #D6CACB",
"(. c #CFCBD1",
"). c #C9CCD6",
"_. c #C8CCD6",
"`. c #C7CCD6",
"'. c #C6CCD6",
"]. c #C5CBD6",
"[. c #C4CAD6",
"{. c #C4CBD6",
"}. c #C4CBD6",
"|. c #C4CBD7",
" X c #C5CCD8",
".X c #C6CCD9",
"XX c #C6CEDA",
"oX c #C7CEDB",
"OX c #C7CEDD",
"+X c #C7CFDB",
"@X c #C8CFDB",
"#X c #C9CFDB",
"$X c #C9D0DC",
"%X c #CBD2DC",
"&X c #CED4DD",
"*X c #D4D9E2",
"=X c #E0E3E9",
"-X c #E8E9EE",
";X c #EDEEF2",
":X c #F2F3F5",
">X c #F7F7F8",
",X c #F9F9FA",
"<X c #FAFAFB",
"1X c #FBFBFB",
"2X c #FBFBFC",
"3X c #FBFCFD",
"4X c #FCFCFD",
"5X c #FDFDFE",
"6X c #FDFEFE",
"7X c #FEFEFE",
"8X c #FEFEFE",
"9X c None",
"0X c black",
"qX c black",
"wX c black",
"eX c black",
"rX c black",
"tX c black",
"yX c black",
"uX c black",
"iX c black",
"pX c black",
"aX c black",
"sX c black",
"dX c black",
"fX c black",
"gX c black",
"hX c black",
"jX c black",
"kX c black",
"lX c black",
"zX c black",
"xX c black",
"cX c black",
"vX c black",
"bX c black",
"nX c black",
"mX c black",
"MX c black",
"NX c black",
"BX c black",
"VX c black",
"CX c black",
"ZX c black",
"AX c black",
"SX c black",
"DX c black",
"FX c black",
"GX c black",
"HX c black",
"JX c black",
"KX c black",
"LX c black",
"PX c black",
"IX c black",
"UX c black",
/* pixels */
"9X9X9X9X9X9X9X9X9X9X9X9X9X9X9X9X9X9X9X9X9X9X9X9X9X9X9X9X9X9X9X9X9X9X9X9X9X9X9X9X9X9X9X9X9X9X9X9X9X9X",
"9X9X9X9X9X9X9X9X9X9X9X9X9X9X9X9X9X9X9X9X9X9X9X9X9X9X9X9X9X9X9X9X9X9X9X9X9X9X9X9X9X9X9X9X9X9X9X9X9X9X",
"9X9X9X9X9X9X9X9X9X9X9X9X9X9X9X9X9X9X9X9X9X9X9X9X9X9X9X9X9X9X9X9X9X9X9X9X9X9X9X9X9X9X9X9X9X9X9X9X9X9X",
"9X9X9X9X9X9X9X9X9X9X9X9X9X9X9X9X9X9X9X9X9X9X9X9X9X9X9X9X9X9X9X9X9X9X9X9X9X9X9X9X9X9X9X9X9X9X9X9X9X9X",
"9X9X9X9X9X9X9X9X9X9X9X9X9X9X9X9X9X9X9X9X9X9X9X9X9X9X9X9X9X9X9X9X9X9X9X9X9X9X9X9X9X9X9X9X9X9X9X9X9X9X",
"9X9X9X9X9X9X9X9X9X9X9X9X9X9X9X9X9X9X9X9X9X9X9X: > , , g m m m l 9X9X9X9X9X9X9X9X9X9X9X9X9X9X9X9X9X9X",
"9X9X9X9X9X9X9X9X9X9X9X9X9X9X9X9X9X9X9X9X9X1 6 3 8 l b M C C C n c 9X9X9X9X9X9X9X9X9X9X9X9X9X9X9X9X9X",
"9X9X9X9X9X9X9X9X9X9X9X9X9X9X9X9X9X9X9X9X, 8 7 z c D C C Z Z D D n l 9X9X9X9X9X9X9X9X9X9X9X9X9X9X9X9X",
"9X9X9X9X9X9X9X9X9X9X9X9X9X9X9X9X9X9X9X, 8 8 l D C C z x x x x l D n 9X9X9X9X9X9X9X9X9X9X9X9X9X9X9X9X",
"9X9X9X9X9X9X9X9X9X9X9X9X9X9X9X9X9X9X> 7 9 l D Z D x 9X9X9X9X9X9Xz F z 9X9X9X9X9X9X9X9X9X9X9X9X9X9X9X",
"9X9X9X9X9X9X9X9X9X9X9X9X9X9X9X9X9X: 6 7 e D D D x 9X9X9X9X9X9X9X9Xz n 9X9X9X9X9X9X9X9X9X9X9X9X9X9X9X",
"9X9X9X9X9X9X9X9X9X9X9X9X9X9X9X9X9X> 7 q s C D z 9X9X9X9X9X9X9X9X9X9Xn 9X9X9X9X9X9X9X9X9X9X9X9X9X9X9X",
"9X9X9X9X9X9X9X9X9X9X9X9X9X9X9X9X> 8 7 y Z C G 9X9X9X9X| | 9X9X9X .| m 9X9X9X9X9X9X9X9X9X9X9X9X9X9X9X",
"9X9X9X9X9X9X9X9X9X9X9X9X9X9X9X9X> 8 7 y Z D G 9X9X9X9X|  .| 9X|  .| n 9X9X9X9X9X9X9X9X9X9X9X9X9X9X9X",
"9X9X9X9X9X9X9X9X9X9X9X9X9X9X9X< 7 8 8 y C C G 9X9X9X9X|  . .9X|  .| n 9X9X9X9X9X9X9X9X9X9X9X9X9X9X9X",
"9X9X9X9X9X9X9X9X9X9X9X9X9X9X9X> 7 8 7 y G C G 9X9X9X9X9X9X9X9X9X9X9Xm 9X9X9X9X9X9X9X9X9X9X9X9X9X9X9X",
"9X9X9X9X9X9X9X9X9X9X9X9X9X9X> 2 7 8 8 7 r D Z n 9X9X9X9X9X9X9X9X9X9Xm 9X9X9X9X9X9X9X9X9X9X9X9X9X9X9X",
"9X9X9X9X9X9X9X9X9X9X9X9X9X9X, 7 7 8 8 6 q M Z D 9X9X9X9X9X9X9X9X9Xm n 9X9X9X9X9X9X9X9X9X9X9X9X9X9X9X",
"9X9X9X9X9X9X9X9X9X9X9X9X9X9X9X, 8 8 7 6 8 i G D b 9X9X9X9X9X9X9Xr m 9X9X9X9X9X9X9X9X9X9X9X9X9X9X9X9X",
"9X9X9X9X9X9X9X9X9X9X9X9X9X9X9X9X< > 8 7 6 8 i F D n G G G G l 2 7 9X9X9X9X9X9X9X9X9X9X9X9X9X9X9X9X9X",
"9X9X9X9X9X9X9X9X9X9X9X9X9X9X9X9X9X9X: : 7 8 7 y n d i i i i t , : 9X9X9X9X9X9X9X9X9X9X9X9X9X9X9X9X9X",
"9X9X9X9X9X9X9X9X9X9X9X9X9X9X_ ~ ! ( 9X9X: 7 8 h G z t 7 7 , < : 9X9X9X9X9X9X9X9X9X9X9X9X9X9X9X9X9X9X",
"9X9X9X9X9X9X9X9X9X9X9X9X9X9Xk _ ) ~ _ _ 9X8 j F C C p s i , > 9X9X9X9X9X9X9X9X9X9X9X9X9X9X9X9X9X9X9X",
"9X9X9X9X9X9X9X9X9X9X9X9X9X9X9X9Xj / ) ) ] e.y.y.U z t a h t 1 9X9X9X9X9X9X9X9X9X9X9X9X9X9X9X9X9X9X9X",
"9X9X9X9X9X9X9X9X9X9X9X9X9X9X9X9X9X9Xa l { W.Y.W.E g s a z z i p 9X9X9X9X9X9X9X9X9X9X9X9X9X9X9X9X9X9X",
"9X9X9X9X9X9X9X9X9X9X9X9X9X9X9X9X9X9X: 6 s L.L.L.E ~ Q Q I P P x 9X9X9X9X9X9X9X9X9X9X9X9X9X9X9X9X9X9X",
"9X9X9X9X9X9X9X9X9X9X9X9X9X9X9X9X9X: 7 8 y D Z C D d 9X/ U U Y _ 9X9X9X9X9X9X9X9X9X9X9X9X9X9X9X9X9X9X",
"9X9X9X9X9X9X9X9X9X9X9X9X9X9X9X9X: 7 6 y G C C C n 9X9Xm C C P Q Q ! / 9X9X9X9X9X9X9X9X9X9X9X9X9X9X9X",
"9X9X9X9X9X9X9X9X9X9X9X9X9X9X9X9X: 8 7 y C Z Z D 9X9X9Xn Z Z C x 9X9X! ~ ~ ~ g 9X9X9X9X9X9X9X9X9X9X9X",
"9X9X9X9X9X9X9X9X9X9X9X9X9X9X9X> 2 7 i n C Z D G 9X9X9Xn Z Z Z x 9X9X9X9X9X~ ( / ( / _ 9X9X9X9X9X9X9X",
"9X9X9X9X9X9X9X9X9X9X9X9X9X9X> 6 7 i n Z Z C G 2 9X9X9Xn Z Z Z z 1 9X9X9X9X9X9X9XA.i.Q Q ! ! ! ' 9X9X",
"9X9X9X9X9X9X9X9X9X9X9X9X9X: 1 8 8 p C Z Z C G 9X9X9X9Xn Z Z x t 6 9X9X9X9X9X9X9X[.[.S.S.S.[.-X-X9X9X",
"9X9X9X9X9X9X9X9X9X9X9X9X9X> 8 8 7 p C Z Z n l 9X9X9Xz n C Z l 7 6 9X9X9X9X9X9X#XXX@X+X@X*X:X:X1X9X9X",
"9X9X9X9X9X9X9X9X9X9X9X9X9X; : , 7 0 i d n i 9X# # 9Xx l p p t 7 1 9X9X9X9X9X9X#X+X+X@X*X:X>X=X9X9X9X",
"9X9X9X9X9X9X9X9X9X9X9X9X9X9X9X9X> 7 7 e d -.# # # 9Xs t 7 7 7 , : 9X9X9X9X9X]..X+X+X*X:X:X2X9X9X9X9X",
"9X9X9X9X9X9X9X9X9X9X9X9X9X9X9X9X: >  .3.;.&.9X# # 9X2.3.#.> > : 9X9X9X9X9X).[.oX+X*X:X>X=X9X9X9X9X9X",
"9X9X9X9X9X9X9X9X9X9X9X9X9X9X9X9X9X9X9Xm.b.9X9X9X9X9Xm.m.b.9X9X9X9X9X9X9X[.XX+X*X=X;X:X:X9X9X9X9X9X9X",
"9X9X9X9X9X9X9X9X9X9X9X9X9X9X9X9X9X9X9X9X9X9X9X9X9X9X9X9X9X9X9X9X9X9X9X9X[.+X*X:X:X;X*X9X9X9X9X9X9X9X",
"9X9X9X9X9X9X9X9X9X9X9X9X9X9X9X9X9X9X9X9X9X9X9X9X9X9X9X9X9X9X9X9X9X9X9X.X*X*X,X>X=X9X9X9X9X9X9X9X9X9X",
"9X9X9X9X9X9X9X9X9X9X9X9X9X9X9X9X9X9X9X9X9X9X9X9X9X9X9X9X9X9X9X9X9X9X&X&X,X:X:X;X9X9X9X9X9X9X9X9X9X9X",
"9X9X9X9X9X9X9X9X9X9X9X9X9X9X9X9X9X9X9X9X9X9X9X9X9X9X9X9X9X9X9X9X9X&X5X>X>X9X9X9X9X9X9X9X9X9X9X9X9X9X",
"9X9X9X9X9X9X9X9X9X9X9X9X9X9X9X9X9X9X9X9X9X9X9X9X9X9X9X9X9X9X:X,X<X4X,X9X9X9X9X9X9X9X9X9X9X9X9X9X9X9X",
"9X9X9X9X9X9X9X9X9X9X9X9X9X9X9X9X9X9X9X9X9X9X9X9X9X9X9X9X9X9X9X9X9X9X9X9X9X9X9X9X9X9X9X9X9X9X9X9X9X9X",
"9X9X9X9X9X9X9X9X9X9X9X9X9X9X9X9X9X9X9X9X9X9X9X9X9X9X9X9X9X9X9X9X9X9X9X9X9X9X9X9X9X9X9X9X9X9X9X9X9X9X"
};
