/* XPM */
static char *a63f486c3504419ea2271154c2f51de0_9[] = {
/* columns rows colors chars-per-pixel */
"50 44 256 2 ",
"   c black",
".  c #191112",
"X  c #2E1115",
"o  c #34171B",
"O  c #3F1B21",
"+  c #411E24",
"@  c #421E24",
"#  c #441D23",
"$  c #461B23",
"%  c #471B22",
"&  c #491A21",
"*  c #4B1A20",
"=  c #4C1B21",
"-  c #4D1C22",
";  c #4F1F23",
":  c #512124",
">  c #542426",
",  c #572527",
"<  c #572328",
"1  c #572029",
"2  c #571E29",
"3  c #571D29",
"4  c #561C28",
"5  c #561C27",
"6  c #561C28",
"7  c #571B28",
"8  c #571B28",
"9  c #581B27",
"0  c #581A27",
"q  c #591A27",
"w  c #5A1A26",
"e  c #5A1A26",
"r  c #5A1926",
"t  c #5C1926",
"y  c #5F1926",
"u  c #611926",
"i  c #641824",
"p  c #671B28",
"a  c #6B1E2A",
"s  c #6A202C",
"d  c #6C242E",
"f  c #6D2630",
"g  c #6E2731",
"h  c #6F2831",
"j  c #6F2832",
"k  c #712832",
"l  c #722733",
"z  c #772633",
"x  c #7A2432",
"c  c #7D2231",
"v  c #7D2230",
"b  c #7E2130",
"n  c #7F212F",
"m  c #811F2D",
"M  c #831E2D",
"N  c #861D2B",
"B  c #881D2A",
"V  c #8A1C29",
"C  c #881D2A",
"Z  c #871E29",
"A  c #871E29",
"S  c #861E29",
"D  c #861E28",
"F  c #871F2D",
"G  c #881F2D",
"H  c #88202D",
"J  c #88212D",
"K  c #88222D",
"L  c #88242E",
"P  c #89282D",
"I  c #882F31",
"U  c #873C36",
"Y  c #894439",
"T  c #88473B",
"R  c #89493A",
"E  c #8A4939",
"W  c #8A4938",
"Q  c #8A4837",
"!  c #8A4837",
"~  c #8A4836",
"^  c #894836",
"/  c #884835",
"(  c #884835",
")  c #874835",
"_  c #874835",
"`  c #864836",
"'  c #864936",
"]  c #854937",
"[  c #844B38",
"{  c #834B38",
"}  c #834C3D",
"|  c #7E5041",
" . c #795549",
".. c #76584E",
"X. c #6C5C55",
"o. c #726059",
"O. c #70635E",
"+. c #6F6662",
"@. c #6E6967",
"#. c #6D6D6D",
"$. c gray44",
"%. c #717171",
"&. c gray45",
"*. c gray47",
"=. c #7B7A7A",
"-. c #7D7C7C",
";. c #7F7E7E",
":. c #818080",
">. c #828181",
",. c #848282",
"<. c #858383",
"1. c #868484",
"2. c #878585",
"3. c #878686",
"4. c #898686",
"5. c #898787",
"6. c #8A8787",
"7. c #8A8888",
"8. c #8A8888",
"9. c #8B8989",
"0. c #8B8989",
"q. c #8B8989",
"w. c #8C8A8A",
"e. c #8D8B8C",
"r. c #8F8D8D",
"t. c #908E8E",
"y. c #919090",
"u. c #939191",
"i. c #959393",
"p. c #969595",
"a. c #989797",
"s. c #9A9999",
"d. c #9C9B9C",
"f. c #9D9B9C",
"g. c #9D9C9D",
"h. c #9E9C9D",
"j. c #9E9D9D",
"k. c #9E9D9E",
"l. c #9F9D9E",
"z. c #9F9E9E",
"x. c #9F9E9F",
"c. c #A09E9F",
"v. c #A09FA0",
"b. c #A1A0A0",
"n. c #A4A3A3",
"m. c gray65",
"M. c #A9A8A8",
"N. c #AAAAAA",
"B. c #AFAFAF",
"V. c #B2B2B2",
"C. c #B6B3B1",
"Z. c #BCB7B4",
"A. c #D4BCAC",
"S. c #E7C4A5",
"D. c #EEC8A1",
"F. c #F2CA9E",
"G. c #F4C59E",
"H. c #F5C19F",
"J. c #F6C2A0",
"K. c #F8C7A4",
"L. c #F9C7A4",
"P. c #F9C6A4",
"I. c #FAC6A4",
"U. c #FAC6A4",
"Y. c #FBC6A5",
"T. c #F9C6A8",
"R. c #F1C7AF",
"E. c #DFC9BE",
"W. c #D9C9C3",
"Q. c #D0C9C8",
"!. c #CBC8CC",
"~. c #C7C8CE",
"^. c #C6C8CF",
"/. c #C6C9D0",
"(. c #C7CAD0",
"). c #C8CBD1",
"_. c #C7CBD2",
"`. c #C7CCD2",
"'. c #C8CCD2",
"]. c #C9CCD3",
"[. c #CACDD3",
"{. c #CACDD5",
"}. c #CACDD6",
"|. c #C8CDD7",
" X c #C7CED9",
".X c #C7CEDA",
"XX c #C7CFDB",
"oX c #C6CFDB",
"OX c #C6CFDB",
"+X c #C7CFDC",
"@X c #C7CFDC",
"#X c #C8D0DC",
"$X c #C8CFDD",
"%X c #C9CFDD",
"&X c #C9D0DD",
"*X c #C9D0DD",
"=X c #CAD1DE",
"-X c #CBD2DE",
";X c #CDD3DF",
":X c #D1D6E0",
">X c #D3D7E1",
",X c #D5D9E2",
"<X c #D7DAE3",
"1X c #D9DCE4",
"2X c #DADDE5",
"3X c #DEE0E6",
"4X c #E0E2E8",
"5X c #E1E3E8",
"6X c #E6E8ED",
"7X c #EAECF1",
"8X c #EDEFF4",
"9X c #F1F3F6",
"0X c #F3F6F8",
"qX c #F6F8FB",
"wX c #F7FAFC",
"eX c #F8FCFD",
"rX c #F9FDFE",
"tX c #FAFDFE",
"yX c #FAFEFE",
"uX c #FBFEFE",
"iX c #FBFEFE",
"pX c #FCFDFE",
"aX c #FDFDFE",
"sX c #FEFDFD",
"dX c #FEFDFD",
"fX c None",
"gX c black",
"hX c black",
"jX c black",
"kX c black",
"lX c black",
"zX c black",
"xX c black",
"cX c black",
"vX c black",
"bX c black",
"nX c black",
"mX c black",
"MX c black",
"NX c black",
"BX c black",
"VX c black",
"CX c black",
"ZX c black",
"AX c black",
"SX c black",
"DX c black",
"FX c black",
"GX c black",
"HX c black",
"JX c black",
"KX c black",
"LX c black",
"PX c black",
"IX c black",
"UX c black",
/* pixels */
"fXfXfXfXfXfXfXfXfXfXfXfXfXfXfXfXfXfXfXfXfXfXfXfXfXfXfXfXfXfXfXfXfXfXfXfXfXfXfXfXfXfXfXfXfXfXfXfXfXfX",
"fXfXfXfXfXfXfXfXfXfXfXfXfXfXfXfXfXfXfXfXfXfXfXfXfXfXfXfXfXfXfXfXfXfXfXfXfXfXfXfXfXfXfXfXfXfXfXfXfXfX",
"fXfXfXfXfXfXfXfXfXfXfXfXfXfXfXfXfXfXfXfXfXfXfXfXfXfXfXfXfXfXfXfXfXfXfXfXfXfXfXfXfXfXfXfXfXfXfXfXfXfX",
"fXfXfXfXfXfXfXfXfXfXfXfXfXfXfXfXfXfXfXfXfXfXfXfXfXfXfXfXfXfXfXfXfXfXfXfXfXfXfXfXfXfXfXfXfXfXfXfXfXfX",
"fXfXfXfXfXfXfXfXfXfXfXfXfXfXfXfXfXfXfXfXfXfXfXfXfXfXfXfXfXfXfXfXfXfXfXfXfXfXfXfXfXfXfXfXfXfXfXfXfXfX",
"fXfXfXfXfXfXfXfXfXfXfXfXfXfXfXfXfXfXfXfXfXfXfX; : : : h m m n z fXfXfXfXfXfXfXfXfXfXfXfXfXfXfXfXfXfX",
"fXfXfXfXfXfXfXfXfXfXfXfXfXfXfXfXfXfXfXfXfX5 7 9 q z n M Z B B m v fXfXfXfXfXfXfXfXfXfXfXfXfXfXfXfXfX",
"fXfXfXfXfXfXfXfXfXfXfXfXfXfXfXfXfXfXfXfX5 9 9 x v N Z B Z Z Z Z M z fXfXfXfXfXfXfXfXfXfXfXfXfXfXfXfX",
"fXfXfXfXfXfXfXfXfXfXfXfXfXfXfXfXfXfXfX: 9 q z N Z B x v v v v z Z m fXfXfXfXfXfXfXfXfXfXfXfXfXfXfXfX",
"fXfXfXfXfXfXfXfXfXfXfXfXfXfXfXfXfXfX; 7 w z Z Z Z v fXfXfXfXfXfXx M x fXfXfXfXfXfXfXfXfXfXfXfXfXfXfX",
"fXfXfXfXfXfXfXfXfXfXfXfXfXfXfXfXfX- 7 7 t Z Z Z v fXfXfXfXfXfXfXfXx m fXfXfXfXfXfXfXfXfXfXfXfXfXfXfX",
"fXfXfXfXfXfXfXfXfXfXfXfXfXfXfXfXfX- 7 t a Z N x fXfXfXfXfXfXfXfXfXfXm fXfXfXfXfXfXfXfXfXfXfXfXfXfXfX",
"fXfXfXfXfXfXfXfXfXfXfXfXfXfXfXfX- 4 4 i B B M fXfXfXfXfX .fXfXfX..| n fXfXfXfXfXfXfXfXfXfXfXfXfXfXfX",
"fXfXfXfXfXfXfXfXfXfXfXfXfXfXfXfX- 4 4 i B Z M fXfXfXfX . . .fX ... .m fXfXfXfXfXfXfXfXfXfXfXfXfXfXfX",
"fXfXfXfXfXfXfXfXfXfXfXfXfXfXfX; 7 4 4 i B B M fXfXfXfX .....fX.... .m fXfXfXfXfXfXfXfXfXfXfXfXfXfXfX",
"fXfXfXfXfXfXfXfXfXfXfXfXfXfXfX: 7 4 4 i N Z N fXfXfXfXfXfXfXfXfXfXfXn fXfXfXfXfXfXfXfXfX .} } | fXfX",
"fXfXfXfXfXfXfXfXfXfXfXfXfXfX: 5 7 4 4 9 y Z B M fXfXfXfXfXfXfXfXfXfXm fXfXfXfXfXfXfX} ] ,.|. X0XfXfX",
"fXfXfXfXfXfXfXfXfXfXfXfXfXfX: 7 7 4 4 4 t N Z Z fXfXfXfXfXfXfXfXfXn m fXfXfXfX} ' ] ' u._.+X-XpXfXfX",
"fXfXfXfXfXfXfXfXfXfXfXfXfXfXfX: 7 4 4 7 q p N Z n fXfXfXfXfXfXfXu m fXfX{ { { ] z V.^.^.+X+X-XpXfXfX",
"fXfXfXfXfXfXfXfXfXfXfXfXfXfXfXfX> ; 9 9 7 q p M Z M N N N N z 5 q h ' ' ) / { [ fX|.+X+X+X+X-XpXfXfX",
"fXfXfXfXfXfXfXfXfXfXfXfXfXfXfXfXfXfX- = 9 9 9 i M a p p p p h x z { ] l z z fXfXfX|.+X+X+X:X6X5XfXfX",
"fXfXfXfXfXfXfXfXfXfXfXfXfXfXfXfXfXfXfXfX; 7 9 k N x u 7 d z { { } } | fXfXfXfXfXfX|.+X+X+X,X9XfXfXfX",
"fXfXfXfXfXfXfXfXfXfXfXfXfXfXfXfXfXfXfXfXfXw k N B I x z { { k z fXfXfXfXfXfXfXfXZ./.+X+X:X5X5XfXfXfX",
"fXfXfXfXfXfXfXfXfXfXfXfXfXfXfXfXfXfXfXfX; y i.i.E ) { z U l : fXfXfXfXfXfXfXfXfX^.+X+X+X1X6XfXfXfXfX",
"fXfXfXfXfXfXfXfXfXfXfXfXfXfXfXfXfXfXfX> f k F.F.E x p 5 l x s s fXfXfXfXfXfXfXfX^.+X+X+X1X6XfXfXfXfX",
"fXfXfXfXfXfXfXfXfXfXfXfXfXfXfXfXfXfXf k / E F.F.} 5 fX5 l B Z v fXfXfXfXfXfXfXfX^.+X+X;X,X7XfXfXfXfX",
"fXfXfXfXfXfXfXfXfXfXfXfXfXfXfXfXfX{ ) ] U I S.S.E a fXt z Z Z v fXfXfXfXfXfXfXfX^.+X-X<X5XfXfXfXfXfX",
"fXfXfXfXfXfXfXfXfXfXfXfXfXfXfX| ] ` x i Z Z Z N M fXfXn N B Z v fXfXfXfXfXfXfX X+X+X5XqXfXfXfXfXfXfX",
"fXfXfXfXfXfXfXfXfXfXfXfXfXfXfXfX= 9 9 i Z B Z Z fXfXfXm B B B v fXfXfXfXfXfXfX.X+X#X6XqXfXfXfXfXfXfX",
"fXfXfXfXfXfXfXfXfXfXfXfXfXfXfX: 5 9 p M B Z Z M fXfXfXm B B B v fXfXfXfXfXfXfX.X+X6XpXqXfXfXfXfXfXfX",
"fXfXfXfXfXfXfXfXfXfXfXfXfXfX: 5 7 p M B B Z N q fXfXfXm B B B x 5 fXfXfXfXfX^..X7XeX5XfXfXfXfXfXfXfX",
"fXfXfXfXfXfXfXfXfXfXfXfXfX; 5 7 7 a B B B B M fXfXfXfXm B B x u 5 fXfXfXfXfX/.6XwX8XfXfXfXfXfXfXfXfX",
"fXfXfXfXfXfXfXfXfXfXfXfXfX; 7 7 7 s B B B M z fXfXfXx M B B z 7 5 fXfXfXfX|..X8X8XfXfXfXfXfXfXfXfXfX",
"fXfXfXfXfXfXfXfXfXfXfXfXfX$ ; : 7 t p h M s fXfXfXfXx z p p u 7 5 fXfXfX^.XX7X6XfXfXfXfXfXfXfXfXfXfX",
"fXfXfXfXfXfXfXfXfXfXfXfXfXfXfXfX; 7 7 t f ,.. . . fXa u 7 7 7 : - fXfXfX/.6X7XfXfXfXfXfXfXfXfXfXfXfX",
"fXfXfXfXfXfXfXfXfXfXfXfXfXfXfXfX= ; X.4.:.*.fX. . fX4.4.+.; ; = fXfXfX|.4X6XfXfXfXfXfXfXfXfXfXfXfXfX",
"fXfXfXfXfXfXfXfXfXfXfXfXfXfXfXfXfXfXfXB.M.fXfXfXfXfXB.B.N.fXfXfXfXfXfX3X7XfXfXfXfXfXfXfXfXfXfXfXfXfX",
"fXfXfXfXfXfXfXfXfXfXfXfXfXfXfXfXfXfXfXfXfXfXfXfXfXfXfXfXfXfXfXfXfXfX1X6XfXfXfXfXfXfXfXfXfXfXfXfXfXfX",
"fXfXfXfXfXfXfXfXfXfXfXfXfXfXfXfXfXfXfXfXfXfXfXfXfXfXfXfXfXfXfXfXfXfXqXfXfXfXfXfXfXfXfXfXfXfXfXfXfXfX",
"fXfXfXfXfXfXfXfXfXfXfXfXfXfXfXfXfXfXfXfXfXfXfXfXfXfXfXfXfXfXfXfXfXfXfXfXfXfXfXfXfXfXfXfXfXfXfXfXfXfX",
"fXfXfXfXfXfXfXfXfXfXfXfXfXfXfXfXfXfXfXfXfXfXfXfXfXfXfXfXfXfXfXfXfXfXfXfXfXfXfXfXfXfXfXfXfXfXfXfXfXfX",
"fXfXfXfXfXfXfXfXfXfXfXfXfXfXfXfXfXfXfXfXfXfXfXfXfXfXfXfXfXfXfXfXfXfXfXfXfXfXfXfXfXfXfXfXfXfXfXfXfXfX",
"fXfXfXfXfXfXfXfXfXfXfXfXfXfXfXfXfXfXfXfXfXfXfXfXfXfXfXfXfXfXfXfXfXfXfXfXfXfXfXfXfXfXfXfXfXfXfXfXfXfX",
"fXfXfXfXfXfXfXfXfXfXfXfXfXfXfXfXfXfXfXfXfXfXfXfXfXfXfXfXfXfXfXfXfXfXfXfXfXfXfXfXfXfXfXfXfXfXfXfXfXfX"
};
