/* XPM */
static char *ced76990d5144ca1a15aad34e6f0c243_0[] = {
/* columns rows colors chars-per-pixel */
"50 50 16 1 ",
"  c black",
". c #F80000",
"X c #F80606",
"o c #0000D0",
"O c #2E2ED8",
"+ c #F8F8F8",
"@ c #F30105",
"# c #2D01AB",
"$ c #F8F2F2",
"% c #F30004",
"& c black",
"* c black",
"= c black",
"- c black",
"; c black",
": c black",
/* pixels */
"                                                  ",
"                                                  ",
"                                                  ",
"                                                  ",
"                                                  ",
"                                                  ",
"                                                  ",
"                                                  ",
"                                                  ",
"                                                  ",
"                    @@@@@@@@@                     ",
"                    @XXXXXXXX@                    ",
"                    @XXXXXXXX@                    ",
"               @XXXXXX.....XXXXXXX                ",
"               @XXXXXX.....XXXXXXX                ",
"             @XXXX..............XXXX@             ",
"             @XXXX..............XXXX@             ",
"           @@@XX..$$$$X.........$$$$$@@           ",
"           XXXX...++++$.........++++$XX           ",
"           XXXXXXX++++$XX....XXX++++$XX           ",
"           XX..$+++++++++....$+++++++++           ",
"           XX..$+++++++++....$+++++++++           ",
"           XX..$++++Ooooo....$++++OooOO           ",
"           XX..$++++Ooooo....$++++OooOO           ",
"         @@XX..$++++Ooooo....$++++OooOO@@         ",
"        @XXXX..$++++Ooooo....$++++OooOOXX@        ",
"        @XXXX..X$$++OOO##....X$$++OOO##XX@        ",
"        @XX.......++++$.........++++$..XX@        ",
"        @XX.......++++$.........++++$..XX@        ",
"        @XX............................XX@        ",
"        @XX............................XX@        ",
"        @XX............................XX@        ",
"        @XX............................XX@        ",
"        @XX............................XX@        ",
"        @XXXXXXXXX..XXXXXXXXX...XXXXXXXXX@        ",
"        @XXXXXXXXX..XXXXXXXXX...XXXXXXXXX@        ",
"        @XXXX  @XXXXXX@    @XXXXXX   XXXX@        ",
"        @XXXX  @XXXXXX@    @XXXXXX   XXXX@        ",
"        @X@@@   @@XXXX@    @XXXX@@   @@XX@        ",
"        @X@       XXXX@    @XXXX       XX@        ",
"        @X@       XXXX@    @XXXX       XX@        ",
"                                                  ",
"                                                  ",
"                                                  ",
"                                                  ",
"                                                  ",
"                                                  ",
"                                                  ",
"                                                  ",
"                                                  "
};
