/* XPM */
static char *ced76990d5144ca1a15aad34e6f0c243_3[] = {
/* columns rows colors chars-per-pixel */
"29 15 16 1 ",
"  c black",
". c #F80000",
"X c #F80606",
"o c #0000D0",
"O c #2E2ED8",
"+ c #F8F8F8",
"@ c #F30105",
"# c #2D01AB",
"$ c #F8F2F2",
"% c #F30004",
"& c black",
"* c black",
"= c black",
"- c black",
"; c black",
": c black",
/* pixels */
" %%@X.....................%%%",
" ..XX........................",
" ..XXXXXXXX........XXXXXX....",
" XX..$++++X........$++++X....",
" XX..$++++X........$++++X....",
" %%$++++++++$....$++++++++$..",
" %%$++++++++$....$++++++++$..",
"%%%$++++++++$....$++++++++$..",
".%%$++++++++$....$++++++++$..",
".%%$+$$$$$$+$....$+$$$$$$+$..",
"...$+Ooooo$+$....$+Ooooo$+$..",
"...$+Ooooo$+$....$+Ooooo$+$..",
".....#oooo@........#oooo@....",
".....#oooo@........#oooo@....",
".....@####@........@####@...."
};
