/* XPM */
static char *_a1bf15841b04fa0ae28d2a9f960aaec_0[] = {
/* columns rows colors chars-per-pixel */
"50 50 256 2 ",
"   c #040204",
".  c #74820C",
"X  c #A4C204",
"o  c #344204",
"O  c #CCE20C",
"+  c #8CA214",
"@  c #D4F204",
"#  c #14220C",
"$  c #BCD604",
"%  c #9CB20C",
"&  c #E4F20C",
"*  c #445204",
"=  c #34320C",
"-  c #5C7204",
";  c #B4C614",
":  c #ACBE04",
">  c #0C1204",
",  c #BCD22C",
"<  c #44420C",
"1  c #CCE224",
"2  c #7C8614",
"3  c #2C3204",
"4  c #C4DA04",
"5  c #E4FA04",
"6  c #DCF21C",
"7  c #646A0C",
"8  c #9CB224",
"9  c #1C1A0C",
"0  c #94AA1C",
"q  c #DCFA04",
"w  c #BCC22C",
"e  c #748A04",
"r  c #A4C21C",
"t  c #3C4A04",
"y  c #CCEA0C",
"u  c #6C7214",
"i  c #E4FA24",
"p  c #343A0C",
"a  c #1C2A04",
"s  c #9CBA04",
"d  c #445E04",
"f  c #141A0C",
"g  c #444A0C",
"h  c #CCDA14",
"j  c #94AA04",
"k  c #5C6A0C",
"l  c #DCF20C",
"z  c #CCD21C",
"x  c #ACB634",
"c  c #D4EA24",
"v  c #040A04",
"b  c #34461C",
"n  c #8C9A0C",
"m  c #2C3A04",
"M  c #ECFE09",
"N  c #B4CE27",
"B  c #CCEA14",
"V  c #6C722C",
"C  c #343A1C",
"Z  c #6C8224",
"A  c #BCD214",
"S  c #7C8A2C",
"D  c #9CAE10",
"F  c #ACCA11",
"G  c #242208",
"H  c #A4B21C",
"J  c #141207",
"K  c #BCDA15",
"L  c #6C6E2E",
"P  c #545E0C",
"I  c #4C4A18",
"U  c #94B214",
"Y  c #E4F21C",
"T  c #BCCE17",
"R  c #7C8E0F",
"E  c #E4FA14",
"W  c #241E04",
"Q  c #9CAA1C",
"!  c #DCFA14",
"~  c #748A24",
"^  c #6C7A04",
"/  c #94AA14",
"(  c #ACBE2C",
")  c #0C0A05",
"_  c #BCCA2C",
"`  c #C4D21C",
"'  c #ACC204",
"]  c #CCE21C",
"[  c #D4F214",
"{  c #1C2208",
"}  c #647204",
"|  c #CCD224",
" . c #D4E626",
".. c #2C3214",
"X. c #646A1C",
"o. c #A4BA24",
"O. c #1C1A14",
"+. c #748A14",
"@. c #ACC21F",
"#. c #344A14",
"$. c #D4EA0C",
"%. c #ECFA24",
"&. c #242A04",
"*. c #A4BA07",
"=. c #4C5A06",
"-. c #444A1C",
";. c #DCF214",
":. c #DCEA34",
">. c #3C421C",
",. c #8C9A24",
"<. c #C4DA15",
"1. c #747E0F",
"2. c #748214",
"3. c #3C420C",
"4. c #7C9217",
"5. c #ACBA24",
"6. c #44461C",
"7. c #7C8A1C",
"8. c #E4FE06",
"9. c #A4B23C",
"0. c #747E1C",
"q. c #ACBE3C",
"w. c #2C3A1C",
"e. c #94A604",
"r. c #949A2C",
"t. c #CCDA2C",
"y. c #84960C",
"u. c #A4B624",
"i. c #D4EA15",
"p. c #74821F",
"a. c #E4F214",
"s. c #34361C",
"d. c #141A14",
"f. c #5C6A14",
"g. c #545A1C",
"h. c #9CAA2C",
"j. c #6C7E14",
"k. c #ACC614",
"l. c #647214",
"z. c #D4E234",
"x. c #242E14",
"c. c #54620C",
"v. c #848A24",
"b. c #9CB218",
"n. c #3C4A1C",
"m. c #B4BE44",
"M. c #A4C214",
"N. c #ECFE14",
"B. c #ACCA1C",
"V. c #B4BE2C",
"C. c #4C5614",
"Z. c #040604",
"A. c #748604",
"S. c #CCE614",
"D. c #D4F604",
"F. c #9CB604",
"G. c #E4F604",
"H. c #343614",
"J. c #B4CA10",
"K. c #44460C",
"L. c #CCE62C",
"P. c #7C8A0F",
"I. c #2C3606",
"U. c #646E04",
"Y. c #1C1E07",
"T. c #DCFE04",
"R. c #BCC630",
"E. c #748E0C",
"W. c #E4FE1C",
"Q. c #343E0B",
"!. c #141E07",
"~. c #444E14",
"^. c #CCDE18",
"/. c #94AE08",
"(. c #5C6E09",
"). c #DCF604",
"_. c #2C3E04",
"`. c #343E1C",
"'. c #BCD614",
"]. c #141608",
"[. c #E4F624",
"{. c #9CAE1D",
"}. c #6C7E0C",
"|. c #0C0E06",
" X c #3C3E17",
".X c #C4D61C",
"XX c #1C2607",
"oX c #647604",
"OX c #CCD62C",
"+X c #646E16",
"@X c #ACC61C",
"#X c #D4EE0A",
"$X c #ECFE1C",
"%X c #A4BE08",
"&X c #4C5E05",
"*X c #DCEE30",
"=X c #3C461B",
"-X c #C4DE1C",
";X c #3C460B",
":X c #ACBE24",
">X c #949E34",
",X c #D4EE1C",
"<X c #748624",
"1X c #C4DE04",
"2X c #A4C61C",
"3X c #CCEE0C",
"4X c #CCD61C",
"5X c #040E04",
"6X c #5C660C",
"7X c #E4FE14",
"8X c #DCFE14",
"9X c #94AE14",
"0X c #CCE61C",
"qX c #D4F614",
"wX c #1C1E14",
"eX c #748E14",
"rX c #242E04",
"tX c #DCF614",
"yX c #748614",
"uX c #04020C",
"iX c #A4C20C",
"pX c #D4F20C",
"aX c #BCD60C",
"sX c #444214",
"dX c #E4FA0C",
"fX c #DCF224",
"gX c #9CB22C",
"hX c #DCFA0C",
"jX c #748A0C",
"kX c #3C4A0C",
"lX c #444A14",
"zX c #CCDA1C",
"xX c #94AA0C",
"cX c #D4EA2C",
"vX c #2C3A0C",
"bX c black",
"nX c black",
"mX c black",
"MX c black",
"NX c black",
"BX c black",
"VX c black",
"CX c black",
"ZX c black",
"AX c black",
"SX c black",
"DX c black",
"FX c black",
"GX c black",
"HX c black",
"JX c black",
"KX c black",
"LX c black",
"PX c black",
"IX c black",
"UX c black",
/* pixels */
"                                                                                                    ",
"                                  |.Y.Y.Y.Y.Y.Y.Y.Y.Y.Y.Y.Y.Y.Y.Y.Z.                                ",
"                                  4.).).).).).).).).).).).).).).).=.                                ",
"                                  y.T.T.T.T.T.T.T.T.T.T.T.T.T.T.T.g.                                ",
"                        Z.Z.Z.Z.Z.y.T.T.T.T.T.T.T.T.T.T.T.T.T.T.T.g.Z.Z.Z.Z.Z.                      ",
"                      xX#X#X#X#X#XpXT.T.T.T.T.T.T.T.T.T.T.T.T.T.T.#X#X#X#X#X#X.                     ",
"                      F.T.T.T.T.T.T.T.T.T.T.T.T.T.T.T.T.T.T.T.T.T.T.T.T.T.T.T.P.                    ",
"                      F.T.T.T.T.T.T.T.T.T.T.T.T.T.T.T.T.T.T.T.T.T.T.T.T.T.T.T.P.                    ",
"                D O O #XT.T.T.T.T.T.T.T.T.T.T.T.T.T.T.T.T.T.T.T.T.T.T.T.T.T.T.y O O R               ",
"                ' T.T.T.T.T.T.T.T.T.T.T.T.T.T.T.T.T.T.T.T.T.T.T.T.T.T.T.T.T.T.T.T.T.+               ",
"                ' T.T.T.T.T.T.T.T.T.T.T.T.T.T.T.T.T.T.T.T.T.T.T.T.T.T.T.T.T.T.T.T.T.+               ",
"          % $ $ 3XT.T.T.T.T.T.T.T.T.T.T.T.T.T.y . . . . . A.).T.T.T.T.T.T.T.T.T.T.T.S.$ $ y.        ",
"          $ T.T.T.T.T.T.T.T.T.T.T.T.T.T.T.T.T.1X          |.pXT.T.T.T.T.T.T.T.T.T.T.T.T.T.D         ",
"          $ T.T.T.T.T.T.T.T.T.T.T.T.T.T.T.T.T.1X          |.pXT.T.T.T.T.T.T.T.T.T.T.T.T.T.D         ",
"          $ T.T.T.T.T.T.T.T.T.T.T.T.T.T.T.T.T.1X          |.pXT.T.T.T.T.T.T.T.T.T.T.T.T.T.D         ",
"          $ T.T.T.T.T.T.T.T.T.T.T.T.T.T.T.T.T.1X          |.pXT.T.T.T.T.T.T.T.T.T.T.T.T.T.D         ",
"          A T.T.T.T.T.T.T.T.T.T.T.T.T.T.T.T.T.1X          |.pXT.T.T.T.T.T.T.T.T.T.T.T.T.T.D         ",
"    e.*.*.y T.T.T.T.T.T.T.T.T.T.T.T.T.T.T.T.T.pX*.*.*.*.*.*.q T.T.T.T.T.T.T.T.T.T.T.T.T.T.4 *.*.P.  ",
"    S.T.T.T.T.T.T.T.T.T.T.T.T.T.T.T.T.T.T.T.T.T.T.T.T.T.T.T.T.T.T.T.T.T.T.T.T.T.T.T.T.T.T.T.T.T.:   ",
"    S.T.T.T.T.T.T.T.T.T.T.T.T.T.T.T.T.T.T.T.T.T.T.T.T.T.T.T.T.T.T.T.T.T.T.T.T.T.T.T.T.T.T.T.T.T.:   ",
"    S.T.T.T.T.T.T.T.T.T.T.T.T.T.T.T.T.T.T.T.T.T.T.T.T.T.T.T.T.T.T.T.T.T.T.T.T.T.T.T.T.T.T.T.T.T.:   ",
"    S.T.T.T.T.T.T.T.T.T.T.T.T.T.T.T.T.T.T.T.T.T.T.T.T.T.T.T.T.T.T.T.T.T.T.T.T.T.T.T.T.T.T.T.T.T.:   ",
"    S.T.T.T.T.T.T.T.T.T.T.T.T.T.T.T.T.T.T.T.T.T.T.T.T.T.T.T.T.T.T.T.T.T.T.T.T.T.T.T.T.T.T.T.T.T.:   ",
"    S.T.T.T.T.T.T.T.T.T.T.T.T.T.T.T.T.T.y ' ' ' ' ' ' ' ' ' ' ' ' ' ' ' ' ' ' ' ' ' ' ' ' ' ' ' 4.  ",
"    S.T.T.T.T.T.T.T.T.T.T.T.T.T.T.T.T.T.aX                                                          ",
"    S.T.T.T.T.T.T.T.T.T.T.T.T.T.T.T.T.T.aX                                                          ",
"    S.T.T.T.T.T.T.T.T.T.T.T.T.T.T.T.T.T.1XR R R R R R R R R R R R R R R R R R R R R R R R R R R k   ",
"    S.T.T.T.T.T.T.T.T.T.T.T.T.T.T.T.T.T.T.T.T.T.T.T.T.T.T.T.T.T.T.T.T.T.T.T.T.T.T.T.T.T.T.T.T.T.:   ",
"    S.T.T.T.T.T.T.T.T.T.T.T.T.T.T.T.T.T.T.T.T.T.T.T.T.T.T.T.T.T.T.T.T.T.T.T.T.T.T.T.T.T.T.T.T.T.:   ",
"    S.T.T.T.T.T.T.T.T.T.T.T.T.T.T.T.T.T.T.T.T.T.T.T.T.T.T.T.T.T.T.T.T.T.T.T.T.T.T.T.T.T.T.T.T.T.:   ",
"    S.T.T.T.T.T.T.T.T.T.T.T.T.T.T.T.T.T.T.T.T.T.T.T.T.T.T.T.T.T.T.T.T.T.T.T.T.T.T.T.T.T.T.T.T.T.:   ",
"    S.T.T.T.T.T.T.T.T.T.T.T.T.T.T.T.T.T.T.T.T.T.T.T.T.T.T.T.T.T.T.T.T.T.T.T.T.T.T.T.T.T.T.T.T.T.:   ",
"    J.1X1XD.T.T.T.T.T.T.T.T.T.T.T.T.T.T.T.T.T.T.T.T.T.T.T.T.T.T.T.T.T.T.T.T.T.T.T.T.T.T.T.#XO O xX  ",
"          A T.T.T.T.T.T.T.T.T.T.T.T.T.T.T.T.T.T.T.T.T.T.T.T.T.T.T.T.T.T.T.T.T.T.T.T.T.T.T.D         ",
"          $ T.T.T.T.T.T.T.T.T.T.T.T.T.T.T.T.T.T.T.T.T.T.T.T.T.T.T.T.T.T.T.T.T.T.T.T.T.T.T.D         ",
"          $ T.T.T.T.T.T.T.T.T.T.T.T.T.T.T.T.T.T.T.T.T.T.T.T.T.T.T.T.T.T.T.T.T.T.T.T.T.T.T.D         ",
"          $ T.T.T.T.T.T.T.T.T.T.T.T.T.T.T.T.T.T.T.T.T.T.T.T.T.T.T.T.T.T.T.T.T.T.T.T.T.T.T.D         ",
"          $ T.T.T.T.T.T.T.T.T.T.T.T.T.T.T.T.T.T.T.T.T.T.T.T.T.T.T.T.T.T.T.T.T.T.T.T.T.T.T.D         ",
"          N ).).q T.T.T.T.T.T.T.T.T.T.T.T.T.T.T.T.T.T.T.T.T.T.T.T.T.T.T.T.T.T.T.T.T.q ).D.xX        ",
"          ].Y.Y.' T.T.T.T.T.T.T.T.T.T.T.T.T.T.T.T.T.T.T.T.T.T.T.T.T.T.T.T.T.T.T.T.T.+ Y.Y.J         ",
"                ' T.T.T.T.T.T.T.T.T.T.T.T.T.T.T.T.T.T.T.T.T.T.T.T.T.T.T.T.T.T.T.T.T.+               ",
"                ' q q T.T.T.T.T.T.T.T.T.T.T.T.T.T.T.T.T.T.T.T.T.T.T.T.T.T.T.T.q q q +               ",
"                3 3.3.*.T.T.T.T.T.T.T.T.T.T.T.T.T.T.T.T.T.T.T.T.T.T.T.T.T.T.T.y.3.3.&.              ",
"                      F.T.T.T.T.T.T.T.T.T.T.T.T.T.T.T.T.T.T.T.T.T.T.T.T.T.T.T.P.                    ",
"                      F.T.T.T.T.T.T.T.T.T.T.T.T.T.T.T.T.T.T.T.T.T.T.T.T.T.T.T.P.                    ",
"                      g k k k k k j T.T.T.T.T.T.T.T.T.T.T.T.T.T.T.A.k k k k k p                     ",
"                                  y.T.T.T.T.T.T.T.T.T.T.T.T.T.T.T.g.                                ",
"                                  y.T.T.T.T.T.T.T.T.T.T.T.T.T.T.T.g.                                ",
"                                  ~.A.A.A.A.A.A.A.A.A.A.A.A.A.A.2 rX                                ",
"                                                                                                    "
};
