/* XPM */
static char *_a1bf15841b04fa0ae28d2a9f960aaec_1[] = {
/* columns rows colors chars-per-pixel */
"50 50 256 2 ",
"   c #040204",
".  c #74820C",
"X  c #A4C204",
"o  c #344204",
"O  c #BCE20C",
"+  c #8CA604",
"@  c #4C6204",
"#  c #DCF204",
"$  c #14220C",
"%  c #BCD604",
"&  c #9CB20C",
"*  c #DCF604",
"=  c #445204",
"-  c #2C3204",
";  c #7C9204",
":  c #B4C614",
">  c #ACBE04",
",  c #5C7204",
"<  c #CCEE0C",
"1  c #BCD22C",
"2  c #0C1204",
"3  c #ECFE04",
"4  c #444614",
"5  c #BCDE0C",
"6  c #9CAE0C",
"7  c #74821C",
"8  c #9CB224",
"9  c #2C3A04",
"0  c #646A0C",
"q  c #E4F624",
"w  c #CCE204",
"e  c #1C1A0C",
"r  c #A4C21C",
"t  c #9CBA04",
"y  c #BCC22C",
"u  c #CCE21C",
"i  c #DCFE04",
"p  c #748A0C",
"a  c #242214",
"s  c #3C3A14",
"d  c #3C4A04",
"f  c #94A224",
"g  c #CCDA14",
"h  c #DCEA34",
"j  c #445E04",
"k  c #949A2C",
"l  c #6C7214",
"z  c #D4F604",
"x  c #CCD21C",
"c  c #A4B604",
"v  c #ACB634",
"b  c #141A04",
"n  c #444E0C",
"m  c #040A04",
"M  c #5C6A0C",
"N  c #D4EE14",
"B  c #BCDA14",
"V  c #9CA22C",
"C  c #2C3A1C",
"Z  c #6C6E2E",
"A  c #B4CE27",
"S  c #ACCA08",
"D  c #3C421A",
"F  c #94AE08",
"G  c #BCD214",
"H  c #E4FA0A",
"J  c #D4EA20",
"K  c #7C8A0F",
"L  c #DCF214",
"P  c #4C4A18",
"I  c #748A24",
"U  c #646A18",
"Y  c #CCEA10",
"T  c #242A04",
"R  c #545E04",
"E  c #6C7A1C",
"W  c #5C620C",
"Q  c #1C2A04",
"!  c #94B214",
"~  c #8C9A0C",
"^  c #B4CE0C",
"/  c #343A07",
"(  c #241E04",
")  c #E4FE05",
"_  c #ACBE2C",
"`  c #0C0A05",
"'  c #BCCA2C",
"]  c #C4D21C",
"[  c #7C8614",
"{  c #ACC204",
"}  c #94A604",
"|  c #1C2208",
" . c #DCF614",
".. c #D4EE0A",
"X. c #CCD224",
"o. c #141204",
"O. c #ECFA24",
"+. c #A4BA24",
"@. c #1C1A14",
"#. c #A4BA1C",
"$. c #D4E62C",
"%. c #4C5A24",
"&. c #141A14",
"*. c #C4DA15",
"=. c #9CAA2C",
"-. c #747E0E",
";. c #748214",
":. c #3C420C",
">. c #DCFA05",
",. c #4C5608",
"<. c #7C9217",
"1. c #ACBA24",
"2. c #647204",
"3. c #C4DA04",
"4. c #9CAA1C",
"5. c #748621",
"6. c #A4B624",
"7. c #E4FE1C",
"8. c #A4BA0C",
"9. c #CCE62C",
"0. c #748E14",
"q. c #3C3E1C",
"w. c #3C4A1B",
"e. c #DCF229",
"r. c #ACBE3C",
"t. c #A4B21C",
"y. c #545A1C",
"u. c #CCDA2C",
"i. c #6C722C",
"p. c #8C9A24",
"a. c #7C8A1C",
"s. c #BCCE18",
"d. c #84960C",
"f. c #4C5A04",
"g. c #343617",
"h. c #A4AA2C",
"j. c #CCE614",
"k. c #949E34",
"l. c #ACC614",
"z. c #94AA14",
"x. c #647214",
"c. c #A4B234",
"v. c #54620C",
"b. c #E4F20C",
"n. c #343A1C",
"m. c #E4F21C",
"M. c #D4EA10",
"N. c #9CB217",
"B. c #2C2E1C",
"V. c #B4BE44",
"C. c #A4C214",
"Z. c #C4E20C",
"A. c #ECFE14",
"S. c #DCFE14",
"D. c #94A234",
"F. c #ACCA14",
"G. c #94AE14",
"H. c #E4FA14",
"J. c #ACCA1C",
"K. c #E4FE14",
"L. c #B4BE2C",
"P. c #747E1C",
"I. c #7C8A2C",
"U. c #040604",
"Y. c #748604",
"T. c #9CB604",
"R. c #2C3606",
"E. c #B4CA18",
"W. c #444A13",
"Q. c #646E08",
"!. c #CCE60C",
"~. c #1C1E07",
"^. c #BCC630",
"/. c #CCE61C",
"(. c #242614",
"). c #3C3E11",
"_. c #CCDE14",
"`. c #DCEE2C",
"'. c #949E2C",
"]. c #141E07",
"[. c #5C6E09",
"{. c #D4F215",
"}. c #3C461B",
"|. c #BCD614",
" X c #7C8E0F",
".X c #646E16",
"XX c #6C7E14",
"oX c #5C6611",
"OX c #343E06",
"+X c #0C0E06",
"@X c #BCCE2C",
"#X c #C4D61C",
"$X c #94AA05",
"%X c #1C2607",
"&X c #D4F20C",
"*X c #CCD62C",
"=X c #141605",
"-X c #ECFE1C",
";X c #ACC61C",
":X c #C4DE1C",
">X c #3C460B",
",X c #ACBE23",
"<X c #C4DE0C",
"1X c #A4BE08",
"2X c #4C5E09",
"3X c #0C1604",
"4X c #2C3E04",
"5X c #E4FA24",
"6X c #A4C61C",
"7X c #CCD61C",
"8X c #ACBA34",
"9X c #040E04",
"0X c #242E04",
"qX c #444A1C",
"wX c #1C1E14",
"eX c #647604",
"rX c #9CAE1C",
"tX c #04020C",
"yX c #A4C20C",
"uX c #DCF20C",
"iX c #BCD60C",
"pX c #DCF60C",
"aX c #ECFE0C",
"sX c #9CAE14",
"dX c #748224",
"fX c #9CB22C",
"gX c #CCE224",
"hX c #DCFE0C",
"jX c #748A14",
"kX c #3C4A0C",
"lX c #94A22C",
"zX c #CCDA1C",
"xX c #A4B60C",
"cX c #141A0C",
"vX c #444E14",
"bX c #D4EE1C",
"nX c #BCDA1C",
"mX c black",
"MX c black",
"NX c black",
"BX c black",
"VX c black",
"CX c black",
"ZX c black",
"AX c black",
"SX c black",
"DX c black",
"FX c black",
"GX c black",
"HX c black",
"JX c black",
"KX c black",
"LX c black",
"PX c black",
"IX c black",
"UX c black",
/* pixels */
"                                                                                                    ",
"                                  +X~.~.~.~.~.~.~.~.~.~.~.~.~.~.~.U.                                ",
"                                  ; * * * * * * * * * * * * * * * f.                                ",
"                                  d.i i i i i i i i i i i i i i i y.                                ",
"                        U.U.U.U.U.d.i i i i i i i i i i i i i i i y.U.U.U.U.U.                      ",
"                      $X..........&Xi i i i i i i i i i i i i i i .............                     ",
"                      T.i i i i i i i i i i i i i i i i i i i i i i i i i i i K                     ",
"                      T.i i i i i i i i i i i i i i i i i i i i i i i i i i i K                     ",
"                6 Z.Z...i i i i i i i i i i i i i i i i i i i i i i i i i i i Y Z.Z. X              ",
"                { i i i i i i i i i i i i i i i i i i i i i i i i i i i i i i i i i ~               ",
"                { i i i i i i i i i i i i i i i i i i i i i i i i i i i i i i i i i ~               ",
"          & % % < i i i i i i i i i i i i i i Y . . . . . Y.pXi i i i i i i i i i i !.% % d.        ",
"          % i i i i i i i i i i i i i i i i i Z.          +X&Xi i i i i i i i i i i i i i 6         ",
"          % i i i i i i i i i i i i i i i i i Z.          +X&Xi i i i i i i i i i i i i i 6         ",
"          % i i i i i i i i i i i i i i i i i Z.          +X&Xi i i i i i i i i i i i i i 6         ",
"          % i i i i i i i i i i i i i i i i i Z.          +X&Xi i i i i i i i i i i i i i 6         ",
"          G i i i i i i i i i i i i i i i i i Z.          +X&Xi i i i i i i i i i i i i i 6         ",
"    } 8.8.Y i i i i i i i i i i i i i i i i i &X8.8.8.8.8.8.>.i i i i i 1X$X$X$X$X$X$X$X$XeX        ",
"    !.i i i i i i i i i i i i i i i i i i i i i i i i i i i i i i i i i XX                          ",
"    !.i i i i i i i i i i i i i i i i i i i i i i i i i i i i i i i i i XX                          ",
"    !.i i i i i i i i i i i i i i i i i i i i ..T.T.T.T.T.T.T.T.T.T.T.T.,.                          ",
"    !.i i i i i i i i i i i i i i i i i i i i Z.                                                    ",
"    !.i i i i i i i i i i i i i i i i i i i i Z.                                                    ",
"    !.i i i i i i i i i i i i i i i i i Y { { 6                                                     ",
"    !.i i i i i i i i i i i i i i i i i iX                                                          ",
"    !.i i i i i i i i i i i i i i i i i iX                                                          ",
"    !.i i i i i i i i i i i i i i i i i Z. X XXX                                                    ",
"    !.i i i i i i i i i i i i i i i i i i i i Z.                                                    ",
"    !.i i i i i i i i i i i i i i i i i i i i w                                                     ",
"    !.i i i i i i i i i i i i i i i i i i i i !.E E E E E E E E E E E E /                           ",
"    !.i i i i i i i i i i i i i i i i i i i i i i i i i i i i i i i i i XX                          ",
"    !.i i i i i i i i i i i i i i i i i i i i i i i i i i i i i i i i i XX                          ",
"    E.Z.Z.z i i i i i i i i i i i i i i i i i i i i i i i i i i i i i i d.oXoXoXoXoXoXoXoX>X        ",
"          G i i i i i i i i i i i i i i i i i i i i i i i i i i i i i i i i i i i i i i i 6         ",
"          % i i i i i i i i i i i i i i i i i i i i i i i i i i i i i i i i i i i i i i i 6         ",
"          % i i i i i i i i i i i i i i i i i i i i i i i i i i i i i i i i i i i i i i i 6         ",
"          % i i i i i i i i i i i i i i i i i i i i i i i i i i i i i i i i i i i i i i i 6         ",
"          % i i i i i i i i i i i i i i i i i i i i i i i i i i i i i i i i i i i i i i i 6         ",
"          ^ pXpX>.i i i i i i i i i i i i i i i i i i i i i i i i i i i i i i i i i >.pXz $X        ",
"          b ~.~.{ i i i i i i i i i i i i i i i i i i i i i i i i i i i i i i i i i + ~.~.o.        ",
"                { i i i i i i i i i i i i i i i i i i i i i i i i i i i i i i i i i ~               ",
"                { >.>.i i i i i i i i i i i i i i i i i i i i i i i i i i i i >.>.>.~               ",
"                - :.:.8.i i i i i i i i i i i i i i i i i i i i i i i i i i i d.:.:.T               ",
"                      T.i i i i i i i i i i i i i i i i i i i i i i i i i i i K                     ",
"                      T.i i i i i i i i i i i i i i i i i i i i i i i i i i i K                     ",
"                      d M M M M M $Xi i i i i i i i i i i i i i i Y.M M M M M /                     ",
"                                  d.i i i i i i i i i i i i i i i y.                                ",
"                                  d.i i i i i i i i i i i i i i i y.                                ",
"                                  n Y.Y.Y.Y.Y.Y.Y.Y.Y.Y.Y.Y.Y.Y.[ 0X                                ",
"                                                                                                    "
};
