/* XPM */
static char *_a1bf15841b04fa0ae28d2a9f960aaec_2[] = {
/* columns rows colors chars-per-pixel */
"50 50 256 2 ",
"   c #040204",
".  c #6C8614",
"X  c #A4C204",
"o  c #344204",
"O  c #CCE204",
"+  c #8CA214",
"@  c #D4F204",
"#  c #4C620C",
"$  c #14220C",
"%  c #94B214",
"&  c #BCD604",
"*  c #E4F20C",
"=  c #8C9A0C",
"-  c #445204",
";  c #ACBE04",
":  c #2C3204",
">  c #748E12",
",  c #5C7204",
"<  c #BCCE18",
"1  c #BCD230",
"2  c #0C1204",
"3  c #444614",
"4  c #CCE224",
"5  c #DCF220",
"6  c #E4F21C",
"7  c #9CAE10",
"8  c #9CB223",
"9  c #6C821E",
"0  c #2C3A04",
"q  c #A4C21C",
"w  c #BCDA0C",
"e  c #DCFA05",
"r  c #646A0C",
"t  c #1C1A0C",
"y  c #CCEA04",
"u  c #6C7214",
"i  c #3C4A07",
"p  c #242214",
"a  c #ACB23C",
"s  c #3C3E11",
"d  c #94A22C",
"f  c #9CBA04",
"g  c #E4FA0A",
"h  c #545E0C",
"j  c #7C921C",
"k  c #CCDA1C",
"l  c #7C8614",
"z  c #ACCA08",
"x  c #DCF20C",
"c  c #141A04",
"v  c #444E11",
"b  c #E4FA24",
"n  c #7C8A1F",
"m  c #ECFA0C",
"M  c #445E04",
"N  c #84960C",
"B  c #9CA230",
"V  c #A4BA24",
"C  c #343A1C",
"Z  c #ACCA1C",
"A  c #CCEA14",
"S  c #6C722C",
"D  c #040A04",
"F  c #3C421A",
"G  c #94AA05",
"H  c #5C6A0C",
"J  c #CCD21C",
"K  c #7C9604",
"L  c #BCC630",
"P  c #748A27",
"I  c #BCDA14",
"U  c #6C6E32",
"Y  c #242A04",
"T  c #ACBA34",
"R  c #748A14",
"E  c #A4B60C",
"W  c #7C8E05",
"Q  c #DCFA22",
"!  c #ECFA24",
"~  c #B4C614",
"^  c #BCD214",
"/  c #949A2C",
"(  c #CCD224",
")  c #141204",
"_  c #4C4A14",
"`  c #A4B21C",
"'  c #748223",
"]  c #343A07",
"[  c #DCFA14",
"{  c #646A19",
"}  c #241E04",
"|  c #6C7E0F",
" . c #E4FA14",
".. c #94AA14",
"X. c #ACBA3C",
"o. c #74820C",
"O. c #ACC206",
"+. c #CCE21C",
"@. c #D4F214",
"#. c #5C660C",
"$. c #1C2208",
"%. c #9CB20C",
"&. c #4C5618",
"*. c #ACBA24",
"=. c #647204",
"-. c #ACC220",
";. c #1C1A14",
":. c #D4EA0C",
">. c #3C4A1B",
",. c #A4BA0C",
"<. c #DCF214",
"1. c #DCEE2C",
"2. c #9CAA2C",
"3. c #0C0A04",
"4. c #C4DA15",
"5. c #7C8E14",
"6. c #C4D21C",
"7. c #9C9E2C",
"8. c #747E0F",
"9. c #3C420C",
"0. c #D4F605",
"q. c #D4E62C",
"w. c #DCF22C",
"e. c #9CAA1C",
"r. c #C4DA24",
"t. c #94A604",
"y. c #848E2C",
"u. c #B4CE14",
"i. c #B4CA1C",
"p. c #ECF22C",
"a. c #4C520C",
"s. c #C4DA04",
"d. c #4C5A0C",
"f. c #D4EA14",
"g. c #C4CA2C",
"h. c #B4BE2C",
"j. c #343618",
"k. c #B4BE44",
"l. c #A4AA2C",
"z. c #A4C614",
"x. c #9CB22C",
"c. c #E4FA2C",
"v. c #ECFE14",
"b. c #D4EA34",
"n. c #949E34",
"m. c #141614",
"M. c #6C7A1C",
"N. c #748214",
"B. c #ACC614",
"V. c #9CB214",
"C. c #647214",
"Z. c #A4BE14",
"A. c #B4CE2C",
"S. c #54620F",
"D. c #2C2E1C",
"F. c #5C7214",
"G. c #040604",
"H. c #CCE60C",
"J. c #2C3606",
"K. c #444A14",
"L. c #CCE62B",
"P. c #DCF624",
"I. c #9CB61C",
"U. c #DCFE04",
"Y. c #646E08",
"T. c #1C1E0B",
"R. c #CCEE0C",
"E. c #3C4E04",
"W. c #242614",
"Q. c #ACB634",
"!. c #E4FE06",
"~. c #CCDE1C",
"^. c #7C8A0F",
"/. c #DCF605",
"(. c #141E08",
"). c #E4FE1F",
"_. c #ECFE04",
"`. c #A4BE1C",
"'. c #343E1C",
"]. c #6C7624",
"[. c #3C461B",
"{. c #94AE07",
"}. c #5C6E08",
"|. c #BCCA2C",
" X c #ACBE2C",
".X c #7C9204",
"XX c #ECFE23",
"oX c #BCD614",
"OX c #949E2C",
"+X c #CCD62C",
"@X c #141605",
"#X c #A4B624",
"$X c #74861E",
"%X c #343E06",
"&X c #646E14",
"*X c #748604",
"=X c #CCE614",
"-X c #1C2608",
";X c #9CB604",
":X c #ACBE23",
">X c #ACC61C",
",X c #D4EE0B",
"<X c #A4BE08",
"1X c #0C0E06",
"2X c #C4DE1C",
"3X c #3C460C",
"4X c #B4CE24",
"5X c #4C5604",
"6X c #4C5E05",
"7X c #D4EE15",
"8X c #0C1604",
"9X c #2C3E04",
"0X c #A4C61C",
"qX c #CCD61C",
"wX c #242E04",
"eX c #2C3614",
"rX c #DCFE14",
"tX c #E4FE14",
"yX c #94AE14",
"uX c #ACBE3C",
"iX c #444A1C",
"pX c #1C1E14",
"aX c #DCF614",
"sX c #C4D61C",
"dX c #9CAE1C",
"fX c #C4DE04",
"gX c #D4EE34",
"hX c #748614",
"jX c #647614",
"kX c #04020C",
"lX c #D4F20C",
"zX c #E4F214",
"xX c #ACBE0C",
"cX c black",
"vX c black",
"bX c black",
"nX c black",
"mX c black",
"MX c black",
"NX c black",
"BX c black",
"VX c black",
"CX c black",
"ZX c black",
"AX c black",
"SX c black",
"DX c black",
"FX c black",
"GX c black",
"HX c black",
"JX c black",
"KX c black",
"LX c black",
"PX c black",
"IX c black",
"UX c black",
/* pixels */
"                                                                                                    ",
"                                  1XT.T.T.T.T.T.T.T.T.T.T.T.T.T.T.G.                                ",
"                                  .X/././././././././././././././.d.                                ",
"                                  N U.U.U.U.U.U.U.U.U.U.U.U.U.U.U.h                                 ",
"                        G.G.G.G.G.N U.U.U.U.U.U.U.U.U.U.U.U.U.U.U.h G.G.G.G.G.                      ",
"                      G ,X,X,X,X,XlXU.U.U.U.U.U.U.U.U.U.U.U.U.U.U.,X,X,X,X,X,Xo.                    ",
"                      ;XU.U.U.U.U.U.U.U.U.U.U.U.U.U.U.U.U.U.U.U.U.U.U.U.U.U.U.^.                    ",
"                      ;XU.U.U.U.U.U.U.U.U.U.U.U.U.U.U.U.U.U.U.U.U.U.U.U.U.U.U.^.                    ",
"                7 O O ,XU.U.U.U.U.U.U.U.U.U.U.U.U.U.U.U.U.U.U.U.U.U.U.U.U.U.U.y O O W               ",
"                O.U.U.U.U.U.U.U.U.U.U.U.U.U.U.U.U.U.U.U.U.U.U.U.U.U.U.U.U.U.U.U.U.U.+               ",
"                O.U.U.U.U.U.U.U.U.U.U.U.U.U.U.U.U.U.U.U.U.U.U.U.U.U.U.U.U.U.U.U.U.U.+               ",
"          %.& & R.U.U.U.U.U.U.U.U.U.U.U.U.U.U.y o.o.o.o.o.*X/.U.U.U.U.U.U.U.U.U.U.U.H.& & N         ",
"          & U.U.U.U.U.U.U.U.U.U.U.U.U.U.U.U.U.fX          1XlXU.U.U.U.U.U.U.U.U.U.U.U.U.U.7         ",
"          & U.U.U.U.U.U.U.U.U.U.U.U.U.U.U.U.U.fX          1XlXU.U.U.U.U.U.U.U.U.U.U.U.U.U.7         ",
"          & U.U.U.U.U.U.U.U.U.U.U.U.U.U.U.U.U.fX          1XlXU.U.U.U.U.U.U.U.<X= = = = = H         ",
"          & U.U.U.U.U.U.U.U.U.U.U.U.U.U.U.U.U.fX          1XlXU.U.U.U.U.U.U.U.W                     ",
"          & U.U.U.U.U.U.U.U.U.U.U.U.U.U.U.U.U.fX          1XlXU.U.U.U.U.U.U.U.W                     ",
"    t.,.,.y U.U.U.U.U.U.U.U.U.U.U.U.U.U.U.U.U.lX,.,.,.,.,.,.t.G G G G G G G G h                     ",
"    H.U.U.U.U.U.U.U.U.U.U.U.U.U.U.U.U.U.U.U.U.U.U.U.U.U.U.e wX                                      ",
"    H.U.U.U.U.U.U.U.U.U.U.U.U.U.U.U.U.U.U.U.U.U.U.U.U.U.U.e wX                                      ",
"    H.U.U.U.U.U.U.U.U.U.U.U.U.U.U.U.U.U.U.U.U.,X;X;X;X;X;X%.T.                                      ",
"    H.U.U.U.U.U.U.U.U.U.U.U.U.U.U.U.U.U.U.U.U.O                                                     ",
"    H.U.U.U.U.U.U.U.U.U.U.U.U.U.U.U.U.U.U.U.U.O                                                     ",
"    H.U.U.U.U.U.U.U.U.U.U.U.U.U.U.U.U.U.:.O.O.7                                                     ",
"    H.U.U.U.U.U.U.U.U.U.U.U.U.U.U.U.U.U.&                                                           ",
"    H.U.U.U.U.U.U.U.U.U.U.U.U.U.U.U.U.U.&                                                           ",
"    H.U.U.U.U.U.U.U.U.U.U.U.U.U.U.U.U.U.fXW W |                                                     ",
"    H.U.U.U.U.U.U.U.U.U.U.U.U.U.U.U.U.U.U.U.U.O                                                     ",
"    H.U.U.U.U.U.U.U.U.U.U.U.U.U.U.U.U.U.U.U.U.O                                                     ",
"    H.U.U.U.U.U.U.U.U.U.U.U.U.U.U.U.U.U.U.U.U.H.M.M.M.M.M.M.2                                       ",
"    H.U.U.U.U.U.U.U.U.U.U.U.U.U.U.U.U.U.U.U.U.U.U.U.U.U.U.e wX                                      ",
"    H.U.U.U.U.U.U.U.U.U.U.U.U.U.U.U.U.U.U.U.U.U.U.U.U.U.U.e wX                                      ",
"    i.fXO 0.U.U.U.U.U.U.U.U.U.U.U.U.U.U.U.U.U.U.U.U.U.U.U.e Y.#.#.#.#.#.#.#.#.J.                    ",
"          ^ U.U.U.U.U.U.U.U.U.U.U.U.U.U.U.U.U.U.U.U.U.U.U.U.U.U.U.U.U.U.U.U.U.W                     ",
"          & U.U.U.U.U.U.U.U.U.U.U.U.U.U.U.U.U.U.U.U.U.U.U.U.U.U.U.U.U.U.U.U.U.W                     ",
"          & U.U.U.U.U.U.U.U.U.U.U.U.U.U.U.U.U.U.U.U.U.U.U.U.U.U.U.U.U.U.U.U.U.N i i i i i :         ",
"          & U.U.U.U.U.U.U.U.U.U.U.U.U.U.U.U.U.U.U.U.U.U.U.U.U.U.U.U.U.U.U.U.U.U.U.U.U.U.U.7         ",
"          & U.U.U.U.U.U.U.U.U.U.U.U.U.U.U.U.U.U.U.U.U.U.U.U.U.U.U.U.U.U.U.U.U.U.U.U.U.U.U.7         ",
"          u././.e U.U.U.U.U.U.U.U.U.U.U.U.U.U.U.U.U.U.U.U.U.U.U.U.U.U.U.U.U.U.U.U.U.e /.0.G         ",
"          c T.$.O.U.U.U.U.U.U.U.U.U.U.U.U.U.U.U.U.U.U.U.U.U.U.U.U.U.U.U.U.U.U.U.U.U.+ T.T.)         ",
"                O.U.U.U.U.U.U.U.U.U.U.U.U.U.U.U.U.U.U.U.U.U.U.U.U.U.U.U.U.U.U.U.U.U.+               ",
"                O.e e U.U.U.U.U.U.U.U.U.U.U.U.U.U.U.U.U.U.U.U.U.U.U.U.U.U.U.U.e e e +               ",
"                : 9.9.,.U.U.U.U.U.U.U.U.U.U.U.U.U.U.U.U.U.U.U.U.U.U.U.U.U.U.U.N 9.9.Y               ",
"                      ;XU.U.U.U.U.U.U.U.U.U.U.U.U.U.U.U.U.U.U.U.U.U.U.U.U.U.U.^.                    ",
"                      ;XU.U.U.U.U.U.U.U.U.U.U.U.U.U.U.U.U.U.U.U.U.U.U.U.U.U.U.^.                    ",
"                      K.H H H H H G U.U.U.U.U.U.U.U.U.U.U.U.U.U.U.hXH H H H H ]                     ",
"                                  N U.U.U.U.U.U.U.U.U.U.U.U.U.U.U.h                                 ",
"                                  N U.U.U.U.U.U.U.U.U.U.U.U.U.U.U.h                                 ",
"                                  v *X*X*X*X*X*X*X*X*X*X*X*X*X*Xl wX                                ",
"                                                                                                    "
};
