/* XPM */
static char *_a1bf15841b04fa0ae28d2a9f960aaec_4[] = {
/* columns rows colors chars-per-pixel */
"50 50 256 2 ",
"   c #040204",
".  c #6C8614",
"X  c #A4C204",
"o  c #344204",
"O  c #CCE204",
"+  c #94A604",
"@  c #D4F204",
"#  c #4C620C",
"$  c #142204",
"%  c #C4CA2C",
"&  c #9CB604",
"*  c #E4F214",
"=  c #8C9E14",
"-  c #BCD20C",
";  c #243204",
":  c #445204",
">  c #5C7204",
",  c #9CB22C",
"<  c #7C9204",
"1  c #0C1204",
"2  c #7C8614",
"3  c #E4F21C",
"4  c #CCE624",
"5  c #B4CA1C",
"6  c #444214",
"7  c #DCF21C",
"8  c #9CBA04",
"9  c #C4DA04",
"0  c #343A04",
"q  c #9CAE0C",
"w  c #646A0C",
"e  c #141A04",
"r  c #74821C",
"t  c #DCFA04",
"y  c #242204",
"u  c #6C7E0C",
"i  c #C4D61C",
"p  c #CCEE0C",
"a  c #3C4A04",
"s  c #BCD224",
"d  c #E4FA1C",
"f  c #E4FA04",
"g  c #445E04",
"h  c #343E04",
"j  c #040A04",
"k  c #A4C21C",
"l  c #8CA234",
"z  c #ACB624",
"x  c #9C9E33",
"c  c #7C8A20",
"v  c #ACBA24",
"b  c #ECFA0C",
"n  c #748A14",
"m  c #DCF20C",
"M  c #5C6A0C",
"N  c #9CB224",
"B  c #BCDA08",
"V  c #ACB23C",
"C  c #DCEE2C",
"Z  c #444A14",
"A  c #1C1A0C",
"S  c #242A04",
"D  c #D4DA2C",
"F  c #ECFA24",
"G  c #8C9E34",
"H  c #2C3A04",
"J  c #D4EE34",
"K  c #B4CE2A",
"L  c #9CA234",
"P  c #C4DE1C",
"I  c #CCEA14",
"U  c #ACBA34",
"Y  c #3C421C",
"T  c #141204",
"R  c #D4E629",
"E  c #A4BA24",
"W  c #6C6E32",
"Q  c #6C7231",
"!  c #4C4A14",
"~  c #74820C",
"^  c #94AE0A",
"/  c #B4D214",
"(  c #2C3204",
")  c #647204",
"_  c #7C8E05",
"`  c #DCFA26",
"'  c #343619",
"]  c #CCD61C",
"[  c #E4FA14",
"{  c #545E0C",
"}  c #0C0A05",
"|  c #949A2E",
" . c #CCE21A",
".. c #5C660C",
"X. c #1C2207",
"o. c #C4D21C",
"O. c #A4B214",
"+. c #4C5618",
"@. c #BCC631",
"#. c #A4BA0C",
"$. c #CCDA14",
"%. c #646A1C",
"&. c #DCFA14",
"*. c #242214",
"=. c #3C4A1B",
"-. c #E4FA2C",
";. c #343E1C",
":. c #DCF214",
">. c #1C1A14",
",. c #D4EA34",
"<. c #748214",
"1. c #040604",
"2. c #ACC208",
"3. c #3C420C",
"4. c #94AA14",
"5. c #D4F214",
"6. c #849A0C",
"7. c #C4D614",
"8. c #141E0B",
"9. c #748620",
"0. c #DCFE04",
"q. c #94AA24",
"w. c #242E14",
"e. c #545A24",
"r. c #84960C",
"t. c #747E11",
"y. c #4C5E05",
"u. c #848E1C",
"i. c #949E24",
"p. c #4C5604",
"a. c #D4EA0C",
"s. c #A4B624",
"d. c #D4EA14",
"f. c #B4BE2C",
"g. c #BCD214",
"h. c #B4BE44",
"j. c #9CB214",
"k. c #6C7A1C",
"l. c #ECFE14",
"z. c #5C6A14",
"x. c #647214",
"c. c #CCD62C",
"v. c #A4BE14",
"b. c #4C5A14",
"n. c #54620F",
"m. c #3C3E0C",
"M. c #94A233",
"N. c #BCCE2C",
"B. c #CCD21C",
"V. c #3C3E14",
"C. c #2C2E1C",
"Z. c #5C7214",
"A. c #BCCA1C",
"S. c #ACCA1C",
"D. c #7C8A2C",
"F. c #BCDA14",
"G. c #CCDE1C",
"H. c #7C8E14",
"J. c #94AA04",
"K. c #D4F604",
"L. c #BCD604",
"P. c #0C1604",
"I. c #7C8A0F",
"U. c #DCF624",
"Y. c #646E08",
"T. c #242608",
"R. c #C4DA1F",
"E. c #3C4E04",
"W. c #E4FE1F",
"Q. c #E4FE06",
"!. c #ACBE24",
"~. c #ECFE04",
"^. c #748E14",
"/. c #DCF605",
"(. c #5C6E08",
"). c #9CB61C",
"_. c #ACB634",
"`. c #444E18",
"'. c #1C1E07",
"]. c #ECFE23",
"[. c #9CA62C",
"{. c #ACBE2C",
"}. c #3C461C",
"|. c #141606",
" X c #D4EA28",
".X c #4C4E18",
"XX c #748608",
"oX c #2C3606",
"OX c #343A1C",
"+X c #0C0E06",
"@X c #ACC61C",
"#X c #949E31",
"$X c #CCE614",
"%X c #1C2609",
"&X c #A4B60C",
"*X c #BCCA2C",
"=X c #A4BE04",
"-X c #646E14",
";X c #3C460C",
":X c #D4EE0B",
">X c #D4EE16",
",X c #BCD614",
"<X c #040E04",
"1X c #A4C61C",
"2X c #242E04",
"3X c #2C3E04",
"4X c #CCDA1C",
"5X c #E4FE14",
"6X c #242614",
"7X c #DCF614",
"8X c #1C1E14",
"9X c #748614",
"0X c #2C3614",
"qX c #C4DA14",
"wX c #9CAE1C",
"eX c #647614",
"rX c #04020C",
"tX c #A4C20C",
"yX c #D4F20C",
"uX c #44520C",
"iX c #0C120C",
"pX c #E4F224",
"aX c #DCF224",
"sX c #C4DA0C",
"dX c #343A0C",
"fX c #9CAE14",
"gX c #141A0C",
"hX c #748224",
"jX c #DCFA0C",
"kX c #ACCA14",
"lX c #BCD22C",
"zX c #E4FA24",
"xX c #E4FA0C",
"cX c #343E0C",
"vX c black",
"bX c black",
"nX c black",
"mX c black",
"MX c black",
"NX c black",
"BX c black",
"VX c black",
"CX c black",
"ZX c black",
"AX c black",
"SX c black",
"DX c black",
"FX c black",
"GX c black",
"HX c black",
"JX c black",
"KX c black",
"LX c black",
"PX c black",
"IX c black",
"UX c black",
/* pixels */
"                                                                                                    ",
"                                  +X'.'.'.'.'.'.'.'.'.'.'.'.'.'.'.1.                                ",
"                                  < /././././././././././././././.b.                                ",
"                                  r.0.0.0.0.0.0.0.0.0.0.0.0.0.0.0.{                                 ",
"                        1.1.1.1.1.r.0.0.0.0.0.0.0.0.0.0.0.0.0.0.0.{ 1.1.1.1.1.                      ",
"                      J.:X:X:X:X:XyX0.0.0.0.0.0.0.0.0.0.0.0.0.0.0.:X:X:X:X:X:X~                     ",
"                      & 0.0.0.0.0.0.0.0.0.0.0.0.0.0.0.0.0.0.0.0.0.0.0.0.0.0.0.I.                    ",
"                      & 0.0.0.0.0.0.0.0.0.0.0.0.0.0.0.0.0.0.0.0.0.0.0.0.0.0.0.I.                    ",
"                q O O :X0.0.0.0.0.0.0.0.0.0.0.0.0.0.0.0.0.0.0.0.0.0.0.0.0.0.0.I O O _               ",
"                2.0.0.0.0.0.0.0.0.0.0.0.0.0.0.0.0.0.0.0.0.0.0.0.0.0.0.0.0.0.0.0.0.0.=               ",
"                2.0.0.0.0.0.0.0.0.0.0.0.0.0.0.0.0.0.0.0.0.0.0.0.0.0.0.0.0.0.0.0.0.0.=               ",
"          j.L.L.:X0.0.0.0.0.0.0.0.0.0.0.0.0.0.I ~ ~ ~ ~ ~ XX/.0.0.0.0.0.0.0.0.0.0.0.$XL.L.<         ",
"          L.0.0.0.0.0.0.0.0.0.0.0.0.0.0.0.0.0.O           +XyX0.0.0.0.0.0.0.0.0.0.0.0.0.0.q         ",
"          L.0.0.0.0.0.0.0.0.0.0.0.0.0.0.0.0.0.P           +XyX0.0.0.0.0.0.0.0.0.0.0.0.0.0.q         ",
"          L.0.0.0.0.0.0.0.0.0.0.0.0.0.0.0.0.0.P           +XyX0.0.0.0.0.0.0.0.v.= 6.= = 6.M         ",
"          L.0.0.0.0.0.0.0.0.0.0.0.0.0.0.0.0.0.P           +XyX0.0.0.0.0.0.0.0._                     ",
"          L.0.0.0.0.0.0.0.0.0.0.0.0.0.0.0.0.0.O           +XyX0.0.0.0.0.0.0.0._                     ",
"    + #.#.I 0.0.0.0.0.0.0.0.0.0.0.0.0.0.0.0.0.:X#.#.#.#.#.#.+ J.J.J.J.J.J.J.J.{                     ",
"    $Xt 0.0.0.0.0.0.0.0.0.0.0.0.0.0.0.0.0.0.0.0.0.0.0.0.0.jX2X                                      ",
"    $X0.0.0.0.0.0.0.0.0.0.0.0.0.0.0.0.0.0.0.0.0.0.0.0.0.0.jX2X                                      ",
"    $X0.0.0.0.0.0.0.0.0.0.0.0.0.0.0.0.0.0.0.0.:X&X& & & & & '.                                      ",
"    $X0.0.0.0.0.0.0.0.0.0.0.0.0.0.0.0.0.0.0.0.O                                                     ",
"    $X0.0.0.0.0.0.0.0.0.0.0.0.0.0.0.0.0.0.0.0.O                                                     ",
"    $X0.0.0.0.0.0.0.0.0.0.0.0.0.0.0.0.0.I 2.2.q                                                     ",
"    $X0.0.0.0.0.0.0.0.0.0.0.0.0.0.0.0.0.L.                                                          ",
"    $X0.0.0.0.0.0.0.0.0.0.0.0.0.0.0.0.0.L.                                                          ",
"    $X0.0.0.0.0.0.0.0.0.0.0.0.0.0.0.0.0.P _ _ u                                                     ",
"    $X0.0.0.0.0.0.0.0.0.0.0.0.0.0.0.0.0.0.0.0.O                                                     ",
"    $X0.0.0.0.0.0.0.0.0.0.0.0.0.0.0.0.0.0.0.0.O                                                     ",
"    $X0.0.0.0.0.0.0.0.0.0.0.0.0.0.0.0.0.0.0.0.$Xk.k.k.k.k.k.1                                       ",
"    $X0.0.0.0.0.0.0.0.0.0.0.0.0.0.0.0.0.0.0.0.0.0.0.0.0.0.jX2X                                      ",
"    $X0.0.0.0.0.0.0.0.0.0.0.0.0.0.0.0.0.0.0.0.0.0.0.0.0.0.jX2X                                      ",
"    5 P P K.0.0.0.0.0.0.0.0.0.0.0.0.0.0.0.0.0.0.0.0.0.0.0.jX-X................oX                    ",
"          - 0.0.0.0.0.0.0.0.0.0.0.0.0.0.0.0.0.0.0.0.0.0.0.0.0.0.0.0.0.0.0.0.0._                     ",
"          L.0.0.0.0.0.0.0.0.0.0.0.0.0.0.0.0.0.0.0.0.0.0.0.0.0.0.0.0.0.0.0.0.0.I.                    ",
"          L.0.0.0.0.0.0.0.0.0.0.0.0.0.0.0.0.0.0.0.0.0.0.0.0.0.0.0.0.0.0.0.0.0.r.a a a a a (         ",
"          L.0.0.0.0.0.0.0.0.0.0.0.0.0.0.0.0.0.0.0.0.0.0.0.0.0.0.0.0.0.0.0.0.0.0.0.0.0.0.0.q         ",
"          L.0.0.0.0.0.0.0.0.0.0.0.0.0.0.0.0.0.0.0.0.0.0.0.0.0.0.0.0.0.0.0.0.0.0.0.0.0.0.0.q         ",
"          / /./.t 0.0.0.0.0.0.0.0.0.0.0.0.0.0.0.0.0.0.0.0.0.0.0.0.0.0.0.0.0.0.0.0.0.t /./.J.        ",
"          e '.'.2.0.0.0.0.0.0.0.0.0.0.0.0.0.0.0.0.0.0.0.0.0.0.0.0.0.0.0.0.0.0.0.0.0.= '.'.T         ",
"                2.0.0.0.0.0.0.0.0.0.0.0.0.0.0.0.0.0.0.0.0.0.0.0.0.0.0.0.0.0.0.0.0.0.=               ",
"                2.t t 0.0.0.0.0.0.0.0.0.0.0.0.0.0.0.0.0.0.0.0.0.0.0.0.0.0.0.0.t t t =               ",
"                ( 3.3.#.0.0.0.0.0.0.0.0.0.0.0.0.0.0.0.0.0.0.0.0.0.0.0.0.0.0.0.r.3.3.T.              ",
"                      & 0.0.0.0.0.0.0.0.0.0.0.0.0.0.0.0.0.0.0.0.0.0.0.0.0.0.0.I.                    ",
"                      & 0.0.0.0.0.0.0.0.0.0.0.0.0.0.0.0.0.0.0.0.0.0.0.0.0.0.0.I.                    ",
"                      Z M M M M M J.0.0.0.0.0.0.0.0.0.0.0.0.0.0.0.XXM M M M M 0                     ",
"                                  r.0.0.0.0.0.0.0.0.0.0.0.0.0.0.0.{                                 ",
"                                  r.0.0.0.0.0.0.0.0.0.0.0.0.0.0.0.{                                 ",
"                                  `.XXXXXXXXXXXXXXXXXXXXXXXXXXXX2 2X                                ",
"                                                                                                    "
};
