/* XPM */
static char *_a1bf15841b04fa0ae28d2a9f960aaec_5[] = {
/* columns rows colors chars-per-pixel */
"50 50 256 2 ",
"   c #040204",
".  c #74820C",
"X  c #A4C204",
"o  c #344204",
"O  c #C4E20C",
"+  c #8CA20C",
"@  c #54620C",
"#  c #D4F204",
"$  c #1C2204",
"%  c #C4CA2C",
"&  c #9CB604",
"*  c #E4F604",
"=  c #445204",
"-  c #BCD604",
";  c #7C9204",
":  c #243204",
">  c #5C7204",
",  c #0C1204",
"<  c #9CB22C",
"1  c #444214",
"2  c #D4EA0C",
"3  c #74821C",
"4  c #B4CA0C",
"5  c #E4F21C",
"6  c #DCF21C",
"7  c #C4DA04",
"8  c #9CBA04",
"9  c #141A0C",
"0  c #DCFA04",
"q  c #94A234",
"w  c #646A0C",
"e  c #D4E624",
"r  c #C4D61C",
"t  c #ACCA14",
"y  c #3C4A04",
"u  c #445E04",
"i  c #94AA04",
"p  c #242A04",
"a  c #E4FA04",
"s  c #343E04",
"d  c #ACBA04",
"f  c #A4C21C",
"g  c #BCD224",
"h  c #444A0C",
"j  c #040A04",
"k  c #CCEA14",
"l  c #DCF20C",
"z  c #949A2C",
"x  c #BCC62C",
"c  c #E4FA24",
"v  c #1C1A04",
"b  c #ECFE04",
"n  c #2C3A04",
"m  c #141204",
"M  c #ACB23C",
"N  c #7C8A0C",
"B  c #6C722C",
"V  c #D4DA2C",
"C  c #4C4A14",
"Z  c #3C421C",
"A  c #CCE624",
"S  c #5C6A0C",
"D  c #242204",
"F  c #ACB624",
"G  c #BCDA04",
"H  c #7C8A1C",
"J  c #A4BA24",
"K  c #646E34",
"L  c #DCEE2C",
"P  c #C4DE1C",
"I  c #545E0C",
"U  c #ECFA24",
"Y  c #ACBA34",
"T  c #7C8614",
"R  c #9CB21C",
"E  c #2C3204",
"W  c #D4EA14",
"Q  c #34361C",
"!  c #DCFA14",
"~  c #DCEA34",
"^  c #E4FA14",
"/  c #B4CE24",
"(  c #1C1A14",
")  c #748214",
"_  c #CCE214",
"`  c #C4D21C",
"'  c #4C5608",
"]  c #B4D214",
"[  c #8C9A24",
"{  c #647204",
"}  c #CCDA14",
"|  c #A4BA06",
" . c #646A1C",
".. c #6C7E10",
"X. c #CCD61C",
"o. c #3C4A1B",
"O. c #4C5A05",
"+. c #9CAE0C",
"@. c #343E1C",
"#. c #444A1C",
"$. c #0C0A05",
"%. c #DCF214",
"&. c #ACBE3C",
"*. c #040604",
"=. c #ACC208",
"-. c #3C420C",
";. c #D4F214",
":. c #1C2609",
">. c #A4B214",
",. c #849A0C",
"<. c #343A0F",
"1. c #C4D614",
"2. c #DCFE04",
"3. c #748A14",
"4. c #D4EA27",
"5. c #94AE0A",
"6. c #2C2E14",
"7. c #E4FE06",
"8. c #747E24",
"9. c #ACBA24",
"0. c #94AA24",
"q. c #545A24",
"w. c #5C660C",
"e. c #84960C",
"r. c #BCCA1C",
"t. c #94A604",
"y. c #9C9E33",
"u. c #B4BE2C",
"i. c #BCD214",
"p. c #9CB214",
"a. c #E4F214",
"s. c #242E14",
"d. c #5C6A14",
"f. c #848E1C",
"g. c #647214",
"h. c #A4BE14",
"j. c #CCD62C",
"k. c #3C3E0C",
"l. c #6C6E2C",
"z. c #BCCE2C",
"x. c #CCD21C",
"c. c #747E11",
"v. c #3C3E14",
"b. c #B4BE44",
"n. c #ECFE14",
"m. c #BCDA14",
"M. c #CCDE1C",
"N. c #748608",
"B. c #D4F604",
"V. c #0C1604",
"C. c #D4EE0B",
"Z. c #748624",
"A. c #DCF624",
"S. c #141E0A",
"D. c #646E08",
"F. c #3C4E04",
"G. c #444E14",
"H. c #CCEE0C",
"J. c #DCF604",
"K. c #949E34",
"L. c #BCCA2C",
"P. c #E4FE1F",
"I. c #1C1E06",
"U. c #141608",
"Y. c #ACB634",
"T. c #7C8E0E",
"R. c #4C4E18",
"E. c #3C461C",
"W. c #5C6E08",
"Q. c #242604",
"!. c #ECFE1D",
"~. c #ACBE2C",
"^. c #2C3606",
"/. c #ACC61C",
"(. c #CCE614",
"). c #A4BE04",
"_. c #646E14",
"`. c #4C5E05",
"'. c #0C0E07",
"]. c #3C460C",
"[. c #A4B60C",
"{. c #ACBE24",
"}. c #9CAE14",
"|. c #BCD614",
" X c #C4DA1C",
".X c #242E04",
"XX c #A4C61C",
"oX c #2C3E04",
"OX c #A4BE24",
"+X c #343A1C",
"@X c #DCFE14",
"#X c #E4FE14",
"$X c #1C1E14",
"%X c #748614",
"&X c #CCDA1C",
"*X c #444E1C",
"=X c #DCF614",
"-X c #2C3614",
";X c #C4DA14",
":X c #748E14",
">X c #647614",
",X c #04020C",
"<X c #A4C20C",
"1X c #D4F20C",
"2X c #1C220C",
"3X c #44520C",
"4X c #748224",
"5X c #E4F224",
"6X c #DCF224",
"7X c #343614",
"8X c #C4DA0C",
"9X c #DCFA0C",
"0X c #748A0C",
"qX c #D4E62C",
"wX c #ACCA1C",
"eX c #3C4A0C",
"rX c #94AA0C",
"tX c #E4FA0C",
"yX c #343E0C",
"uX c #BCD22C",
"iX c #444A14",
"pX c #BCC634",
"aX c #1C1A0C",
"sX c #94AA1C",
"dX c #ECFE0C",
"fX c #14120C",
"gX c #7C8A14",
"hX c #CCE62C",
"jX c #24220C",
"kX c #9CB224",
"lX c #B4CE2C",
"zX c #CCE21C",
"xX c black",
"cX c black",
"vX c black",
"bX c black",
"nX c black",
"mX c black",
"MX c black",
"NX c black",
"BX c black",
"VX c black",
"CX c black",
"ZX c black",
"AX c black",
"SX c black",
"DX c black",
"FX c black",
"GX c black",
"HX c black",
"JX c black",
"KX c black",
"LX c black",
"PX c black",
"IX c black",
"UX c black",
/* pixels */
"                                                                                                    ",
"                                  '.I.I.I.I.I.I.I.I.I.I.I.I.I.I.I.*.                                ",
"                                  ; J.J.J.J.J.J.J.J.J.J.J.J.J.J.J.O.                                ",
"                                  e.2.2.2.2.2.2.2.2.2.2.2.2.2.2.2.I                                 ",
"                        *.*.*.*.*.e.2.2.2.2.2.2.2.2.2.2.2.2.2.2.2.I *.*.*.*.*.                      ",
"                      rXC.C.C.C.C.1X2.2.2.2.2.2.2.2.2.2.2.2.2.2.2.C.C.C.C.C.C..                     ",
"                      & 2.2.2.2.2.2.2.2.2.2.2.2.2.2.2.2.2.2.2.2.2.2.2.2.2.2.2.N                     ",
"                      & 2.2.2.2.2.2.2.2.2.2.2.2.2.2.2.2.2.2.2.2.2.2.2.2.2.2.2.N                     ",
"                +.O O C.2.2.2.2.2.2.2.2.2.2.2.2.2.2.2.2.2.2.2.2.2.2.2.2.2.2.2.k O O T.              ",
"                =.2.2.2.2.2.2.2.2.2.2.2.2.2.2.2.2.2.2.2.2.2.2.2.2.2.2.2.2.2.2.2.2.2.+               ",
"                =.2.2.2.2.2.2.2.2.2.2.2.2.2.2.2.2.2.2.2.2.2.2.2.2.2.2.2.2.2.2.2.2.2.+               ",
"          p.- - C.2.2.2.2.2.2.2.2.2.2.2.2.2.2.k . . . . . N.J.2.2.2.2.2.2.2.2.2.2.2.(.- - ;         ",
"          - 2.2.2.2.2.2.2.2.2.2.2.2.2.2.2.2.2.O           '.1X2.2.2.2.2.2.2.2.2.2.2.2.2.2.+.        ",
"          - 2.2.2.2.2.2.2.2.2.2.2.2.2.2.2.2.2.O           '.1X2.2.2.2.2.2.2.2.2.2.2.2.2.2.+.        ",
"          - 2.2.2.2.2.2.2.2.2.2.2.2.2.2.2.2.2.O           '.1X2.2.2.2.2.2.2.2.2.2.2.2.2.2.+.        ",
"          - 2.2.2.2.2.2.2.2.2.2.2.2.2.2.2.2.2.O           '.1X2.2.2.2.2.2.2.2.2.2.2.2.2.2.+.        ",
"          - 2.2.2.2.2.2.2.2.2.2.2.2.2.2.2.2.2._           '.1X2.2.2.2.2.2.2.2.2.2.2.2.2.2.+.        ",
"    t.| | k 2.2.2.2.2.2.2.2.2.2.2.2.2.2.2.2.2.C.| | | | | | 9X2.2.2.2.2.2.2.2.2.2.2.2.2.2.7 | | T.  ",
"    (.0 2.2.2.2.2.2.2.2.2.2.2.2.2.2.2.2.2.2.2.2.2.2.2.2.2.2.2.2.2.2.2.2.2.2.2.2.2.2.2.2.2.2.2.2.=.  ",
"    (.2.2.2.2.2.2.2.2.2.2.2.2.2.2.2.2.2.2.2.2.2.2.2.2.2.2.2.2.2.2.2.2.2.2.2.2.2.2.2.2.2.2.2.2.2.{.  ",
"    (.2.2.2.2.2.2.2.2.2.2.2.2.2.2.2.2.2.2.2.2.2.2.2.2.2.2.2.2.2.2.2.2.2.2.2.2.2.2.2.2.2.2.2.2.2.{.  ",
"    (.2.2.2.2.2.2.2.2.2.2.2.2.2.2.2.2.2.2.2.2.2.2.2.2.2.2.2.2.2.2.2.2.2.2.2.2.2.2.2.2.2.2.2.2.2.{.  ",
"    (.2.2.2.2.2.2.2.2.2.2.2.2.2.2.2.2.2.2.2.2.2.2.2.2.2.2.2.2.2.2.2.2.2.2.2.2.2.2.2.2.2.2.2.2.2.{.  ",
"    (.2.2.2.2.2.2.2.2.2.2.2.2.2.2.2.2.2.k =.=.=.=.=.=.=.=.=.=.=.=.=.=.=.=.=.=.=.=.=.=.=.=.=.=.=.;   ",
"    (.2.2.2.2.2.2.2.2.2.2.2.2.2.2.2.2.2.-                                                           ",
"    (.2.2.2.2.2.2.2.2.2.2.2.2.2.2.2.2.2.-                                                           ",
"    (.2.2.2.2.2.2.2.2.2.2.2.2.2.2.2.2.2.O T.T.T.T.T.T.T.T.T.T.T.T.T.T.T.T.T.T.T.T.T.T.T.T.T.T.T.S   ",
"    (.2.2.2.2.2.2.2.2.2.2.2.2.2.2.2.2.2.2.2.2.2.2.2.2.2.2.2.2.2.2.2.2.2.2.2.2.2.2.2.2.2.2.2.2.2.=.  ",
"    (.2.2.2.2.2.2.2.2.2.2.2.2.2.2.2.2.2.2.2.2.2.2.2.2.2.2.2.2.2.2.2.2.2.2.2.2.2.2.2.2.2.2.2.2.2.=.  ",
"    (.2.2.2.2.2.2.2.2.2.2.2.2.2.2.2.2.2.2.2.2.2.2.2.2.2.2.2.2.2.2.2.2.2.2.2.2.2.2.2.2.2.2.2.2.2.{.  ",
"    (.2.2.2.2.2.2.2.2.2.2.2.2.2.2.2.2.2.2.2.2.2.2.2.2.2.2.2.2.2.2.2.2.2.2.2.2.2.2.2.2.2.2.2.2.2.{.  ",
"    (.2.2.2.2.2.2.2.2.2.2.2.2.2.2.2.2.2.2.2.2.2.2.2.2.2.2.2.2.2.2.2.2.2.2.2.2.2.2.2.2.2.2.2.2.2.).  ",
"    4 O O B.2.2.2.2.2.2.2.2.2.2.2.2.2.2.2.2.2.2.2.2.2.2.2.2.2.2.2.2.2.2.2.2.2.2.2.2.2.2.2.C.O O rX  ",
"          i.2.2.2.2.2.2.2.2.2.2.2.2.2.2.2.2.2.2.2.2.2.2.2.2.2.2.2.2.2.2.2.2.2.2.2.2.2.2.2.+.        ",
"          - 2.2.2.2.2.2.2.2.2.2.2.2.2.2.2.2.2.2.2.2.2.2.2.2.2.2.2.2.2.2.2.2.2.2.2.2.2.2.2.+.        ",
"          - 2.2.2.2.2.2.2.2.2.2.2.2.2.2.2.2.2.2.2.2.2.2.2.2.2.2.2.2.2.2.2.2.2.2.2.2.2.2.2.+.        ",
"          - 2.2.2.2.2.2.2.2.2.2.2.2.2.2.2.2.2.2.2.2.2.2.2.2.2.2.2.2.2.2.2.2.2.2.2.2.2.2.2.+.        ",
"          - 2.2.2.2.2.2.2.2.2.2.2.2.2.2.2.2.2.2.2.2.2.2.2.2.2.2.2.2.2.2.2.2.2.2.2.2.2.2.2.+.        ",
"          / J.J.0 2.2.2.2.2.2.2.2.2.2.2.2.2.2.2.2.2.2.2.2.2.2.2.2.2.2.2.2.2.2.2.2.2.0 J.J.rX        ",
"          U.I.I.=.2.2.2.2.2.2.2.2.2.2.2.2.2.2.2.2.2.2.2.2.2.2.2.2.2.2.2.2.2.2.2.2.2.+ I.I.m         ",
"                =.2.2.2.2.2.2.2.2.2.2.2.2.2.2.2.2.2.2.2.2.2.2.2.2.2.2.2.2.2.2.2.2.2.+               ",
"                =.0 0 2.2.2.2.2.2.2.2.2.2.2.2.2.2.2.2.2.2.2.2.2.2.2.2.2.2.2.2.0 0 0 +               ",
"                E -.-.| 2.2.2.2.2.2.2.2.2.2.2.2.2.2.2.2.2.2.2.2.2.2.2.2.2.2.2.e.-.-.Q.              ",
"                      & 2.2.2.2.2.2.2.2.2.2.2.2.2.2.2.2.2.2.2.2.2.2.2.2.2.2.2.N                     ",
"                      & 2.2.2.2.2.2.2.2.2.2.2.2.2.2.2.2.2.2.2.2.2.2.2.2.2.2.2.N                     ",
"                      h S S S S S rX2.2.2.2.2.2.2.2.2.2.2.2.2.2.2.N.S S S S S <.                    ",
"                                  e.2.2.2.2.2.2.2.2.2.2.2.2.2.2.2.I                                 ",
"                                  e.2.2.2.2.2.2.2.2.2.2.2.2.2.2.2.I                                 ",
"                                  G.N.N.N.N.N.N.N.N.N.N.N.N.N.N.T 6.                                ",
"                                                                                                    "
};
