/* XPM */
static char *_3fa4017501343b9b36e54c744741e37[] = {
/* columns rows colors chars-per-pixel */
"50 50 9 1 ",
"  c black",
". c #010101",
"X c #000101",
"o c #000100",
"O c #010100",
"+ c #010000",
"@ c #010001",
"# c #000001",
"$ c white",
/* pixels */
"  .         .            .   ..X ... ..         ..",
"   .  .   .        .           . ..             ..",
" o.. O  .     X   .. .  .. .             ..     . ",
" ..  . ..     ..   .    . . . .                 . ",
".    . .. ...    .        ..                .     ",
"    ..  .    .       ..  .       .      ..        ",
" .  ..           .... ..  .. .    .              .",
"  .  .    . +               ..        .        ...",
"  ..      +  ..         o . .            ..   ... ",
"    .       .             . .           .. ..   . ",
"             .  .     .         ..    .    .   .  ",
"     .       .  ...                       .. .    ",
".        .     . .. .  ...                      .X",
".       . .    .X.. ..  .               .      .  ",
"       .  .        .. .   . .           .     @.. ",
"     .                O             .       . . . ",
"                                    X           . ",
"        .. .     .     ..              .          ",
"       ..        ..     .       ..   .  .. .. .   ",
"       .  .      .               .     . .   ..  .",
" .  .  .o.       ....            .     . .    ..  ",
" .   .  .....             .        .  ..          ",
" ..    #  .   .  .    .       .    .            . ",
"      .   .  .   . .  .        ..            .    ",
" ..     . .  . .   .                        .     ",
"     .      .. o       .  .            .  .      .",
"                ...   .    .       . .           .",
".    . .         .          .      ...       ..   ",
"                                       .. .       ",
".       .       .      .   ..           .. ..     ",
"         .               ..   .   .    ..         ",
"       .  ..  .        .  X.          ..      .. .",
".. .      .      .     .           .  ..          ",
"      ..                       .   .       .   .  ",
" ...        .   .    .   .     .  .     ..   ...  ",
"    .  .    .   .       ..                        ",
"..     ..   .               .      .  ..    .  .  ",
" +             ...    .     .        . .. .       ",
"   ..      .     ....     . ..           .       .",
" .  .. .     . . .  .   ..         .       .      ",
" .   .    ..         ... .               ..  ...  ",
"               .. .    ..     .    . .    .       ",
"   .  .  ...  .....  ..     .      .  .  ..      .",
"    .    ..   .  ..      . .  .  .        .  .   .",
" ..   .  . .     ..     . .   .   ..       .   .  ",
"     ...  ..                   ..  . .     .    . ",
"  .. .    .   .. .    .. .      .         ... .   ",
"  .. .         .   .       .    .         .       ",
"  O..                . .  ..             ...  .. .",
".                  .   .  .. . ....  .    .    .. "
};
