/* XPM */
static char *ac5d2b9a796c4274bf4701f791b88b54[] = {
/* columns rows colors chars-per-pixel */
"50 50 75 1 ",
"  c None",
". c #000061",
"X c #000063",
"o c #000064",
"O c #000066",
"+ c #000083",
"@ c #000085",
"# c #000FB8",
"$ c #000FB9",
"% c #0011BE",
"& c #0012BF",
"* c #0017C8",
"= c #0025E2",
"- c #0034FF",
"; c #0035FF",
": c #0036FF",
"> c #003AFA",
", c #093EFD",
"< c #093FFF",
"1 c #0040FF",
"2 c #0041FF",
"3 c #0646FF",
"4 c #0647FF",
"5 c #0945FF",
"6 c #0A45FF",
"7 c #0847FF",
"8 c #0A48FF",
"9 c #1049FF",
"0 c #1A4DFF",
"q c #1B51FF",
"w c #284AFF",
"e c #2A58FF",
"r c #345AFF",
"t c #3D60FF",
"y c #3E62FF",
"u c #4666FF",
"i c #4F6BFF",
"p c #4F6CFF",
"a c #506CFF",
"s c #526DFF",
"d c #536EFF",
"f c #536FFF",
"g c #5C68FF",
"h c #5673FF",
"j c #7384FF",
"k c #7585FF",
"l c #7880FF",
"z c #7887FF",
"x c #7A88FF",
"c c #7C8EFF",
"v c #828BFF",
"b c #858DFF",
"n c #A8ADFF",
"m c #B4B3FF",
"M c #B3B6FF",
"N c #B4B6FF",
"B c #B5B6FF",
"V c #B6B6FF",
"C c #B5BBFF",
"Z c #C2C2FF",
"A c #CAC7FF",
"S c #CBC8FF",
"D c #CECAFF",
"F c #CECBFF",
"G c #D7D4FF",
"H c #DFDFFF",
"J c #E5E4FF",
"K c #E6E4FF",
"L c #EDEAFF",
"P c #F6F4FF",
"I c #F6F5FF",
"U c #F9F7FF",
"Y c #FBF9FF",
"T c #FDFDFF",
"R c white",
/* pixels */
"   x<;;;;;;;;;;;;;;;;;;;;;;;;;;;;;;;;;;;;;;;;;;rn ",
" Zw7udddddddddddddddddddddddddddddddddddddddddde7g",
"Yh0BUGASSSSSSSSSSSSSSSSSSSSSSSSSSSSSSSSSSSSSSALJz7",
"M9cPlq3777777777777777777777777777777777777773ymJe",
"v2BC<*########################################=yLi",
"b2Bj>+XXooooooooXXXXoXXXoooXXXXXooooooooXXXXoX%7Dd",
"b2Bk>@oooooooooooooooooooooooooooooooooooooooo*8Dp",
"b2Bk>@oooooooooooooooooooooooooooooooooooooooo%8Dp",
"b2Bk>@oooooooooooooooooooooooooooooooooooooooo%8Dp",
"b2Bk>@oooooooooooooooooooooooooooooooooooooooo%8Dp",
"b2Bk>@oooooooooooooooooooooooooooooooooooooooo%8Dp",
"b2Bk>@oooooooooooooooooooooooooooooooooooooooo%8Dp",
"b2Bk>@oooooooooooooooooooooooooooooooooooooooo%8Dp",
"b2Bk>@oooooooooooooooooooooooooooooooooooooooo%8Dp",
"b2Bk>@oooooooooooooooooooooooooooooooooooooooo%8Dp",
"b2Bk>@oooooooooooooooooooooooooooooooooooooooo%8Dp",
"b2Bk>@oooooooooooooooooooooooooooooooooooooooX%8Dp",
"b2Bk>@oooooooooooooooooooooooooooooooooooooooX%8Dp",
"b2Bk>@oooooooooooooooooooooooooooooooooooooooX%8Dp",
"b2Bk>@oooooooooooooooooooooooooooooooooooooooo%8Dp",
"b2Bk>@oooooooooooooooooooooooooooooooooooooooo*8Dp",
"b2Bk>@oooooooooooooooooooooooooooooooooooooooo*8Dp",
"b2Bk>@oooooooooooooooooooooooooooooooooooooooo*8Dp",
"b2Bk>@oooooooooooooooooooooooooooooooooooooooo*8Dp",
"b2Bk>@oooooooooooooooooooooooooooooooooooooooo%8Dp",
"b2Bk>@oooooooooooooooooooooooooooooooooooooooo%8Dp",
"b2Bk>@oooooooooooooooooooooooooooooooooooooooo%8Dp",
"b2Bk>@oooooooooooooooooooooooooooooooooooooooo%8Dp",
"b2Bk>@oooooooooooooooooooooooooooooooooooooooo%8Dp",
"b2Bk>@oooooooooooooooooooooooooooooooooooooooo%8Dp",
"b2Bk>@oooooooooooooooooooooooooooooooooooooooo%8Dp",
"b2Bk>@oooooooooooooooooooooooooooooooooooooooo%8Dp",
"b2Bk>@oooooooooooooooooooooooooooooooooooooooo*8Dp",
"b2Bk>@oooooooooooooooooooooooooooooooooooooooo*8Dp",
"b2Bk>@oooooooooooooooooooooooooooooooooooooooo*8Dp",
"b2Bk>@oooooooooooooooooooooooooooooooooooooooo*8Dp",
"b2Bk>@oooooooooooooooooooooooooooooooooooooooX%7Dp",
"b2Bk>@oooooooooooooooooooooooooooooooooooooooX%7Dp",
"b2Bk>@oooooooooooooooooooooooooooooooooooooooo%8Dp",
"b2Bk>@oooooooooooooooooooooooooooooooooooooooo%8Dp",
"b2Bk>@oooooooooooooooooooooooooooooooooooooooo*8Dp",
"b2Bk>@oooooooooooooooooooooooooooooooooooooooo*8Dp",
"b2Bk>@oooooooooooooooooooooooooooooooooooooooo*8Dp",
"b2Bk>@oooooooooooooooooooooooooooooooooooooooo*8Dp",
"b2Bj>+XXXXXXooooXXXXXXXXooooXXXXooooXXXXXXXXXX%7Dd",
"v2BC<*########################################=yLi",
"M9cPlq3777777777777777777777777777777777777773rmJe",
"Yh0BUGASSSSSSSSSSSSSSSSSSSSSSSSSSSSSSSSSSSSSSALJz7",
"RZw7udddddddddddddddddddhdddddddddddddddddddddde7g",
"RRHx<;;;;;;;;;;;;;;;;;;;;;;;;;;;;;;;;;;;;;;;;;;rnP"
};
