/* XPM */
static char *d2fc1c346b2d41c5838a7e1aba0347a2[] = {
/* columns rows colors chars-per-pixel */
"50 50 175 2 ",
"   c None",
".  c #3A3A38",
"X  c #5C331D",
"o  c #64361F",
"O  c #45382E",
"+  c #553824",
"@  c #5C3B24",
"#  c #643723",
"$  c #663A25",
"%  c #6D3A25",
"&  c #6F3B28",
"*  c #753C26",
"=  c #793F27",
"-  c #733D29",
";  c #7C3F2A",
":  c #47423C",
">  c #4C4339",
",  c #4D493E",
"<  c #5A493B",
"1  c #614026",
"2  c #6E4221",
"3  c #63422C",
"4  c #6A412A",
"5  c #6D4A2B",
"6  c #744324",
"7  c #7B4227",
"8  c #7D4129",
"9  c #734D2C",
"0  c #7C4A24",
"q  c #614230",
"w  c #654936",
"e  c #6E4B35",
"r  c #784E37",
"t  c #764A32",
"y  c #6F5038",
"u  c #3F4442",
"i  c #424745",
"p  c #464A47",
"a  c #4C4942",
"s  c #464B48",
"d  c #4A4D4B",
"f  c #534D44",
"g  c #5C4E43",
"h  c #4D524E",
"j  c #565146",
"k  c #585347",
"l  c #57544C",
"z  c #595449",
"x  c #4F5450",
"c  c #515552",
"v  c #555955",
"b  c #585B55",
"n  c #5A5E59",
"m  c #634F41",
"M  c #635346",
"N  c #6B5546",
"B  c #63584B",
"V  c #705A49",
"C  c #7C5F4E",
"Z  c #745541",
"A  c #635D54",
"S  c #5E625C",
"D  c #7D604F",
"F  c #62655E",
"G  c #68685E",
"H  c #6D6153",
"J  c #7C695B",
"K  c #626660",
"L  c #656A63",
"P  c #6A6D65",
"I  c #6B6E69",
"U  c #6D7067",
"Y  c #6D726A",
"T  c #72766D",
"R  c #7D756F",
"E  c #74786E",
"W  c #787B6F",
"Q  c #737672",
"!  c #767A71",
"~  c #7A7D74",
"^  c #7A7D7A",
"/  c #814D27",
"(  c #84442C",
")  c #89472E",
"_  c #844B2B",
"`  c #8D4B2E",
"'  c #8A532C",
"]  c #93552F",
"[  c #925A2E",
"{  c #864733",
"}  c #8C4B30",
"|  c #934D32",
" . c #825432",
".. c #8E5331",
"X. c #865E35",
"o. c #8B5D36",
"O. c #965433",
"+. c #9B5334",
"@. c #945A32",
"#. c #9D5C35",
"$. c #9E513A",
"%. c #9F5D38",
"&. c #A15736",
"*. c #A35B36",
"=. c #A95F37",
"-. c #A3553A",
";. c #A35C39",
":. c #AA5D3A",
">. c #8A6036",
",. c #926537",
"<. c #9C6134",
"1. c #916438",
"2. c #A36535",
"3. c #A96536",
"4. c #A56A36",
"5. c #A86D37",
"6. c #AC633B",
"7. c #AB6D39",
"8. c #A06C3D",
"9. c #B2653C",
"0. c #B36A3D",
"q. c #BA6D3F",
"w. c #AD7139",
"e. c #B5753B",
"r. c #B8773E",
"t. c #B7783D",
"y. c #B9793E",
"u. c #806350",
"i. c #926D54",
"p. c #B26640",
"a. c #B56A40",
"s. c #BB6E42",
"d. c #BD7242",
"f. c #BF7C41",
"g. c #B77D4A",
"h. c #B07D5B",
"j. c #C26F45",
"k. c #C37443",
"l. c #C87647",
"z. c #C57A44",
"x. c #CA7D47",
"c. c #C77A48",
"v. c #CC7E48",
"b. c #7D8176",
"n. c #7E827A",
"m. c #808377",
"M. c #81857C",
"N. c #85897E",
"B. c #9D887B",
"V. c #BC8B6D",
"C. c #A58770",
"Z. c #C68244",
"A. c #CB8146",
"S. c #C78249",
"D. c #CE8149",
"F. c #D2844B",
"G. c #D68A4C",
"H. c #D98C4E",
"J. c #D7914B",
"K. c #DB934E",
"L. c #DC8D51",
"P. c #DE9252",
"I. c #E19654",
"U. c #E49856",
"Y. c #828482",
"T. c #868982",
"R. c #898D83",
"E. c #948F8D",
"W. c #8F9290",
"Q. c #939693",
"!. c #959992",
"~. c #9B9D9A",
"^. c #9FA29A",
"/. c #A2A5A1",
"(. c #A6A8A5",
/* pixels */
"                                        M.M.M.M.M.M.M.~ /.                                          ",
"                                      n.M.m.M.m.M.~ E E L                                           ",
"                                      ^ ! ~ ~ ~ n.Y L U !                                           ",
"                                        Y ~ ~ ~ n.E P L /.                                          ",
"                                        P ! ~ E ~ E T L I                                           ",
"                                  /.^ S n E ! Y ~ ! ! K S ^ ~.                                      ",
"                      E n.    Y.n.~ ~ L h E Y Y ! ! ~ S ! n.~ ~ !     T.~                           ",
"                  /.~ n.E E ! M.~ ! E P h ! b.n.b.~ ! F ~ T Y E ~ K M.R.N.~                         ",
"                ~.! ! E ! E F ! n.~ ! Y v U ! ~ ~ ! Y S b.! E E F K R.N.M.b.Y                       ",
"                Y ! E ! ! ~ Y S ! ! G g < N C V u.D N m A Y T T S n.N.M.M.N.! (.                    ",
"                  Y ! ! E E ~ F b m t _ O.+.;.' p.6.;.%.} r M v E N.m.b.b.~ M.                      ",
"                  K S ! E ~ E j @ O.#.#.6.6.6.@.k.s.a.a.9.6._ q P ~ ~ M.E S Y.                      ",
"                Q.b.L L T P f $ _ 0.6.6.s.d.d.2.F.v.c.k.d.s.O.;.3 l I P S ~ Y                       ",
"                ! b.! v n f 4 @...s.d.d.c.v.v.7.L.G.F.D.v.v.#.d.#.3 a b b.M.n.P                     ",
"              ^ ~ ! b.Y : 4 #.3.#.c.c.c.D.F.D.e.U.L.F.F.F.F.7.v.d.;.3 F b.M.M.E Q.                  ",
"              n T ~ b.F 4 #.0.e.2.F.F.D.G.G.F.y.U.L.G.F.F.G.0.F.z.d.%.w T n.~ Y S                   ",
"            ~.L F U ! < ..6.d.k.7.G.F.G.G.H.G.y.U.L.G.F.F.G.r.L.D.c.d.@.B Y L S S                   ",
"            ~ ! ! E A 9 2.s.c.x.7.G.F.G.H.G.G.y.U.G.F.F.F.F.e.G.F.c.d.7.e v E ! T M.                ",
"            E E E E M [ 0.c.D.D.e.K.G.L.G.F.F.r.I.F.F.F.F.F.e.G.F.A.k.d...A E E E n.                ",
"            E E E P Z 3.d.v.D.F.e.K.G.L.G.F.F.y.I.F.F.F.F.G.e.G.D.A.x.d.6.H Y E E !                 ",
"          n.F F F l  .q.z.D.F.G.r.K.G.H.F.F.F.e.I.F.F.F.G.H.e.J.F.D.c.d.d.y n F F n                 ",
"      Y.!.T.n.M.n.l @.v.F.F.H.G.y.U.G.G.F.F.F.e.P.H.G.G.H.H.t.P.G.F.F.D.k.5 S b.! b.!.^.T.          ",
"      L ! ! Y Y ! z 2.F.D.F.H.G.y.U.F.G.F.F.F.f.P.H.H.H.H.H.y.U.F.F.F.F.x. .F b.b.N.~ E n           ",
"      ! ~ ~ ~ E Y k 3.F.F.G.G.G.y.U.F.F.F.F.F.y.K.G.H.G.G.G.y.U.F.F.F.F.F.o.I ! ~ M.~ ~ n           ",
"      Q ~ ~ M.m.E j 2.D.F.G.G.F.y.U.F.F.F.F.F.e.K.G.P.H.F.F.y.U.F.F.F.F.H.1.E ! ~ b.~ ~ n           ",
"      L E ! ! ~ ! j 2.D.D.F.F.F.y.I.F.F.D.F.F.e.K.G.L.L.F.F.y.I.F.F.F.F.H.1.E b.! ~ ! E b           ",
"      K P L L P E j 2.c.v.F.F.F.r.U.F.D.D.F.D.e.K.F.G.L.F.F.y.U.F.D.D.D.K.1.I ! Y Y P K x           ",
"      v v c c v v , 2.F.D.F.F.F.e.P.D.D.D.F.D.7.P.F.F.G.F.F.r.P.D.D.F.D.K.X.d v v c x h p           ",
"          I E n.E j 2.F.F.F.F.F.7.K.D.c.v.D.v.7.P.F.F.F.F.D.7.K.v.c.D.v.H.X.b ~ b.S W.              ",
"          M.T.R.b.z 3.F.D.F.F.D.7.H.D.D.D.D.D.7.L.F.D.F.D.D.7.H.c.z.v.v.G.X.E n.E F                 ",
"          ^ ! M.~ z 2.D.F.F.F.D.e.J.D.D.D.F.D.e.H.v.v.D.D.v.e.G.z.k.k.k.F.>.E ~ ! L                 ",
"          ^ U ~ ~ z 3.D.F.F.F.D.e.H.D.D.D.D.D.e.G.v.v.v.c.v.e.H.d.h.V.V.S.,.I E Y F                 ",
"          ^ Y ~ E j 2.v.v.D.D.D.e.H.v.v.D.F.D.e.G.v.D.v.c.D.w.G.<.R ~.E.g.,.L Y F n                 ",
"          ^ P P K f 3.v.v.D.v.v.4.H.F.D.D.F.v.4.H.v.D.F.F.F.5.G.' : Y.F 8.X.n Y K n                 ",
"          K c c s : 4.D.v.A.v.D.5.K.F.D.D.F.F.e.P.F.D.F.F.F.w.G.i.Y.Q ~.C.5 d v c h Y.              ",
"      S ~ n.M.M.~ z 3.D.c.c.c.v.e.P.F.D.D.F.F.e.P.D.D.F.F.F.7.Z.J n . d B.1 L ~ ~ ~ E E n           ",
"      I b.~ b.b.! j 2.v.v.z.z.c.5.L.F.F.F.F.v.<.H.D.A.F.D.F.w.Z.N K c d J @ Y Y U E m.m.n           ",
"      Y ~ b.n.W E j 2.v.v.c.c.z.<.G.F.D.D.F.D.#.F.v.c.D.v.c.4.A.w ^ Y.^ g + Y I P b.T.~ n           ",
"      Q b.n.b.E Y j 2.v.z.k.d.k.[ G.v.v.v.v.v.<.F.z.c.c.z.c.<.A.2 O f > 6 1 ! ~ ! ~ ~ ~ S           ",
"      Y b.~ b.E Y j *.l.k.d.q.q.' F.l.k.c.c.k.<.F.k.k.c.k.k.[ z.*.#.#.*.k.9 Y M.b.b.~ E S           ",
"      P ~ ~ ! P L f #.k.s.q.9.9.' v.j.k.z.k.k.@.F.q.0.q.q.q.[ k.9.k.q.6.k.9 S ~ ~ ! ~ Y c           ",
"      n S b c v v a +.s.9.6.6.:.' c.s.q.k.q.q.] z.9.3.9.9.9.' q.#.=.#.O.0.5 i v v v v d u           ",
"          Y I ~ E f } :.&.*.*.&./ k.9.6.0.9.9.' k.=.*.:.:.:._ 9.` +.` ` 2.5 b ~ ~ K Q.              ",
"          ^ U ! ~ z ( +.+.+.+.O.0 s.:.:.6.:.6.' d.&.+.&.&.&./ 6.( _ 8 ( #.5 Y ~ E L                 ",
"          ^ E ! E z 8 | | | | ` 6 9.+.+.+.-.*._ 9.O.| O.O.| 6 &.8 8 7 7 ] 9 E ~ ! L                 ",
"          n.! E T j * ( ( ) ( ( % -.| } | O.| ( :.` ( ) ) ( % | * * 7 * _ @ P ! T U                 ",
"          n.! Y Y f % 8 = ( 8 * o +.( ( } } ) 7 -.( = 8 ( 8 o ( * * * * 7 + F E ~ E                 ",
"          ^ P L K a % * * = * % o | ( ; ( ( ( 7 $.; * * ; * X ; % % * % = @ n T ~ T                 ",
"          ! h c h : $ & % % % $ X ( - - - - - % { - % % & % X - # # $ $ % + p v v c                 ",
"                                                                                                    "
};
