/* XPM */
static char *_53d09be11c540a0b6edf83f3c12d4c7[] = {
/* columns rows colors chars-per-pixel */
"50 50 128 2 ",
"   c None",
".  c #010209",
"X  c #020309",
"o  c #030409",
"O  c #040509",
"+  c #050509",
"@  c #050609",
"#  c #060609",
"$  c #06060A",
"%  c #06070A",
"&  c #07070A",
"*  c #07080A",
"=  c #08080A",
"-  c #08090A",
";  c #09090A",
":  c #090A0A",
">  c gray4",
",  c #0D0C0A",
"<  c #0E0E0A",
"1  c #0F0E0B",
"2  c #100F0B",
"3  c #12110B",
"4  c #13120B",
"5  c #14120B",
"6  c #19170C",
"7  c #19180C",
"8  c #1C1A0C",
"9  c #29250E",
"0  c #2A260E",
"q  c #2B270E",
"w  c #2C280E",
"e  c #2D280E",
"r  c #2F2A0E",
"t  c #302C0E",
"y  c #312C0E",
"u  c #312D0E",
"i  c #312D0F",
"p  c #322D0F",
"a  c #322E0F",
"s  c #403910",
"d  c #494111",
"f  c #4C4412",
"g  c #514812",
"h  c #524912",
"j  c #524A12",
"k  c #554C13",
"l  c #5A5113",
"z  c #5B5113",
"x  c #5C5213",
"c  c #5D5414",
"v  c #5E5414",
"b  c #635914",
"n  c #645914",
"m  c #645A14",
"M  c #655A14",
"N  c #655B14",
"B  c #665B15",
"V  c #675C15",
"C  c #6A5F15",
"Z  c #736616",
"A  c #796C17",
"S  c #7C6F17",
"D  c #7F7117",
"F  c #847618",
"G  c #877818",
"H  c #887918",
"J  c #897A19",
"K  c #8A7B19",
"L  c #8E7E19",
"P  c #908019",
"I  c #918119",
"U  c #928119",
"Y  c #95841A",
"T  c #96851A",
"R  c #99881A",
"E  c #9A891A",
"W  c #9A891B",
"Q  c #9C8A1B",
"!  c #9D8C1B",
"~  c #A18F1B",
"^  c #A1901B",
"/  c #A2901B",
"(  c #A3911B",
")  c #A3911C",
"_  c #A4911C",
"`  c #B09D1D",
"'  c #B19D1D",
"]  c #B5A11E",
"[  c #B7A31E",
"{  c #B8A31E",
"}  c #BAA51E",
"|  c #BBA61E",
" . c #BCA71E",
".. c #BEA81F",
"X. c #C1AC1F",
"o. c #C2AD1F",
"O. c #C3AD1F",
"+. c #C7B120",
"@. c #C8B120",
"#. c #CDB620",
"$. c #D5BD21",
"%. c #D9C122",
"&. c #E0C622",
"*. c #E6CC23",
"=. c #E7CD23",
"-. c #E9CE23",
";. c #EACF24",
":. c #EAD024",
">. c #EBD124",
",. c #ECD124",
"<. c #EDD224",
"1. c #EFD424",
"2. c #F0D524",
"3. c #F5D925",
"4. c #F6DA25",
"5. c #FDE026",
"6. c #FEE126",
"7. c #FEE226",
"8. c #FFE226",
"9. c #FFE326",
"0. c #FFE426",
"q. c #FFE526",
"w. c #FFE626",
"e. c #FFE627",
"r. c #FFE727",
"t. c #FFE827",
"y. c #FFE927",
"u. c #FFEA27",
/* pixels */
"                                                                                                    ",
"                                                                                                    ",
"                                                                                                    ",
"                                                                                                    ",
"                                                                                                    ",
"                                                                                                    ",
"                                                                                                    ",
"                                                                                                    ",
"                                                                                                    ",
"                                                                                                    ",
"                                                                                                    ",
"                                    > > > > > > > > > > > >                                         ",
"                                    9 e e e e e e e e e e 9                                         ",
"                            > > > 4 [ ;.=.=.=.=.=.=.=.=.:.G # > > >                                 ",
"                            2 2 , 6 @.r.9.9.9.9.9.9.9.9.r.I , 2 2 2                                 ",
"                        # z | | | ..1.9.9.9.9.9.9.9.9.9.9.&.| |  .` a *                             ",
"                      # . n r.r.r.r.9.9.9.9.9.9.9.9.9.9.9.9.r.r.r.2.a o                             ",
"                      n D ` 9.9.9.9.9.9.9.9.9.9.9.9.9.9.9.9.9.9.9.3.Y D f                           ",
"                  > > ) y.r.9.9.9.9.9.9.9.9.9.9.9.9.9.9.9.9.9.9.9.9.r.r.V # >                       ",
"                  > > ( r.9.9.9.9.9.9.9.9.9.9.9.9.9.9.9.9.9.9.9.9.9.9.9.V # >                       ",
"                  > > ( r.9.9.9.9.9.9.9.9.9.9.9.9.9.9.9.9.9.9.9.9.9.9.9.n # >                       ",
"                  > > W 1.<.:.1.9.9.9.9.9.9.9.9.9.9.9.9.9.9.9.9.9.9.9.9.Z 7 8                       ",
"                      e a a a k 2.9.9.9.9.9.9.9.9.9.9.9.9.9.9.9.9.9.9.9.=.%.I > >                   ",
"                      * * * # a <.9.9.9.9.9.9.9.9.9.9.9.9.9.9.9.9.9.9.9.9.y.( > >                   ",
"                                b n n n n n Y 9.9.9.9.9.9.9.9.9.9.9.9.9.9.r.( > >                   ",
"                                # # # # # . j 9.r.r.r.r.r.r.9.9.9.9.9.9.9.r.~ > >                   ",
"                                > > > > > # d ( ( ( ( ( ~ #.9.9.9.9.9.9.9.r.~ > >                   ",
"                                              # # # # # o A r.9.9.9.9.9.9.r.~ > >                   ",
"                                              a a a a a e I r.9.9.9.9.9.9.r.( > >                   ",
"                                > > > > > # j -.<.<.<.<.:.3.9.9.9.9.9.9.9.r.( > >                   ",
"                                4 4 4 4 4 , z 9.9.9.9.9.9.9.9.9.9.9.9.9.9.r.( > >                   ",
"                        > > * a { X.X.X.X.X.$.9.9.9.9.9.9.9.9.9.9.9.9.9.9.r.( > >                   ",
"                      # # # # a 2.r.r.r.r.r.9.9.9.9.9.9.9.9.9.9.9.9.9.9.r.y.) > >                   ",
"                    > C K K K ! 3.9.9.9.9.9.9.9.9.9.9.9.9.9.9.9.9.9.9.9.` D n                       ",
"                  > > _ y.r.r.r.9.9.9.9.9.9.9.9.9.9.9.9.9.9.9.9.9.9.9.9.n . #                       ",
"                  > > ( r.9.9.9.9.9.9.9.9.9.9.9.9.9.9.9.9.9.9.9.9.9.9.9.V # >                       ",
"                  > > ( r.9.9.9.9.9.9.9.9.9.9.9.9.9.9.9.9.9.9.9.9.9.9.r.V # >                       ",
"                  > > W :.2.9.9.9.9.9.9.9.9.9.9.9.9.9.9.9.9.9.9.9.4.:.=.b # >                       ",
"                      9 9 S 9.9.9.9.9.9.9.9.9.9.9.9.9.9.9.9.9.9.9.1.j 9                             ",
"                      > o n 9.9.9.9.9.9.9.9.9.9.9.9.9.9.9.9.9.9.9.<.a #                             ",
"                          s v v v n %.r.9.9.9.9.9.9.9.9.r.[ x v v x                                 ",
"                            # # # 2 +.y.r.r.r.r.r.r.r.r.y.L o # # #                                 ",
"                            > > > 5 F Q W W W W W W W W Q C # > > >                                 ",
"                                    > > > > > > > > > > > >                                         ",
"                                    > > > > > > > > > > >                                           ",
"                                                                                                    ",
"                                                                                                    ",
"                                                                                                    ",
"                                                                                                    ",
"                                                                                                    "
};
