/* XPM */
static char *_4b0587eedba4136bf940ab2235223b8[] = {
/* columns rows colors chars-per-pixel */
"50 50 82 1 ",
"  c None",
". c #F5C60C",
"X c #FDCC0D",
"o c #EDC216",
"O c #EDC31B",
"+ c #F2C514",
"@ c #FFCF13",
"# c #F2C719",
"$ c #F4C91F",
"% c #FCCF1D",
"& c #FFD017",
"* c #FFD11C",
"= c #EBC323",
"- c #EAC32A",
"; c #F4CA24",
": c #FACE21",
"> c #F2CA2C",
", c #FFD223",
"< c #FFD42C",
"1 c #E7C436",
"2 c #E9C535",
"3 c #EFCA36",
"4 c #E7C53B",
"5 c #E8C63C",
"6 c #F5CE32",
"7 c #F3CE3E",
"8 c #FFD634",
"9 c #FED63A",
"0 c #FFD83E",
"q c #E7C642",
"w c #E8C640",
"e c #EBCA45",
"r c #E6C74B",
"t c #E7C84E",
"y c #F1CE44",
"u c #F6D245",
"i c #FAD543",
"p c #FFD944",
"a c #FFDB4C",
"s c #E7C954",
"d c #E9CB51",
"f c #E7CC5C",
"g c #E8CC5B",
"h c #FFDC54",
"j c #F4D559",
"k c #FFDE5C",
"l c #E7CD63",
"z c #E8CE65",
"x c #E7CE6B",
"c c #ECD166",
"v c #F0D464",
"b c #F5D967",
"n c #FEDF62",
"m c #E7D173",
"M c #E8D37A",
"N c #F0D775",
"B c #FFE065",
"V c #FFE16C",
"C c #FFE374",
"Z c #FFE57C",
"A c #E9D68B",
"S c #F4DD84",
"D c #FFE684",
"F c #FFE789",
"G c #FFE88D",
"H c #F7E293",
"J c #FFE994",
"K c #FFEB9C",
"L c #FFECA3",
"P c #FFEEAB",
"I c #FFEFB2",
"U c #FFF0B5",
"Y c #FFF1BB",
"T c #FFF3C3",
"R c #FFF4CB",
"E c #FFF6D3",
"W c #FFF7D9",
"Q c #FFF8DD",
"! c #FFFAE4",
"~ c #FFFBEC",
"^ c #FFFDF4",
"/ c #FFFFFB",
/* pixels */
"                                                  ",
"                      MzggzM                      ",
"                  t==6ujnnju6==t                  ",
"               l=>nLE~///^~!QTKn>=l               ",
"             zOiL!////^~~~!!!QQWTGiOz             ",
"            =6L~//^^~~!!!QQWWERRRRYF6=            ",
"          xoVQ/^~~~!!!QQWWEERRRTTYYYPnOx          ",
"         s$K~~~~!!!QQWWEERRRTTYYYUIPPLZ$s         ",
"        t;I~!!!QQQWWEERRRTTTYYUUIPPLLKKZ;r        ",
"       f;I!!QQWWWERRRRTTTYYYUIPPPLLKKJJGC$s       ",
"      M+KQWWWEERRRRTTTYYYUUIPPPLLKKJJGFFDB+M      ",
"      oZWEERRRRTTTTYYYUUIIPPPLLKKJJGFFDZZCao      ",
"     1iRRRRTTTTYYYYUUIIPPPLLLKKKJJGFFZZCCBB<1     ",
"     #LRTTYYYYYUUUIIPPPPLLLKKKJJGFFDZZCVBBkh+     ",
"    -kYYYYUUUIIIPPPPPLLLLKKKJJJGFFDZCCVBnkhh<-    ",
"    #KUUIIPPPPPPPLLLLLKKKKJJJGFFDZZCCVBnkhha0+    ",
"   wiPPPPPPLLLLLLLLKKKKKJJJGGFFDZZCCVBnkhhap0%5   ",
"   OCLLLLLLLLKKKKKKKKJJJJJGGFFDZZCCVBnkhhap09,o   ",
"   $GKKKKKKKKKKKKJJJJJJJGGFFFDZZCCVBnkhhap09<,.   ",
"  s8JJJJJJJJJJJJJJJJGGGGGFFFDZZCCVBnkkhap098<*Xs  ",
"  1aGGGGGGGGGGGGGGGGGGGFFFFDZCVBBnnkkhapp98<,&X2  ",
"  =kFFFFFFFFFFFFFFFFFFFFFDCBnkkkhhhaaaap98<,,*@=  ",
"  OBZZZDDDDDDFFFFFFFFFFFZVBBBnkkkhhaapp098<<,*&O  ",
"  OnZCZZZZZZZDDDDDFFDDDZCBBBBBBnkkhhaapp998<,**o  ",
"  o9BCCCCCCZZZZZZDDDDDZCCCCVVBBBnnkhhaap099<<,*+  ",
"  O*8kBVVCCCCCZZZZZZZZCCCCCCCCVBBBnkhhapp998<,*O  ",
"  =,,8anBBVVCCCZZZZZZCZZZZZZCCCVBBBkkhaap099<<,O  ",
"  -,<89phnBBVCCCCZZZZZZZDDZZZZCCCBBnkkhapp998<,-  ",
"  w,<890pahnBBVCCCZZZDDFFFFDDZZCCVBBnkhhap098<,5  ",
"  l:<99paahkkBBVCCZZDFFGGGGFFDZZCCVBBkkhapp99<:f  ",
"   $890pahhknBVCCZZFFGGJJJJGGFFDZCCVBnkhaap098$   ",
"   -890pahkkBBVCZZFFGJJJJJJJJGFFZZCVBBkkhap098-   ",
"   s<9ppahknBVCCZDFGJJKKKKKKJJGFDZZCVBnkhapp9<t   ",
"    ;0paahknBVCZDFGJJKKLLLLKKJJGFDZCVBnkhaap0;    ",
"    w9pahkkBBCCZDGJJKLLPPPPLLKJJGDZCCBBkkhap9w    ",
"     >pahknBVCZZFGJKKLPPPPPPLLKJGFZZCVBnkhap>     ",
"     s9ahknBVCZDFJJKLPPIUUIPPLKJJFDZCVBnkha9t     ",
"      1ahknBVCZFGJKLPPIYYYYIPPLKJGFZCVBnkha1      ",
"       3hkBBCCZFGJKLPIYYTTYYIPLKJGFZCCBBkh3       ",
"       m7kBBCZZFGJKLPUYTTTTYUPLKJGFZZCBBk7m       ",
"        xyBBCZDFGJKLPUYTRRTYUIPLKJFDZCBBux        ",
"          yBCZDFJKLPIYTREERTYIPLKJFDZCBy          ",
"           enZDFJKLPIYTRRRTYYIPLKJFDZne           ",
"            sjZGGJKLPUYTRRTYUPLKJGGZjs            ",
"              dbFKKLPIYTTTTYIPLKJFbd              ",
"                gvDKPUYYTTYYUPKDvg                ",
"                  MlcNSHHHHSNcl                   ",
"                       AAAA                       ",
"                                                  ",
"                                                  "
};
