/* XPM */
static char *d22c19942f344820b70faa04460315afUpMUpAeGQfw1SeRt[] = {
/* columns rows colors chars-per-pixel */
"50 50 207 2 ",
"   c #586166",
".  c #5F6867",
"X  c #5D656A",
"o  c #5F696A",
"O  c #686765",
"+  c #646868",
"@  c #70706E",
"#  c #636C73",
"$  c #6B6E71",
"%  c #666E79",
"&  c #62677A",
"*  c #716F70",
"=  c #6C7374",
"-  c #6E7A76",
";  c #6B757B",
":  c #6E797C",
">  c #66737B",
",  c #727474",
"<  c #757A75",
"1  c #7C7C75",
"2  c #73767A",
"3  c #737B7C",
"4  c #7C7D7B",
"5  c #807F7B",
"6  c #7B827D",
"7  c #7C887E",
"8  c #82837D",
"9  c #6D7582",
"0  c #6D7A84",
"q  c #6D7C8C",
"w  c #737C83",
"e  c #797E82",
"r  c #727D88",
"t  c #767A85",
"y  c #768183",
"u  c #7C8384",
"i  c #75828B",
"p  c #7C848B",
"a  c #7D898C",
"s  c #7D8987",
"d  c #748491",
"f  c #7B8594",
"g  c #7C8A94",
"h  c #7D8C9A",
"j  c #838584",
"k  c #818B86",
"l  c #8A8A86",
"z  c #81868A",
"x  c #838B8C",
"c  c #8A8C8A",
"v  c #918F8B",
"b  c #84928D",
"n  c #8D938D",
"m  c #8D9387",
"M  c #92938D",
"N  c #95988F",
"B  c #9B9F8E",
"V  c #828691",
"C  c #838C93",
"Z  c #8A8E93",
"A  c #848E99",
"S  c #8A8E9A",
"D  c #859194",
"F  c #8C9394",
"G  c #8E9A92",
"H  c #85939C",
"J  c #8C949C",
"K  c #8D999C",
"L  c #929594",
"P  c #949C96",
"I  c #9A9B95",
"U  c #93969C",
"Y  c #939B9C",
"T  c #9B9C9B",
"R  c #999592",
"E  c #A29F96",
"W  c #9CA192",
"Q  c #96A29D",
"!  c #9BA19D",
"~  c #A4A49C",
"^  c #A9A69D",
"/  c #A4AA9D",
"(  c #A9AC9D",
")  c #A7B09F",
"_  c #AAB29D",
"`  c #8493A2",
"'  c #8B95A3",
"]  c #8798A1",
"[  c #8D9BA4",
"{  c #8C9BA9",
"}  c #9295A1",
"|  c #939CA3",
" . c #999DA3",
".. c #949EAA",
"X. c #989EAA",
"o. c #929FB0",
"O. c #8FA1A5",
"+. c #95A1A2",
"@. c #9CA3A4",
"#. c #9EA9A5",
"$. c #95A1AB",
"%. c #9CA5AB",
"&. c #97A8AF",
"*. c #9DA9AB",
"=. c #97A5B2",
"-. c #9BA6B3",
";. c #9EACB3",
":. c #9BABBD",
">. c #9FB0B7",
",. c #A3A6A3",
"<. c #A4AAA4",
"1. c #ABACA4",
"2. c #A2A6AA",
"3. c #A4ABAC",
"4. c #ABADAB",
"5. c #B1AEA6",
"6. c #B2AFAC",
"7. c #A7B1A4",
"8. c #ADB2A4",
"9. c #A6B1AD",
"0. c #ADB2AC",
"q. c #AFBBAD",
"w. c #B2B2A6",
"e. c #B6BAA6",
"r. c #B2B4AC",
"t. c #B9B6AB",
"y. c #B3B9A9",
"u. c #BCBCAD",
"i. c #A1A6B1",
"p. c #A4ACB2",
"a. c #ABAEB2",
"s. c #A6AFBB",
"d. c #AAAEB9",
"f. c #A5B2B4",
"g. c #ACB3B4",
"h. c #AEB9B3",
"j. c #A5B1BB",
"k. c #ACB4BA",
"l. c #AEBABB",
"z. c #B3B5B3",
"x. c #B3BBB4",
"c. c #BCBCB4",
"v. c #B2B6BB",
"b. c #B3BBBC",
"n. c #BBBEBB",
"m. c #C1BEAD",
"M. c #C2BEB4",
"N. c #C1BEB9",
"B. c #BCC1AC",
"V. c #BCC3B4",
"C. c #B6C1BE",
"Z. c #BCC3BC",
"A. c #BFCAB9",
"S. c #C3C1AE",
"D. c #C4C3B5",
"F. c #C9C5B5",
"G. c #C6CAB5",
"H. c #CACAB6",
"J. c #C4C4BB",
"K. c #CAC5BB",
"L. c #C5CBBB",
"P. c #CBCABB",
"I. c #D0CDBB",
"U. c #CBD0BC",
"Y. c #A6B5C2",
"T. c #ABB5C4",
"R. c #ACBBC3",
"E. c #ACBCCB",
"W. c #B1B7C4",
"Q. c #B4BCC3",
"!. c #BABEC2",
"~. c #B2BFCD",
"^. c #AFC2C8",
"/. c #B5C1C4",
"(. c #BBC3C4",
"). c #BFC9C3",
"_. c #B3C3C9",
"`. c #BDC5CA",
"'. c #BBC4CA",
"]. c #BDCACA",
"[. c #B6C8CA",
"{. c #B4C3D2",
"}. c #BBCAD3",
"|. c #BAC1D3",
" X c #C4C5C2",
".X c #C9C6C0",
"XX c #C4CBC4",
"oX c #CCCBC3",
"OX c #C2C6CA",
"+X c #C4CACB",
"@X c #CBCCC9",
"#X c #D2CDC6",
"$X c #CDD1C1",
"%X c #C7D6CF",
"&X c #CDD1CA",
"*X c #D2D2C5",
"=X c #D3D3CC",
"-X c #D5D8CF",
";X c #D3D8C2",
":X c #C6CDD4",
">X c #C6CED9",
",X c #C5D2D3",
"<X c #CDD3D3",
"1X c #CBD4DA",
"2X c #C4D1D9",
"3X c #D3D4D2",
"4X c #D3D9D9",
/* pixels */
"Z.0.P x.n Q <.G 9.s G #.- Q P 7 ,.* I T , Z U +  .Z = 2.u 2 v.@.z n.Z x Q.V 3.Y H 3.z *.@.F *.D 3.$.",
"4X X0.<Xg.C.).#.].9.h.C.Q ).9.Q +XU 2.v.T !.v.z !.v.} OXa.U !.v.J `.;.| (.K k._.p.<X .`.Q.;.:X+.'.Q.",
"].k.2.OXX.d.Q.K j.| %.p.K k.[ x a.Z U 2.z @.| 3 2.} p i.A t %.%.A s.h a -.r A J A s.d -...' T.h j.p.",
"3.U V 3.t K i.p K r C D : ] D 0 C ; u T X p p   S p # | w # %.[ > O.y i %.i { f i H q ] h h O.q | H ",
"+Xv.2. X@.g.(.P n.F 0.g.x 0.l.Q (.K +.`.C f.Q.p /.*.D ,X[ a 2X>.b %X#.9.C.O.[.f.f.^.[ ^.>.O.{.O.R.g.",
"<X!.2.OXg.n.n.Y b.U l.b.Y l.l.K ].Y +./.D 3.b.s `.p.H [.C i [.K Q %X+.+.#.s f.O.&.[.h ^.&.g }.h s.p.",
"X.X.V i.S S U J X.z S C C X.H t C ; 3 F u x F + C u 3 K : y H : y K s D K i u y g =.f { q q :.q C x ",
"S X.S i.z e } !.!.a.Z ; F p.%.f.u 3 - T (.Z.0.k + - F 3.9.f.D s b Q l./.C.K ; p i.p.^...0 =.o.h p.3.",
").XX0.XX~ m V.oXP.V.W 8 7.8.7.0.<.6 l Z.=XN.J.K.1 m z.z.g.n.g.G y.;XG.U.P.$XM / 0.h.x.9.3.*.(.| Q./.",
").XX<.V.1.y.L.e.G.L.e.B 8.7.7.y.0.,.c..XJ.oXP.K.( ^ t.z.4.z.0.,.S.H.H.H.G.L.1.5.y.0.x.n.#.s Q s +.Y ",
"f.%.u Q L  X.XN.J..XP.0.0.<.4.0.1.,. X.XM.M.M.K.m.^ t.c.r.z.g.0..XN.=XoX.XJ.n.4.z.a.v.`.2.V } u K C ",
"j.+.u ,.L N.N.oXJ.N.N.1.1.,.g.4.x.~ J..XM.K.M.#Xm.E 5.t.z.x.z.g.K.K.#X XoX Xz.a.a.g.a.Q.d.p.T.D Q.k.",
",X(.<.XX1.L.M.F.F.D.u.^ ( ( 0.1.z.4. X Xn.#XoXN.M.6.t.r.0.b.g.3.N.#XF.D.oX.X1.c.r.v.0.b.3.9.l.D g.h.",
"l.g.P 0.~ J.I.F.F.F.m.~ 8.1.0.0.3.@.g. X X.X#XK.~ E z.b.g./.f.F 1.#XoX.X=Xn.m ,.z.b.g.b.K D K y a x ",
"+.| 9 U c E  XN.K.N.^ v ,.1.4.z.X.C x (.<X X@Xt.< j 3.b.l.l.+.r U a.3X@X XY t p s.b.j.j.g g O.a K D ",
"T.p.S k.U e a.!..X6.5 O I 4.2.2.u r # Y v.!.!.2 $ ,  .g.s.3.H 0 e Z OXa.@.2 4 s @.l.%.| d ;.{.O.Q.k.",
">X'.2.1Xi.r J v.a.T < @ v 5.t.N.U 9 9 S -.d.%.t # 3 g.!.!.OX2.3 u ,.*.@.3.k < M V.J.@Xx.y >.R.h j.*.",
"%.@.a ;.' | p.f.v.X.j l r.K.F.M.v.C V a.k.*.2.p.u K (.+X X@Xz.R n 3.0.9.q.Q m 8.;XP.#X-XQ y H h [ g ",
"F F 3 Y J a.Q.p.a.a.,.,.N.I.F.F.oXz.2.r.g.1.8.z.P c.P.P.F.P.P.u.0.x.f.3.9.#.0.U.U.P.K.&XC.K >.h ;.Q ",
"C.3.Y /.3.f.l.k.a.z.6.w.M.M.m.H..XJ.8.1.y.y.7./ W L.U.G.F.S.I.M.z.x.0.*.#.<.z.&XP.-XoX.X].f.}.h [.f.",
"XX0.<.,X0.9.9.0.0.4.~ 8.J.H.S.H.P.u.( 1.u.8.( _ B H.H.F.H.G.H.w.,.a.a.3.3.9.g..XoX*X.X=Xb.i O.d { h ",
"! k k h.Q g.g.<.4.w.1.y.H.H.S.H.oXZ.r.w.w.8.8.w.8.J.oXK.F.$X#Xt.,.v.g.3.g.f.x.XX@XL.J.=Xh.a ] i ] f ",
"Q u k g.P 0.z.3.0.t.8.t.D.c.u.#XoXz.a.a.4.g.g.! ! z.@X XN.3X X2.X.n.k.3.g.3.#.c.@XoX&X@X9.l._.h R.*.",
"<X4.g.3X#.0.0.0.r.<.I ~ M.F.M.#XOXV e d.W.4.2. .2 F :X1XOX<Xi.e z 4.a.3.k.+.y n oX.X&X Xa $.j.H l.#.",
"(.Y ,.v.L L 1.,.2.~ 8 8 ~ M.N.v.C t % D %.*.| # = t | k.i.p.f 9 * Z a.a.J 3 < < l c.z.P D y g i h f ",
"} u S 2.e Z 6.z.6.E 5 1 v ,.1.2.a : 0 *.b.h.f.K o y +.k.f.k.H 9 c r.n.OXg. .3 6 Q <.r.T s h Y.q { { ",
"W.X.a.!.U 2.!..XoXv.I l E r.6.4. .b G C.XXZ.A.y.7 G 7.f.9./.3.F 1.-XJ.+XXXb.F #.r.<.g.0.K &.{.d l.l.",
":Xv.v.OX2..X@X.XoXK.6.,.a.v.z.6.x./ q.L.A.V.L.L.7.7.q.7.7.C.l.3.n.=XZ.L.XX%X3.h.0.4.<.0.*.h { i K H ",
"} Z c 2.E .X@XM.M.J.c.6.6.z.4.4.y.7.V.G.B.B.H.H.e._ y.1.7.h.9.<.D.F.J.XXXX).h.#.0.3.<.g.%.f ` q ` g ",
"Y U L z.E .XK.N.D.P.J.w.4.4.0.t.8.( D.L.S.F.H.S.u.( w.1.9.q.f.7.H.F.P.L.XXA.C.7.V.<.0.b.%.&.{.` ^.Y.",
"!.!.r.@X1.$XK.P.S.H.m.( 1.1.1.4.t.1.J.oXK.K.M.F.w.^ t.,.6.v.v.,.B.I.G.L.A.).q.9.0./ 3.9.$.[ E.h :...",
"v.a.T C.~ .XD.F.D.H.c.5.y.t.0.1.z.T z.J.N.K.M.I.M R z.,.v.k.2.j / ;XV.XX).).n Q 0.C.3.#.%.r d q g y ",
"F F p @.t @.<Xn. XXXT l 4.t.0.0.,.e p g.+X+XC.@.3 p @.3.g.k.A ; y #.[./.+XK ; s #.#.9.#.i $.:.g 3.+.",
"b.*.Y /.u u a.Q.v.v.6 , N ,.1.0.n y a +.p.b.p.u = 3  .k.'.g.C w y a f.k.*.p : - @.x./.#.y ;.{.h Q.l.",
"1Xb.p.,XC e  .a.a.2.1 @ T r.c.n.T j x ,.4.3.3.L 2 n g.n. XOX2.j u Y f.*.3.F 3 M Z.A.A.b.x V $.A | H ",
"+.D a 3.z Y g.g.a.0.L I c.J.P.P.n.T T g.z.4.0.z.M z.@XZ. X=XN.T P x.g.<.b.<.M V.=XV.V.&X#.e C d g p ",
"K b a #.D f.Q.a.a.z.,.r.F.D.D.M. Xn.r.<.~ 6.w.1.6.c.J.K.K.K.F.t.1.<.t.z.<.1.6.J.G.K.D.K.w.@.4.V v.a.",
"+XC.g.].#.g.z.0.6.r.5.u.D.m.m.D.J.c.r.1.1.5.1.,.^ M.F.M.M.K.K.t.1.8.4.1.1.6.1.oXG.$XD.B.r.,.v.c g.p.",
"f.*.*.b.Q x.g.b.6.6.1.m.F.m.F.P. Xt.<.4.t.1.~ w.E K.P.N.m.K.#Xw./ V.4./ z.t.I #XoXP.c.J.c.l  .z h f ",
"D x a Y F b.v.4.z.r.5.m.m.m.F.D.J.Z.4.! 1.4.1.<.1.M.N.oXK.M.K.M.8.0.0.g.2.z.1.J.c.L.V..Xb.j } p H H ",
"9.@.K (.C 0.b.z.r.z.~ ^ #Xu.S.F.Z.K Q 3.<.3.r.,.j 1.J.Z.n..XL.N n 9.b.#.a.2.l d.XXx.XXXX3.f.Q.| g.r.",
",Xb.f.].Y @.b.v.!.,.1 5 5.D.D.J.T a s K g.v.Q F . F b.XX<XXXY u s #.l.k.W.} t V b.<XC.].| a Q.C v.r.",
"l.J F *.p u  .T 4.c j 5 l t.1.0.F 3 t a F *.K y - : @.f.9.3.s : - K J [ | r t 9 F *.*.$.y q $.i i y ",
"+.a x 2.a V X.Z L e Z Z , Q j l @.; C Z   a K ; f.w J $.0 a %.i s O.i g ` 9 o.S 0 x D p i h { i H C ",
",X'.k.1XX.W.v.} :X2.v.k.F XX3.@.OXU  XOXz g.Q.U }.| %._.H [ ,XK &./.O.>.T.' ~.T.A _.[ ;.j.=.}.' d.z.",
":X(.p.OX' k.p.V Q.H } X.3 f.Y J a.S  . .e %.Z p | K C s...' R.f g >.D [ T.q T.X.V Q.| -.;.{ T.` p.a.",
"*.U S i.t ' ' 9 S 9 V H # D p a T 5 j j + L 2 $ z ; ; H p r [ > # D > ; } 9 S V % S p u A r f r p p ",
"g.%.3.W.J J | r X.p K %.a | K F a.j 4.a.4 a.X.Z !.p K d.C ' W.C C g.Y H ~.V o.X.e v.t U 2.p -.f @.} ",
"3X3Xv.4Xd.k.|.X.OXz.4. XU n.v.<.(.,.z.z.L b.z.F b.2.Y !.2. .(.4.J l.| X.!.X.d.(.U v.p.a.b.i.+X2.v.n.",
"c.n.T !.U K 3.u ,.T v 1.8 ,.Q Z #.j L L = L c $ U z 2  .j u  .z e X.u u  .e F 2.4  .Z L  .F 4.x I ! "
};
