/* XPM */
static char *f67c29281c4645879be5cca056268a8a[] = {
/* columns rows colors chars-per-pixel */
"50 50 90 1 ",
"  c #2F2F2F",
". c #31302F",
"X c #313131",
"o c #3E3D3C",
"O c #41403F",
"+ c #3E3F40",
"@ c #3B4346",
"# c #3A4448",
"$ c #464545",
"% c #484747",
"& c #494847",
"* c #42474D",
"= c #444A4D",
"- c #4B4A4A",
"; c #514F4D",
": c #434D51",
"> c #454E58",
", c #43545A",
"< c #555454",
"1 c #5A5856",
"2 c #52585F",
"3 c #5D5D5D",
"4 c #4A5763",
"5 c #455860",
"6 c #495D65",
"7 c #4A5F68",
"8 c #575D63",
"9 c #4E5E70",
"0 c #4C656E",
"q c #4F6374",
"w c #51647A",
"e c #636363",
"r c #6C6C6C",
"t c #757575",
"y c #777778",
"u c #7C7C7C",
"i c #546A84",
"p c #4F7888",
"a c #517A8A",
"s c #5F7794",
"d c #627791",
"f c #558496",
"g c #598B9E",
"h c #5E80A9",
"j c #5F8BAC",
"k c #5B91A6",
"l c #5C97AC",
"z c #5D98AF",
"x c #5E9DB5",
"c c #5F9FB8",
"v c #608CAF",
"b c #6084B0",
"n c #6791BE",
"m c #5FA0B8",
"M c #60A0BA",
"N c #6894C4",
"B c #659FC6",
"V c #6A99CD",
"C c #63A3C3",
"Z c #66A5CC",
"A c #68A7D1",
"S c #6AA8D6",
"D c #6EA1DD",
"F c #6CAADD",
"G c #6EABE2",
"H c #70A6E7",
"J c #73AAEC",
"K c #7AAEEF",
"L c #73AEF1",
"P c #75B1F3",
"I c #77B3FE",
"U c #7BB4FE",
"Y c #818181",
"T c #878889",
"R c #8C8C8C",
"E c #969696",
"W c #979898",
"Q c #9C9C9C",
"! c #A2A2A2",
"~ c #A9A9A9",
"^ c #B3B3B3",
"/ c #BABABA",
"( c #81B7FE",
") c #85B8FE",
"_ c #8BBBFE",
"` c #93BEFE",
"' c #9CC1FE",
"] c #A4C4FE",
"[ c #AAC7FE",
"{ c #C5C5C5",
/* pixels */
"<<<<<<<<-%%%%%%%%%%%%%%%%%%%%%%%%%%%%%%-<<<<<<<<<<",
"uuuuuuuuytttyuuuuuytttttttttttttttttttttyyyYYYYYYY",
"WWWWWWWWWWWW!!!!!!!WWWWWWWWWWWWWWWWWWWWWWWW!!!!!!!",
"<<<<<<<<<<<<<<<<<<<<<<<<--<<<<<<<<<<<<<<<<<<<<<<<<",
"::::::::::::::::::::::::#@::::::::::::::::::::::::",
"kzzzzzzzzzzzxxxxxxxxxxxxxxxxxxxxxxxxxxxzzzzzzzzzzl",
"BAAAAAAAAAAZMMMMMfpaaaaaaaaaaaaaaagMMMMMAAAAAAAAAZ",
"JIIIIIIIIIIPCcMMm,.XXXXXXX.XXXXooo0MMMcCIIIIIIIIIP",
"JIIIIIIIIIIIGSMMc5OtuuuuuuYYuuuyrO0MMmFGIIIIIIIIIP",
"JIIIIIIIIIIIIJMMc6-~^^^^^^/^^^^!R$0McCPIIIIIIIIIIP",
"JIIIIIIIIIIIIILSc6-!^^^^^^^^^^^QR$0MFPIIIIIIIIIIIP",
"JIIIIIIIIIIIUUIFc6-!^^^^^^^^^^^QR$0MGIIIIIIIIIU(UP",
"JIIIIIIIIIIU]'IFc6-!^^^^^^^^^^^QR$0MGIIIIIIIII(]_P",
"JIIIIIIIII)_]'IFc6-!^^^^^^^^^^^QR$0MGIIIIIIII_`[`P",
"JIIIIIIIII'[['IFc6-!^^^^^^^^^^^QR$0MGIIIIIIIU][[`P",
"JIIIIIII)'][['IFc6-!^^^^^^^^^^^QR$0MGIIIIII_'][[`P",
"JIIIIIIU_[[[]'IFc6-!^^^^^^^^^^^QR$0MGIIIIIU'[[[]_P",
"JIIIIIU'][[])UIFc6-!^^^^^^^^^^^QR$0MGIIII_]][['UUP",
"JIIII(_[[[]'UIIFc6-!^^^^^^^^^^^QR$0MGIIU(`[[[]`IIP",
"JIIII'[[[[_IIIIFc6-!^^^^^^^^^^^!R$0MGII(][[[]UIIIP",
"JII)`][[]`(IIIIFc6-!^^^^^^^^^^^!R$0MGII([[['_UIIIP",
"JII`[[[[`IIIIIIFc6-!^^^^^^^^^^^!R$0MGII([[[)IIIIIP",
"J)'][[]_(IIIIIIFc6&W!^^^^^^^^^/~R$0MGII([')UIIIIIP",
"J_[[[]'IIIIIIIIFc6%R!^^^^^^^^//~E$0MGII(]`IIIIIIIP",
"J_[[[)UIIIIIIIUFc6%R!^^^^^^^^//~E$0MGUIIUUIIIIIIIP",
"J_[]'UIIIIIIIJNjf,%R!^^^^^^^^//~R$6fvNLIIIIIIIIIIP",
"J_[_IIIIIIIIUV$+oo-R!^^^^^^^^//!R%ooo*DUIIIIIIIIIP",
"J(_(IIIIIIILhduyy<-R!^^^^^^^^^/!R%<yyusbPIIIIIIIIP",
"JIIIIIIIIIIJ>1^^^e%R!^^^^^^^^^/!R$r^^~;4JIIIIIIIIP",
"JIIIIIIIIIIJ><Q!Q3%R!^^^^^^^^^/!R$e!!W-4JIIIIIIIIP",
"JIIIIIIIIIUK98RRR<%R!^^^^^^^^^/!R$3RRT2wLIIIIIIIIP",
"JIIIIIIIII`]Kn%%%$-R!^^^^^^^^//^W%$%$-VLIIIIIIIIIP",
"JIIIIIIIU_']UDiq7*-R!^^^^^^^^//^Q%=7qiHIIIIIIIIIIP",
"JIIIIIII_[[]UIIFc6%R!^^^^^^^^//^Q%0MFIIIIIIIIIIIIP",
"JIIIIIU`'[[]UIIFc6%R!^^^^^^^^//^Q%0MGIIIIIIIIIU`)P",
"JIIIII([[[[]UIIFc6%R!^^^^^^^^//^Q%0MGIIIIIIIII)[`P",
"JIIII`][[[`(IIIFc6%R!^^^^^^^^//^Q%0MGIIIIIIIU'][`P",
"JIIU(][[]])IIIIFc6%R!^^^^^^^^//^Q%0MGIIIIIIU)][[`P",
"JII`[[[[`IIIIIIFc6%R!^^^^^^^^/{/Q%0MGIIIIII`[[[[`P",
"JII`[[]`_IIIIIIFc6%R!^^^^^^^^/{^Q%0MGIIIIU_'[[]`)P",
"JII`[[]IIIIIIIIFc6%R!^^^^^^^^^/^Q%0MGIIII_[[[['IIP",
"JII`[`)IIIIIIIIFc6%R!^^^^^^^^^^^Q%0MGIIII_[[]_)IIP",
"JII`]UIIIIIIIIIFc6%R!^^^^^^^^^^^Q%0MFIIII_[[]UIIIP",
"JIIUUIIIIIIIIJCMc6%R!^^^^^^^^^^^Q%0MMZPII_[_UIIIIP",
"JIIIIIIIIIIILFMMc6%E!^^^^^^^^^/^Q%0MMMGLI_'(IIIIIP",
"JIIIIIIIIIIICMMMc6%E!^^^^^^^^/{/Q%0MMMMZIIUIIIIIIP",
"AFFFFFFFFFFFMMMMc6%E!^^^^^^^^/{^Q$0MMMMCFFFFFFFFFS",
"zcccccccccccccccc6%R!/^^^^^^^/{^Q%0Mcccccccccccccc",
"67777777777777777@o;<333333333ee3$=777777777777777",
"oooooooooooooooooXX.           ooooooooooooooooooo"
};
