/* XPM */
static char *d21eafed8ed54f38ab4405bc1d45c000[] = {
/* columns rows colors chars-per-pixel */
"50 50 90 1 ",
"  c #26650A",
". c #28660B",
"X c #2D6C0D",
"o c #2E710D",
"O c #31730E",
"+ c #2E6B12",
"@ c #326E12",
"# c #346F19",
"$ c #3A6E1F",
"% c #357413",
"& c #3B7516",
"* c #377814",
"= c #3C7A16",
"- c #36741A",
"; c #3B741C",
": c #377819",
"> c #3D7A1A",
", c #3D7421",
"< c #3E7A21",
"1 c #40771F",
"2 c #427D1B",
"3 c #417621",
"4 c #457C22",
"5 c #497E22",
"6 c #46811C",
"7 c #49821E",
"8 c #54841E",
"9 c #5B8B1C",
"0 c #468125",
"q c #4C8524",
"w c #4F8924",
"e c #4A8528",
"r c #4F8929",
"t c #518724",
"y c #5B8221",
"u c #538A25",
"i c #5B8C25",
"p c #558E2A",
"a c #588F29",
"s c #569427",
"d c #5B9127",
"f c #5D9923",
"g c #56912C",
"h c #5B932A",
"j c #5D992A",
"k c #5A9630",
"l c #5E9933",
"z c #638D24",
"x c #6A8E23",
"c c #649326",
"v c #6B9325",
"b c #619D25",
"n c #6E9927",
"m c #659629",
"M c #629B2D",
"N c #6A9A2A",
"B c #709A27",
"V c #719D29",
"C c #649D32",
"Z c #689F33",
"A c #67A22D",
"S c #6AA32E",
"D c #6FA92F",
"F c #72A42C",
"G c #73AA2F",
"H c #66A133",
"J c #6BA434",
"K c #6EA933",
"L c #6BA539",
"P c #6FA839",
"I c #73A634",
"U c #7BA634",
"Y c #72AC33",
"T c #73AC3A",
"R c #7DAE39",
"E c #76B233",
"W c #79B535",
"Q c #77B03D",
"! c #7AB33E",
"~ c #7FBB3D",
"^ c #7DB641",
"/ c #7FB942",
"( c #80BC3F",
") c #83BC44",
"_ c #86C145",
"` c #88C245",
"' c #87C148",
"] c #8BC449",
"[ c #8EC84C",
"{ c #94CE4F",
/* pixels */
"uuuuuu0l]PuuT'Mtuu6o6q$+OquuuuuuuuuuuuuuuuuuuuuuT{",
"uuuuuu0k)JuuCTTMpJho2t4>=>7uuuuCJpuuuq5tq5quu0qMTT",
"uuudau0gYMuuqp^Tj^J@2uuuq*=quph^!aupd5;q5$0pu34KMu",
"uud!Tu0uncuuuugHYJwX2uuuu7=*7C/Thpuh^h%4>%6uu035qu",
"uupPQJptzit0qu0dGd2*7q5quu=XhT!a5uuM)A*::*7hJg4,>6",
"uppeC)Juuuq;4u0uviuupt35uu2*T!p3,qujESq%*0wJ)Jq0*X",
"uCQguCQTpu0%2u0uxiuuJ/Tp4qMPJMu4,30dVmqO%eMKJdq0% ",
"uT]C0eQ(duq==70uziaCT))p-qT`Mtuq4,17iiqO%qSSuhCe>@",
"uT'C0eKYpuut=*quuuC)Hrp>%qSEjuuuq0**0uq@&uvca!^dqq",
"uJ~Mtquuu55u=O7upMJHpqt*X0mVduuuuq%X<CTq2uiNTTJpuu",
"uMGaqu;;t1;q=O7upGSqquu>%qizidMuqu>%0T]MuutH`Jtuuu",
"ucv54q**q=%4-X7uuvvuuu045uuuuJ)p3ttquT'MuuuMWMuuuu",
"uzx&;u6==*:022quuiiuuq00quupMTT5#tpuuP(htpJTAduuuu",
"uzz=*qu6o:edaudduuuudpqqpdpaGSq#%ququMYhta~!puuuuu",
"uuuq2*77o-p^Jd^TpuupT!pqj^Ppvi,,0t430ivaupnnuuuq00",
"27up2X26X-pRJdRIuuup)`dqj)Tuz8#,pJq#4ixawqiiuwqqqq",
"o=tu2@27@;tvcavzuutuQ)hudYSut2%>l'so4ixiq0uuuqquuu",
"6=*qt7qt7quiMSciuu7*uJ^Hanmt=*7qZ]sX0uiqqquwqquuuu",
"Mw*2quuu050uSEjtq7=*2j!TmciqO*uuM!j6tuu0quuq0qu055",
"WSq**uu0;$,qSEjq0**qpppSYduq@%uuuaSDduu0qpuq0qq;$$",
"FNqX%t2=550umVa6*>7uJTpmn55q;;quuuNVauuqC!Muq2*<45",
"xiu666**00quizi2o6pC!!dii;1q;5MduuzzuupdP^Mq7**0uu",
"utd!H*20;%*quuu2o>l)Jpuuq*>q*w)JuuuuuudYKdp6%:0uuu",
"utd~AO6t42==7uu2X;l(Hqtuw6==:wPTJp2>uuaFNuu6o:0uuu",
"uuaGfO2ahdq*=qu2@>hYmphduu2o<0p))a*@6quzzuu6o0puuu",
"uupv8X2C)Juq=*7tqqiviM)Juu2o>0p))dq2@2uiuuu2XC^duu",
"uuui827J[Tuu=X7uuuuiujTTJa=X>0p!!dCM@*uuuuu72M!Thu",
"uuuuuttC)Jpu>@0adpq0qupT)M2@<qpDDd!^>&uuuuuuuuC'Tu",
"uuuu030aMKSaq7tJ^Mq0quudCYj0qupvva^)u0uuuuuuutC]Tu",
"5qu713quqNGauuuC!TCqquutaGNpuq69zuJQSduutuCCpuM)Ju",
"$4q**uuq0ivuuuuud^!duuuuuvzuu2O6uuujYAupph^!pqjEMu",
"52*27uuq0tiqquuuukHKjuu54iauu2X2uuuaVcaT)^TMu45nmu",
"u>X7puqqqquq07tuq0dGmuu4,5qup6&6uu07zmJ^)^htu43yiu",
"u>X7uuqquuuu>*7q0qiviuuq4,4uuutupu*@qT)Cpapuuu0;5u",
"u02qqrHLpuuu=X7q0quiiuuuq3;=qupJJ2%>qT~jqtuuuut52=",
"uwquqe^)dqqu&X7wqdjuuuuuuq;o7aM^J@-0uNGhuujjuuuu=X",
"u2*7qe^)a43q&X7up!!puuuuuu>X2J)JqX-0ucvaua!!puuu*.",
"u2o2gLTM615u72qud~E67q27uu72qJ)M725quiiuud))ptuu2>",
"q2%>Z]J6O2uuuudapYbO27O6hhauumYmuuuuuuuuua!^hpuuuu",
"%=75C]J2o:quud!Tpv9O67Oj``JuudviuuuuuuuuuudJ)Cuuuu",
".*phJTM2X-0uth'^pi8=>2=j!!TJacUcuuuuuq55qutM_JtuMP",
".*pKSpu6@;quuM)Tpuut**quuuJ)CJ)Ctuutw4$$4uumEmudT]",
" *ugpuuq7qwuJ^Jjuuuu%@quuudHYKCpqu2**200quuiBdh!TC",
"%1qqquuuuuuuT)htuuuu%%MjuuupGSq006=**6uuhJJNziM_Jt",
"tq0quuuuuppuSEjuuuuu%2/Tpuuuvz0q6O2uuuuuJ']!atjEAu",
"uq445u54uJTdmVauu22t7qCQTduuutqu2X>h!ZaTQJJCpudVcu",
"uw031714jQ!diziw6*=uupMT^Mdu0quu7%2h^TM~Tuttq08ziu",
"uuut2%2jYSduuuu2%6uuuM)TjYSu0quuuqtudSYMpuu0;%*tuu",
"uuup2X2cFcuuuuu2X6putC]TpVNuqquuuuuuumFauuuq52==7u",
"uuuu2X2ivzuuuuu2X2uuuC'Tixzuuuuuuuuuuzviuuuuuu7O2u"
};
