/* XPM */
static char *_b657367a25749b2a4bf58b6dd0f74c4[] = {
/* columns rows colors chars-per-pixel */
"50 50 116 2 ",
"   c None",
".  c #160F19",
"X  c #151317",
"o  c #141D17",
"O  c #181F17",
"+  c #161219",
"@  c #19131B",
"#  c #161B19",
"$  c #1B1B1B",
"%  c #0F2C16",
"&  c #112217",
"*  c #102816",
"=  c #192C17",
"-  c #132319",
";  c #1B2319",
":  c #132C1A",
">  c #1A2D19",
",  c #0B3614",
"<  c #0D3A16",
"1  c #0E3E18",
"2  c #1A3617",
"3  c #133C16",
"4  c #1B3D16",
"5  c #123319",
"6  c #1C3519",
"7  c #113C19",
"8  c #1D3C19",
"9  c #24221E",
"0  c #232B1C",
"q  c #292A1F",
"w  c #23321C",
"e  c #24381B",
"r  c #2A3B1F",
"t  c #1D1720",
"y  c #1F1B22",
"u  c #211C24",
"i  c #251F28",
"p  c #1C2420",
"a  c #1E2C23",
"s  c #212424",
"d  c #232923",
"f  c #292A20",
"g  c #262228",
"h  c #29272B",
"j  c #252B29",
"k  c #2C2B2C",
"l  c #2D3424",
"z  c #2E3C23",
"x  c #383C2B",
"c  c #2F2B31",
"v  c #322E34",
"b  c #343434",
"n  c #363835",
"m  c #3A3A35",
"M  c #373338",
"N  c #3D3D3F",
"B  c #0F4019",
"V  c #154516",
"C  c #1A4516",
"Z  c #174817",
"A  c #1B4C15",
"S  c #114219",
"D  c #18471A",
"F  c #1D4B1B",
"G  c #1F5016",
"H  c #204717",
"J  c #2C451E",
"K  c #244C1B",
"L  c #2C4F1D",
"P  c #215117",
"I  c #25541A",
"U  c #29551C",
"Y  c #2D5A1C",
"T  c #31541F",
"R  c #315D1D",
"E  c #35611F",
"W  c #374524",
"Q  c #3C4526",
"!  c #334D22",
"~  c #3F462B",
"^  c #365521",
"/  c #395B22",
"(  c #376221",
")  c #3A6521",
"_  c #3E6822",
"`  c #414B29",
"'  c #405327",
"]  c #405F25",
"[  c #45512A",
"{  c #4B592C",
"}  c #426525",
"|  c #436B25",
" . c #486E27",
".. c #4B612A",
"X. c #4A6E28",
"o. c #55652F",
"O. c #54692E",
"+. c #586F2F",
"@. c #4B7028",
"#. c #54752C",
"$. c #5B792F",
"%. c #5A6C30",
"&. c #5C7531",
"*. c #617633",
"=. c #637D33",
"-. c #687F35",
";. c #3F3C40",
":. c #423F43",
">. c #444245",
",. c #474548",
"<. c #49474A",
"1. c #4B4A4C",
"2. c #545354",
"3. c #5A5A5A",
"4. c #678035",
"5. c #698235",
/* pixels */
"                                                                                                    ",
"                                                                                                    ",
"                                                                                                    ",
"                                                                                                    ",
"                                                      Q Q Q Q                                       ",
"                                                    { 5.5.5.5.Q                                     ",
"                                    o.o.o.o.{   l ^ } @.X.#.5.Q                                     ",
"                                    =.=.=.=.+.$ w | ) ) ) | =.`                                     ",
"                                ^ ) | | | | ) 7 K | Y A A U | #.*.                                  ",
"                                / _ R R R R Y 1 F E I A A I _ #.-.q                                 ",
"                                / ) A A A A Z , 3 A A A A I _ #.-.f                                 ",
"                                K I A Z V Z A V Z A Z V Z I _ #.-.f u                               ",
"                                C Z A V B Z A A A A S B Z I _ #.-.f u                               ",
"                                  ; A V B S S S S S S S Z I _ #.-.f u 3.                            ",
"                                  O A Z S S 1 1 1 B B S Z I _ #.-.f u                               ",
"                                  o A A A S 1 , < B B S Z I _ #.-.q y 3.3.3.3.3.  ,.+ + + . i       ",
"                                  b > 4 A S 1 , < B < < U ( #.{ Q m ;.3.1.M M M M m ` ` ` ` ~ b     ",
"                @ @ @ @ + +       <.@ > A S 1 , < B < < ( @.5.Q . <.3.3.N + @ @ + l 4.5.5.5.%.@ v   ",
"          O.o.o.o.o.o.o...^ l i g s 5 V A S 1 1 < < < S ( X.5.] 4 s i i x O.o.o.o.O. . . . .X.O.` g ",
"        O.=.=.=.=.=.=.=.#.) e # # - B V Z V S B < , < S (  .&./ Z 0 9 9 Q =.=.=.=.#.) ) ) )  .5.[ . ",
"        / | | | | | | | E A A A A Z B < , Z Z S < , < S ) ( V S S O.=.=.#.| | | | ( A A A (  .5.[ . ",
"        L R R R R R R R U V Z Z Z V V 3 , Z A S < , < S Y U < D I X.#.X._ R R R R Y A A A (  .4.[ . ",
"        C A A A A A A A Z B B B B S A V , Z A S < , < S Z V , I | _ ) A A A A A A A A A A (  .4.[ . ",
"        C A A A A V S S S < 1 B B S S V V V S < < , < B S V V A I I I A Z S S S S V A Y E )  .5.[ . ",
"        8 Z Z A A S S B 1 , < 1 1 1 1 V A S 1 , , , < B B S A A Z Z Z Z V 1 1 1 1 V G Y ) ) | &.` t ",
"        s O S V A A Z S B 1 < , , , , < S < , , , , < B B B S S S S S < < , , < 1 F ) U V A H $ b 2.",
"          j 5 3 V V V S B B < , , , , < 1 < < < < < < < < < < < < < < , , < < < S F E F < 3 6 h ;.  ",
"          1.@ & , , , 1 B B < , , , , , , 1 B B B B < , , , , , , , , , < B B S Z A A S , X i 3.3.  ",
"          k 6 4 V < < B 1 < < , , , , , , < < B 1 < , , , , , , , S V V V Z Z Z A A A P U ' ` v >.  ",
"        i O A A A S B B < , , , , , , , , , , 1 < , , , , , , , < Z A A A A A A A A A R | =.%.@ v   ",
"        ! T A Z S S B B < , , , , , , , , , , < , , , , 1 1 1 V Z 3 < S S S Y ) ) R A Y | =.%.@     ",
"      + / ) A V B B B B 1 < < < < < < < < , , , , < < < 1 B B V Z < < S S 1 U ( ^ T P ( X.O.{       ",
"        / ) A V S S B B B B B B B B B B B < , , < B B B B B B B B B S A V , 1 7 X 0 _ #.-.q         ",
"        z J Y P V S B B B B 5 : : : < < < , , , < < < < < < < < < 1 S V V S 5 : b n r W `           ",
"          ; ) R A S B B 1 B - @ @ # , , , , , , , , , , , , , , , 1 B B V A ; t 2.,.+               ",
"          ; ) ) E P Z - O O b <.<.N # * , & o , , , , , , , , < 1 1 S Z Z A U ! h v                 ",
"          d / / / K 4 u u u       >.X & , p y % , < , , , , , < B S S A A P ) } $                   ",
"            $ @ @ X y             # , & + ,.1.@ - B < , , < 1 B B Z A A U ) #.&.$                   ",
"                  c b           p - % a v 1.2.v j : 3 3 < < B B B V Z I R _ $.*.                    ",
"                              + 7 5 . M     3.3.:.. 2 A S B B B B , 3 ) | _ $.*.                    ",
"                            a : -               :.. 2 A S B B S Z U U w w 0 l                       ",
"                  h X X X + : 7                 >.@ 6 Z S S S V A ) / @ @ @                         ",
"              y u 8 Z C C 7 - $                   2.k # Z A Z A A ) / + k                           ",
"          0 0 ; ; 2 4 4 3 5 d                         + Z A A P I T ! h                             ",
"        / | | Y A ; . + +                             X Z A A Y _ ; u                               ",
"          r r w >                                       > = > w r n                                 ",
"                                                          @ @ @ @                                   ",
"                                                                                                    ",
"                                                                                                    ",
"                                                                                                    "
};
