/* XPM */
static char *_d79ee3cb6c34a47a198f88c34c797c4_0[] = {
/* columns rows colors chars-per-pixel */
"50 50 256 2 ",
"   c None",
".  c #312040",
"X  c #322241",
"o  c #332341",
"O  c #332441",
"+  c #342441",
"@  c #352542",
"#  c #352642",
"$  c #3F3546",
"%  c #403747",
"&  c #49454B",
"*  c #4B484C",
"=  c #525651",
"-  c #039F79",
";  c #099F78",
":  c #099F79",
">  c #0CA077",
",  c #07A179",
"<  c #09A078",
"1  c #08A179",
"2  c #0AA279",
"3  c #0BA279",
"4  c #0BA379",
"5  c #09A17A",
"6  c #0CA178",
"7  c #0CA278",
"8  c #0CA279",
"9  c #0CA379",
"0  c #0DA379",
"q  c #0CA479",
"w  c #0FA479",
"e  c #0CA47A",
"r  c #0CA57A",
"t  c #0CA57B",
"y  c #0CA67B",
"u  c #0CA87D",
"i  c #0CAC7F",
"p  c #11A679",
"a  c #1AAA79",
"s  c #1DAB7A",
"d  c #22B374",
"f  c #3BB97A",
"g  c #7FB26F",
"h  c #38C26F",
"j  c #3AC46F",
"k  c #38D17A",
"l  c #47CC6C",
"z  c #48CE6C",
"x  c #4EC37B",
"c  c #4FC37B",
"v  c #52C47B",
"b  c #55C67C",
"n  c #46D572",
"m  c #62CC7C",
"M  c #64CD7C",
"N  c #77D67D",
"B  c #79D77D",
"V  c #5BEE79",
"C  c #6FF36A",
"Z  c #6EF36B",
"A  c #70F36A",
"S  c #63F171",
"D  c #61F072",
"F  c #62F072",
"G  c #89A767",
"H  c #88A868",
"J  c #98BF6E",
"K  c #99BF6E",
"L  c #98BF6F",
"P  c #82F75F",
"I  c #83F75F",
"U  c #83F85F",
"Y  c #86F85D",
"T  c #84F85E",
"R  c #85F85E",
"E  c #84F95F",
"W  c #87FB5F",
"Q  c #97C06F",
"!  c #88C676",
"~  c #90C372",
"^  c #81F760",
"/  c #83F960",
"(  c #9AE77E",
")  c #9EE97E",
"_  c #A3EB7E",
"`  c #A9EF7E",
"'  c #B0E67A",
"]  c #B2E67A",
"[  c #ADF07E",
"{  c #ADF07F",
"}  c #AFF17F",
"|  c #B7F17D",
" . c #B8F17D",
".. c #BAF17C",
"X. c #BAF77F",
"o. c #BBF77F",
"O. c #BCF77F",
"+. c #BDF77F",
"@. c #BEF77E",
"#. c #BFF77E",
"$. c #BCF87F",
"%. c #BDF87F",
"&. c #BFF87E",
"*. c #BEF97F",
"=. c #BFF97F",
"-. c #C3F87D",
";. c #C0F87E",
":. c #C0F97F",
">. c #C2F87E",
",. c #C2FA7F",
"<. c #C1FC7F",
"1. c #0CAC80",
"2. c #0CAD80",
"3. c #0CB083",
"4. c #0CB183",
"5. c #09B184",
"6. c #08B185",
"7. c #0BB284",
"8. c #0BB384",
"9. c #0CB284",
"0. c #0BB889",
"q. c #0BB989",
"w. c #08B88A",
"e. c #0BBA8A",
"r. c #0BBC8C",
"t. c #0BBE8D",
"y. c #0BC08E",
"u. c #0BC18F",
"i. c #0BC28F",
"p. c #0BC793",
"a. c #09C794",
"s. c #0BC894",
"d. c #0BC995",
"f. c #0BCB96",
"g. c #0BCC97",
"h. c #0BCD98",
"j. c #09CE99",
"k. c #0ACE99",
"l. c #0BCE99",
"z. c #0BCF99",
"x. c #0AD099",
"c. c #0ED099",
"v. c #0AD49D",
"b. c #0AD59E",
"n. c #0AD69E",
"m. c #1CD094",
"M. c #1CD799",
"N. c #2EC386",
"B. c #37E88B",
"V. c #38E88A",
"C. c #2BE591",
"Z. c #21E19F",
"A. c #22E19F",
"S. c #24E29F",
"D. c #25E29F",
"F. c #27E29E",
"G. c #28E29E",
"H. c #35E39A",
"J. c #37E59B",
"K. c #36E69B",
"L. c #3AE599",
"P. c #39E59A",
"I. c #3AE59A",
"U. c #3CE499",
"Y. c #03DDA5",
"T. c #02DDA6",
"R. c #05DDA5",
"E. c #06DDA5",
"W. c #07DEA5",
"Q. c #05DDA6",
"!. c #07DDA6",
"~. c #07DFA7",
"^. c #0AD9A0",
"/. c #0ADAA1",
"(. c #0ADBA2",
"). c #0ADCA3",
"_. c #0ADDA3",
"`. c #09DEA3",
"'. c #0ADEA3",
"]. c #0DDFA2",
"[. c #0DDEA3",
"{. c #0FDFA3",
"}. c #0ADDA4",
"|. c #08DEA4",
" X c #09DEA4",
".X c #08DEA5",
"XX c #09DFA5",
"oX c #0ADEA4",
"OX c #0BDEA4",
"+X c #0ADFA4",
"@X c #0ADFA5",
"#X c #0CDEA4",
"$X c #10DFA3",
"%X c #14DFA2",
"&X c #0AE0A5",
"*X c #0AE0A6",
"=X c #0AE1A6",
"-X c #16E0A1",
";X c #17E0A1",
":X c #15E0A2",
">X c #16E0A2",
",X c #19E0A1",
"<X c #1DE0A0",
"1X c #1CE1A0",
"2X c #5DD78A",
"3X c #52DB8F",
"4X c #45EB82",
"5X c #4AEB85",
"6X c #41E297",
"7X c #48E797",
"8X c #4FE695",
"9X c #4DE796",
"0X c #4DE896",
"qX c #4CE997",
"wX c #4EE896",
"eX c #4FE896",
"rX c #42E698",
"tX c #54E895",
"yX c #75ED8E",
"uX c #78ED8D",
"iX c #7DEE8C",
"pX c #62EB91",
"aX c #63EB91",
"sX c #63EB92",
"dX c #64EB91",
"fX c #97E580",
"gX c #8CF089",
"hX c #94F187",
"jX c #9AF286",
"kX c #9EF385",
"lX c #9FF385",
"zX c #92F188",
"xX c #A9EF80",
"cX c #A1F384",
"vX c #A2F484",
"bX c #A0F686",
"nX c #A0F787",
"mX c #ACF582",
"MX c #ADF582",
"NX c #AEF582",
"BX c #AFF983",
"VX c #B0F581",
"CX c #B5F680",
"ZX c #B6F680",
"AX c #B8F780",
"SX c #BEFB80",
"DX c #BFFD81",
"FX c #C0FB80",
"GX c #C1FD80",
"HX c black",
"JX c black",
"KX c black",
"LX c black",
"PX c black",
"IX c black",
"UX c black",
/* pixels */
"                                                                                                    ",
"                                                                                                    ",
"                                                                                                    ",
"                                                                                                    ",
"                                                                                                    ",
"                                                                                                    ",
"                                                                                                    ",
"                                                                                                    ",
"                                                                                                    ",
"                                                                                                    ",
"                                                                                                    ",
"                                                                                                    ",
"                                                                                                    ",
"                                                                                                    ",
"                                                                                                    ",
"                                                                                                    ",
"                                      9 9 9 9 9 9 9 9 9 9 9 9 9 9 9 9 9 9 9 9 9 9                   ",
"                                      9 9 9 9 9 9 9 9 9 9 9 9 9 9 9 9 9 9 9 9 9 9                   ",
"                                      8.8.8.8.8.8.8.8.8.8.8.8.8.8.8.8.8.8.8.8.8.4.                  ",
"                                9 9 8.oXoXoXoXoXoXoXoXoXoXoXoXoXoXoXoXoXoXoXoX&Xs.9 9 9             ",
"                                9 9 8.oXoXoXoXoXoXoXoXoXoXoXoXoXoXoXoXoXoXoXoX&Xp.9 9 9             ",
"                                2.i e.oXoXoXoXoXoXoXoXoXoXoXoXoXoXoXoXoXoXoXoXoXs.i 2.2.            ",
"                  9 9 9 9 9 9 e._._._.oXoXoXoXoXoXoXoXoXoXoXoXoXoXoXoXoXoXoXoXoX_._._.l.9 9 9       ",
"                  9 9 9 9 9 9 e.oXoXoXoXoXoXoXoXoXoXoXoXoXoXoXoXoXoXoXoXoXoXoXoXoXoXoXl.9 9 5       ",
"                  9 9 9 r u r t.oXoXoXoXoXoXoXoXoX;X,X,X,X,X,X,X,X,X$XoXoXoXoXoXoXoXoXc.a a s       ",
"            9 9 9 9 9 9 t.^.^.^.oXoXoXoXoXoXoXoX;XlXMXMXMXMXMXMXMXVX7X!.oXoXoXoXoXoX!.H.} } } o.o.o.",
"            9 9 9 9 9 9 i.&XoXoXoXoXoXoXoXoXoXoX,XMXO.o.o.o.o.o.O.$.0X!.oXoXoXoXoXoX!.P.O.o.O.o.o.o.",
"            9 9 9 r r 9 i.&XoXoXoXoXoXoXoXoX{.{.<XxX .| | | | | |  .9XoX{.{.oXoX#X{.#XU.| | | | | | ",
"            9 9 9 i.n.n.^.oXoXoXoXoXoXoXoXA.jXlXfX= * * * * * * * & g nXbXtX!.!.rXcXbX! * * * * * * ",
"            9 9 9 s.&XoXoXoXoXoXoXoXoXoXoXF.AX$.] $ O + + + + + + . G GX;.sX!.!.0X;.FXJ + + + + + + ",
"            9 9 9 s.&XoXoXoXoXoXoXoXoXoXoXF.ZX$.] % + + + + + + + X H DX;.sX!.!.0X$.SXJ + + + + + + ",
"      9 9 9 9 9 9 s.&XoXoXoXoXC.F F F F F V P.P.6X~ Q Q Q Q Q Q L J 2XJ.P.A.oXoX<XP.J.3XQ Q Q Q Q Q ",
"      9 9 9 9 9 9 s.oXoXoXoX!.V.Y U U I Y C _.!.;XBXSXSXSXSXSXSXSX<.0XT.!.oXoXoXoX!.T.J.SXSXSXSXSXSX",
"      9 9 9 9 9 9 s.&XoXoXoX!.B.U ^ ^ ^ I C {.oX,XMX$.O.O.O.O.O.$.;.0X!.oXoXoXoXoXoX!.P.$.$.$.$.$.$.",
"      9 9 9 9 9 9 4.e.e.e.e.e.k U ^ ^ ^ I C {.oX{.7X0X0X9X9X9X9X0X0XF.oXoXoXoXoXoXoXoXM.x x x x x x ",
"      9 9 9 9 9 9 9 9 9 9 9 ; h / ^ ^ ^ I C {.oXoX!.!.!.!.!.!.!.!.!.oXoXoXoXoXoXoXoXoXl.5 5 5 , , , ",
"      9 9 9 9 9 > > 9 9 9 9 5 j Y Y Y Y Y A _.!.!.!.!.!.!.!.!.!.!.!.!.!.!.!.!.!.!.oXoXl.9 9 9 9 9 9 ",
"      9 9 9 e.i.i.i.i.i.8.9 5 d l l n 4X4X5XsXsXsXsXsXsXsXsXsXsXsXsXsXsXsXsXsXsX0X                  ",
"      9 9 9 x.&XoXoX&X&Xi.9 9 5 5 ; 8.!.!.F.o.;.;.;.;.;.;.;.;.;.;.;.;.;.;.;.;.;.;.                  ",
"      9 9 9 l.oXoXoXoX&Xi.; 9 9 9 9 8.oXoXG.o.;.$.O.o.o.o.o.o.o.o.o.o.o.o.$.;.$.;.                  ",
"      9 9 9 l.oXoXoXoXoXg.e.e.4.9 9 8.oXoX<XyXyXiXZXo.o.o.o.o.o.o.o.o.o.$.( N B B                   ",
"      9 9 9 l.oXoXoXoXoXoXoX&Xs.9 9 8.oXoXoX!.!.;XMXo.o.o.o.o.o.o.o.o.o.;.m - 5 5                   ",
"      9 9 9 l.oXoXoXoXoXoXoX&Xa.5 5 8.oXoXoXoXoX,XMXo.o.o.o.o.o.o.o.o.o.;.M , 9 9                   ",
"      9 9 9 l.oXoXoXoXoXoXoXoXm.f f N.oXoXoXoXoX,XMXo.o.o.o.o.o.o.o.o.o.;.M , 9 9                   ",
"      9 9 9 l.oXoXoXoXoXoXoX!.0X$.$.gXoXoXoXoXoX,XMXo.o.o.o.o.o.o.o.o.o.;.M , 9 9                   ",
"      9 9 9 l.&XoXoXoXoXoXoX!.0XO.O.gXoXoXoXoXoX,XMXO.O.o.o.o.o.o.o.$.$.;.M , 9 9                   ",
"      9 9 9 s.n.n.^.oXoXoXoX!.0XO.O.hXF.F.A.oXoX;XzXlXlXZXo.o.o.o.O.` ) _ b 5 9 9                   ",
"            r r r s.&XoXoXoX!.0XO.o.o.ZXAXjX{.oXoX{.{.%XlXO.o.o.o.$.v 9 p r 9 9 9                   ",
"            9 9 9 s.&XoXoXoX!.9XO.o.o.o.O.lX{.oXoXoXoX{.lXO.o.o.o.$.x , 9 9 9 9 9                   ",
"            9 9 9 s.&XoXoXoX!.9XO.o.o.o.O.lX{.oXoXoXoX{.lXO.o.o.o.$.x , 9 9 9 9 9                   "
};
