/* XPM */
static char *d0e41e09660e4978991fa3d532a12047foUP2mEjNGwJqN93[] = {
/* columns rows colors chars-per-pixel */
"50 50 169 2 ",
"   c None",
".  c #0F0D18",
"X  c #120E11",
"o  c #110D15",
"O  c #100E16",
"+  c #161110",
"@  c #171113",
"#  c #151215",
"$  c #1F1815",
"%  c #201917",
"&  c #A90500",
"*  c #A91307",
"=  c #A71609",
"-  c #A7170A",
";  c #A9180A",
":  c #AF180A",
">  c #AB1A0C",
",  c #AC1A0D",
"<  c #AA1C0D",
"1  c #A91D0E",
"2  c #AA1D0F",
"3  c #AA1F0F",
"4  c #AF1E0E",
"5  c #B41307",
"6  c #B41C0D",
"7  c #BC190A",
"8  c #BF1D0D",
"9  c #A3220E",
"0  c #A7230F",
"q  c #A9210E",
"w  c #A8200F",
"e  c #B9220F",
"r  c #B9250F",
"t  c #A22711",
"y  c #A52712",
"u  c #AC2110",
"i  c #AB2711",
"p  c #A32812",
"a  c #A62A14",
"s  c #A72A14",
"d  c #A82813",
"f  c #A82814",
"g  c #B42110",
"h  c #B42311",
"j  c #B62411",
"k  c #BB2611",
"l  c #B92712",
"z  c #B32D16",
"x  c #BB2912",
"c  c #BC2912",
"v  c #BF2913",
"b  c #BC2A12",
"n  c #BD2B14",
"m  c #B92F16",
"M  c #A9371D",
"N  c #B73017",
"B  c #B3311B",
"V  c #B4341C",
"C  c #A83F27",
"Z  c #C21B0D",
"A  c #D31D0E",
"S  c #C52912",
"D  c #C32E16",
"F  c #C1351C",
"G  c #CC331C",
"H  c #C9371D",
"J  c #D43822",
"K  c #D73B24",
"L  c #D13C24",
"P  c #B14025",
"I  c #BA4224",
"U  c #BC4327",
"Y  c #B24328",
"T  c #B1482E",
"R  c #BD4829",
"E  c #B35032",
"W  c #B35237",
"Q  c #BA5233",
"!  c #BE5D38",
"~  c #D94126",
"^  c #DB4326",
"/  c #DF4027",
"(  c #DA4426",
")  c #DE4328",
"_  c #D94528",
"`  c #D54828",
"'  c #D4492A",
"]  c #D6492B",
"[  c #D44E2C",
"{  c #CA5033",
"}  c #CD5535",
"|  c #C15B37",
" . c #E24027",
".. c #E14128",
"X. c #E04229",
"o. c #E44328",
"O. c #E74228",
"+. c #EC452B",
"@. c #F7482B",
"#. c #B45F41",
"$. c #B86340",
"%. c #BD6E47",
"&. c #DF5349",
"*. c #DD584B",
"=. c #DA5A4E",
"-. c #FF5F53",
";. c #D36B45",
":. c #C0764D",
">. c #C97757",
",. c #C17B54",
"<. c #BF825D",
"1. c #BE8864",
"2. c #BF8C67",
"3. c #BF9464",
"4. c #C08653",
"5. c #C4835F",
"6. c #C38662",
"7. c #C38A63",
"8. c #CB8B65",
"9. c #C98C66",
"0. c #CD8C65",
"q. c #C08D68",
"w. c #CC8F68",
"e. c #C88F6C",
"r. c #C69562",
"t. c #C59863",
"y. c #C69B65",
"u. c #C39268",
"i. c #CC9269",
"p. c #D4916C",
"a. c #C99170",
"s. c #DB9570",
"d. c #D09A7B",
"f. c #D49C79",
"g. c #DA9B79",
"h. c #E19871",
"j. c #E99D73",
"k. c #C8A06A",
"l. c #CFA069",
"z. c #CAA46D",
"x. c #C8A76E",
"c. c #C7A071",
"v. c #CAAC72",
"b. c #C1A579",
"n. c #C3A679",
"m. c #C5A779",
"M. c #C6A779",
"N. c #C4A67A",
"B. c #C9AC7C",
"V. c #D0A971",
"C. c #FAA87D",
"Z. c #C4AC80",
"A. c #C7AE81",
"S. c #DDA180",
"D. c #C3B387",
"F. c #C6B78A",
"G. c #CEB788",
"H. c #C6B88A",
"J. c #D5BD8C",
"K. c #E1A888",
"L. c #E1C382",
"P. c #E5CC89",
"I. c #EBD28E",
"U. c #F0E094",
"Y. c #FAFBA8",
"T. c #FBFDAA",
"R. c #FDFEAC",
"E. c #FFFFAF",
"W. c #FEFFB0",
/* pixels */
"                                                                                                    ",
"                                      f d d d d d d d d d d d f                                     ",
"                                    y 7 : 6 6 8 8 8 8 8 8 8 6 Z                                     ",
"                                    B k r j u 9 9 9 9 9 9 9 z B                                     ",
"                          t j , 6 > J o.X.O._               c.V.E : , q ,                           ",
"                            6 3 > > J X./ o._               3.z.E * g ; 3                           ",
"                      y q       L K / / / o.(                     <.$.j c i q                       ",
"                      q A t     ( X./ / / o._                     B.4.c m 6 Z a                     ",
"                        p       ~  ./ /  . .~                     ;.} x x j j 9                     ",
"                  8 6           (  ./ / / / X.O.@.              { @.K x x x n r 7 u                 ",
"                  q d           /  ./ / / / / / O.              [ +.K x x x x j : q                 ",
"            a 6 y               (  ./ / / / / / ) ( ( ( ( ( ( ( / X.K k n x b x x k q 3             ",
"            f Z 9               (  ./ / / / / / / / X. . . . . ./ ) K k c x c c S x , 6             ",
"            a 8 0           ' ` / / / / / / / / / / / / / / / / / / ) J J D S B   { 3 ,             ",
"            a 7 9           @.O./ / / / / / / / / / / / / / / / / / / ) o.D S T     3 6             ",
"            N S V         ` o. ./ / / / / / / / / / / / / / / / / / / / / D S U     Y C             ",
"        q 6 G +.O.X.O.O.O.../ / / / / / X. .o.o.o.o. .X. ./ / / / / / / X.D S I   u.l.z.P 7 p       ",
"        q ; F ~ ~ / / / K / / / / / / / / ~ ~ ~ ~ ~ ~ ( / / / / / / / / / D S R B.l.t.k.Y 5 f       ",
"        q 6       ) / / X.../ / / / / o.`     U.U.      ) / / /  ./ K c b n S R V.y.t.k.Y : f       ",
"        y Z       ) / / / / / ../  .o.@.`   W.Y.Y.Y.    +.+.) ) X.X.K k c x S U   V.y.v.U 7 y       ",
"    f M           )  ./ K X...../ / [     T.W.Y.Y.W.R.      H G G G G c x x D z U | r.    M M t t   ",
"    Z 3           ) / ) ..) X.X.) o.      R.R.W.W.R.W.      i S x x k c c x x c S m           Z 3   ",
"    6 3           o./ K J J J J J K       L.I.I.I.P.        z c x c x x x x c x c m         T 6 q   ",
"    6 9     [ O._ K ) j > > > > , > 3 3 3 = = = = = = 3 3 3 > , g c x c c x c b c c n n n n j , w   ",
"    6 u     [ +.X./ X.g = = = = = ; ; = ; ; ; ; ; ; ; ; ; ; - - g n x x x c c x x c x x x n j , w   ",
"    6 2 V N z e j j j #.6.<.<.<.1.1.1.7.1.1.1.1.1.1.1.1.1.1.7.2.V 6 g x c x c x n n n n x x j , u   ",
"    6 q S S j = = ; = 3.D.B.Z.A.G.G.G.G.G.G.G.G.G.G.G.G.Z.Z.Z.H.W & 6 n n x x k e e e e k n j , 1   ",
"    6 , k n j g g g > e.A.b.b.b.m.m.M.M.m.m.m.m.M.M.M.c.b.b.b.Z.,.E V j j x k U | | | | F c j , y   ",
"    6 q x x x n n c k u.A.b.G.N.                        A.A.A.Z.A.F.2.= , x 8 | v.k.k.z.U 8 j , q   ",
"    6 q x x x x x n r u.A.m.b.B.                        b.b.b.b.b.A.7.; > B c ! k.t.y.k.Q n B > 1   ",
"    , , x c x x x n k q.G.                                        G.1.3 > ,.t.t.y.y.y.y.t.y.%.* y   ",
"    k , c n c x x n r 2.G.                                        J.7.* * 7.v.k.y.y.y.y.y.x.%.* 3   ",
"        9 , k n x c k <.f.                                            $.%.! T %.y.y.t.t.t.z.%.* 3   ",
"        u 7 j c n n x >.s.                                            B.H.B & Q B.y.z.y.y.v.%.5 q   ",
"        y 9 z x j j j >.s.                                                P f W ,.:.:.:.:.,.$.y y   ",
"            a 7 > , ; >.s.      X o               + o @                       T * > * * = 5 y       ",
"            f 6 > 3 3 >.s.      O o               @ . +                       T * > 3 3 > j y       ",
"                      8.h.      o o               @ . +                         >.6.                ",
"                      8.h.      X o               + . @                         s.i.                ",
"                      8.h.        %       {         $                           s.0.                ",
"                      w.h.                -.&.                                  s.0.                ",
"                      w.h.                *.=.                                  s.0.                ",
"                      w.h.                                                      g.e.                ",
"                      w.j.                                                      K.9.                ",
"                            8.i.                                          6.8.                      ",
"                            C.9.                                          w.C.i.                    ",
"                            5.i.                                          B.c.                      ",
"                                p.s.p.s.p.f.K.K.S.S.K.K.S.p.p.g.f.s.g.g.p.                          ",
"                                9.9.9.9.a.a.d.d.d.d.d.d.a.9.9.a.d.d.a.a.9.                          ",
"                                                                                                    "
};
