/* XPM */
static char *eddc0a763a8c47e793f3f87541e5bab6P9NNatOl9AnadnN1[] = {
/* columns rows colors chars-per-pixel */
"50 50 219 2 ",
"   c None",
".  c #000005",
"X  c #04050A",
"o  c #05050A",
"O  c #090D0F",
"+  c #02150B",
"@  c #06100E",
"#  c #0B0510",
"$  c #0C0611",
"%  c #0D0512",
"&  c #0B0715",
"*  c #0F0718",
"=  c #150E1A",
"-  c #0C1114",
";  c #0D1016",
":  c #091715",
">  c #0D1514",
",  c #061C13",
"<  c #0A1A13",
"1  c #0A1C13",
"2  c #0C1B15",
"3  c #0C1B16",
"4  c #0D1B17",
"5  c #141218",
"6  c #111F18",
"7  c #01250E",
"8  c #0A2115",
"9  c #0C2617",
"0  c #032A13",
"q  c #062D13",
"w  c #0A2A17",
"e  c #082D17",
"r  c #0D2B19",
"t  c #1A221B",
"y  c #1A2619",
"u  c #1E2719",
"i  c #15291A",
"p  c #172F1C",
"a  c #1A2A1E",
"s  c #093115",
"d  c #083117",
"f  c #0D3015",
"g  c #093018",
"h  c #0B3319",
"j  c #0E351A",
"k  c #0C361A",
"l  c #0D301C",
"z  c #0E3A1A",
"x  c #133812",
"c  c #143319",
"v  c #103518",
"b  c #1A371B",
"n  c #163919",
"m  c #163D1A",
"M  c #12391D",
"N  c #123A1E",
"B  c #133D1C",
"V  c #143C1F",
"C  c #1D3C19",
"Z  c #1B3F1D",
"A  c #223719",
"S  c #243D1B",
"D  c #313D1D",
"F  c #191B22",
"G  c #201B25",
"H  c #251E2A",
"J  c #1D2320",
"K  c #1B2A21",
"L  c #173724",
"P  c #1F3620",
"I  c #173E20",
"U  c #1F3D24",
"Y  c #1E3D2B",
"T  c #232221",
"R  c #202820",
"E  c #352E3A",
"W  c #343436",
"Q  c #1E411A",
"!  c #1C421F",
"~  c #22441B",
"^  c #27471C",
"/  c #29401C",
"(  c #2A4A1D",
")  c #2B4D1F",
"_  c #30411F",
"`  c #304F1C",
"'  c #344E1F",
"]  c #30521F",
"[  c #37551D",
"{  c #3F5A1D",
"}  c #3C581F",
"|  c #174021",
" . c #184323",
".. c #1B4222",
"X. c #1B4622",
"o. c #1C4523",
"O. c #204621",
"+. c #204624",
"@. c #284226",
"#. c #254820",
"$. c #264B22",
"%. c #214A26",
"&. c #254C25",
"*. c #2D4B27",
"=. c #294E25",
"-. c #25452F",
";. c #254E28",
":. c #3B4B2A",
">. c #2C5023",
",. c #2F5225",
"<. c #27532B",
"1. c #2A5129",
"2. c #2E5529",
"3. c #325323",
"4. c #365521",
"5. c #335525",
"6. c #375825",
"7. c #395821",
"8. c #3C5A23",
"9. c #3F5C20",
"0. c #3F5D24",
"q. c #32572A",
"w. c #36522D",
"e. c #375A29",
"r. c #3C5D29",
"t. c #3F5E29",
"y. c #3A592C",
"u. c #284137",
"i. c #2E4736",
"p. c #2D4D34",
"a. c #32443E",
"s. c #35493B",
"d. c #3C5735",
"f. c #32513B",
"g. c #34523E",
"h. c #435D1F",
"j. c #435F23",
"k. c #466021",
"l. c #456424",
"z. c #496323",
"x. c #4D6726",
"c. c #40602B",
"v. c #46642A",
"b. c #40622F",
"n. c #45662E",
"m. c #4F6A2B",
"M. c #4B692D",
"N. c #516A27",
"B. c #516D2B",
"V. c #546D29",
"C. c #556E2F",
"Z. c #58722C",
"A. c #5C742E",
"S. c #496733",
"D. c #486237",
"F. c #4A6B31",
"G. c #4E6C31",
"H. c #4D623E",
"J. c #547233",
"K. c #597534",
"L. c #5C7833",
"P. c #627A31",
"I. c #647F37",
"U. c #3F3745",
"Y. c #423B47",
"T. c #354C40",
"R. c #3A4D49",
"E. c #3B5042",
"W. c #3E5743",
"Q. c #46404B",
"!. c #4A444F",
"~. c #415347",
"^. c #455C42",
"/. c #43564A",
"(. c #465C4F",
"). c #504A55",
"_. c #554C5C",
"`. c #564F5C",
"'. c #58535C",
"]. c #59545E",
"[. c #4C614A",
"{. c #536949",
"}. c #5F6A48",
"|. c #516051",
" X c #516052",
".X c #586A54",
"XX c #594F61",
"oX c #5E5763",
"OX c #635D67",
"+X c #6B656F",
"@X c #726E76",
"#X c #77727B",
"$X c #698236",
"%X c #6D8638",
"&X c #7E877A",
"*X c #7C7880",
"=X c #7E7982",
"-X c #817C85",
";X c #858189",
":X c #87838B",
">X c #88948B",
",X c #8D8890",
"<X c #918E93",
"1X c #98949B",
"2X c #9D99A1",
"3X c #A19DA4",
"4X c #A6A2A8",
"5X c #ACA9B0",
"6X c #B6B4B9",
"7X c #BCB8BF",
"8X c #BFBCC2",
"9X c #C4C1C7",
"0X c #C8C5CB",
"qX c #CECBD0",
"wX c #D6D6D7",
"eX c #DDDDDD",
"rX c #E2E1E2",
"tX c #E7E8E7",
"yX c #EEEFEE",
/* pixels */
"                                          $ K t     *     *                                         ",
"                                          # c K   F y R   u T                                       ",
"                              F     F i   a j m p U *.A 2 / @.i 1 *                                 ",
"                              5 P t 8 I p ;.h V ;.<.2.( v V 2.q.%.p W                               ",
"                        R t * 8 z L h N Z j e $.&.&.#.m ~ C j.$Xo.L.C.D 6 u J                       ",
"                      6 c b i e l j | &.O.C f $.^ ) 3.m ] h.j.%Xo.F.B.j.4.*.A i 2                   ",
"                & 1 p l h L j Y /.0 N V <.' f j 5.e.! Z z.l.{ n.G.O.=.6.l.>...;.I 1 t               ",
"                - 0 z N X.o.n L f.e h e | ! m ( v.F.2.^ $.o.1.>.N.L.%.e.>.p.-.N o.e 9 $             ",
"              2 e E.L j ..o.~ m q ^ b.g 5.b.5.6.z.m.P.M.n r.b.O.[ J.$.v.j.W.s.h L T.0 #             ",
"            # e 0 W.w.m ~ ~ m ^ ` l.%Xh $XA.j.1.>.[ 8.$.~ B.V.r.0.N 7.h.x.B.t.( @.s.<               ",
"            - V C h ! $.4.) ! 7.z.j.K.6.7.j.h.7.r.e.1.>.e.j.7.N.C.q.q.6.8.B.J.y.^ A P t             ",
"        * < h o.( f n c.b.I ~ j.=.3.r.Z.j ~ } { P.r.q.$XM.M.;.5.z.%Xq.3.3.4.b.j.S S ' @.a < F       ",
"        - h r -...$.[ x.G.G.e.m =.2.^ j.| ^ { j.K.D.;.j.j.j.6.%.>.B.o.=.G.v.&.>.S e b <.<.%.9 @     ",
"      $ w d M (.V o.$.[ z.Z.j.Q B.G.=.4.h { 0.7.r.G.j.O.3.7.6.C o.3.q.$.G.m.~ M +.C h N X.&.d w O   ",
"      - d h &.D.f Q j ! 6.>.! ) v.z.B.n.3.( ..&.=.7.K.F.o.n.o./.h Q B.C X.B.` L F.j.S e b h T.N -   ",
"    X 8 j +.;.%.e [ C i. Xf.h ! n.5.j.V.I.! 3.F.q.( 0.j.' B.r./.( v ~ ^ ] P.b.o.%XN.' ..*.C E.K ;   ",
"      4 r X.M N j h.` -.u.-.$.{ Z.K.$.7.3.~ 8.N.x.v.=.I j.h.N.B.0.! ~ h.k.C.F.1.2.{ j.0.o.1.S b 4   ",
"        > h e L %.6.Z x x m =.j.j.J.(...N j e.6.j.V.M.e.2.j.{ K.n.k 0.} ,.6.M.M.$.2.4.3.....S O.5   ",
"        $ e d m I N E.d.0.~ | b.e.G.(...%.~ v.K.6.] A.K.%.5.5.3.D.v.~ ! 1.&.] Z.J...M.+.(.l N n >   ",
"          4 9 h e d d.d.r.( Y [.j.P.j 8.%.{ h.Z.H.p.3.6.m b.L.3.o.$X~ 4.C.r.) 6.3.[ B.v.^.S ! j e 2 ",
"            : 1 e V m ~ ^ N r i.}.{ e 7.j 5.6.v.{.s.! 7.q.$.K.8.h +./ r.z.x.M.2.m 0.h.N.Z.7.;.r 8 4 ",
"            & 1 q ~.-.j h j 0 l E.C h 3.e (.5.Z.y.#.7.B.K.h +.}./.h d e.e.8.N.C.n.1.0.[ J.F.%.- ;   ",
"            # e e E.L V $.n w Z =.I 0 l.d u.H.A.Q Q j.N.%X5.I u.a.%.( z.L.r.) V.K.o.6.r.>.b.N -     ",
"            > e d d q V +.! ~ l.J.b.>.( e 7 E.w.n j 5.B.S.[.h x x ..{ { B.{.f.$.5.I r.I.6.o.9 X     ",
"          * 1 e e e e s.i.Q 3.6.x.Z.P.c 6.j.U U ! ! 8.B.r.R.~.5.h.d w.e.n.{.f.! r.r.I M.{ n *       ",
"              > e e m [.*.j Z m ` [ 5.^ n.B.z.j.o.~ h.h.B.G.H.2.l.d /.e.A.e...8.m.I.I I q.b 5       ",
"              # w N ;.2.M C ^ h ^.^.j n r.5.x.Z.b.2.5.h.l.L.j.$.~ d L [.C.Q m h.N.%X6.I  ...A O     ",
"                2 o.X.I h ^ { @.R.R.o.C B.J.] 7.P.F.<.5.4.6.n.r j e 7 T.w.c N %.] r.l ..C m m -     ",
"                  a r h I 5.] x j j ;.k.h.L.^.&.j.>.! n.J.>.%.M b o.l h m j u.a.s N e M / o.l O     ",
"                  $ 8 I o.+.-.p.` ` j } 6.n..X-.o.5.&.5.L.4.h I c 1.z p.o.C @.Y B &./ d c U 9       ",
"                    2 r h d -.{.q.h.e |.] L.w.=.4.A.n.h ~ ^ b X.d o.d a.E.2.V d 1.1._ C , J         ",
"                      - , j ! ) 2.%.h s.H.A.x ( l.P.$X2.c 0 r ;.r w 1 8 E.E.N 9 u y y u             ",
"                          4 N V n j N 0  X5.f O.3.n.G.5.A r s.r 4 4   : W W 4 &                     ",
"                            4 8 , h X.h L j f.f.z c O.o.:.&X7X$                                     ",
"                                  : r w + 7 a.Y d (.>X>X<XqXrX#                                     ",
"                                    6 2   y @ O a.1X7X7X0XqXwX#                                     ",
"                                              @ ).:X-X<X0XtXwX#                                     ",
"                                              X ).*X:X5X0XtXwX#                                     ",
"                                              X ).-X1X9X9XtXwX$                                     ",
"                                              X ).-X1X9X9XtXwX.                                     ",
"                                              Y.+X#X<X8XqXtXwXG                                     ",
"                                            $ OX:X-X:X<X6XeXrX5X=                                   ",
"                                            X oX*X2X5X,X4XwXtXyX5                                   ",
"                                            X '.*X2X9X8X9XrXrXeX5                                   ",
"                                            X '.-X-X1X5X6XqXrXrX5                                   ",
"                                            H OX-X#X:X3X3X8XtXtX#                                   ",
"                                    XXXX'.'.:X5X6X5X1X,X2XqXeXeX'.`.oXXX`.                          ",
"                                  $ !.Q.+X2X3X8XqX5X,X-X1X9X3X4X5X,X).Y.!.G                         ",
"                                  = `.`.U.*X*X'.'.+X2XqX8X:X!.).OX@XoX`.`.T                         ",
"                                                  W @X8X1XE       *                                 "
};
